<?xml version="1.0" encoding="UTF-8"?>
<!-- Generator: visioncortex VTracer -->
<svg id="svg" version="1.1" xmlns="http://www.w3.org/2000/svg" style="display: block;" viewBox="0 0 512 512"><path d="M0 0 C1.05545098 -0.00297112 2.11090196 -0.00594224 3.1983363 -0.0090034 C6.71134923 -0.01762834 10.22432782 -0.01919338 13.73735046 -0.02069092 C16.26629712 -0.0253236 18.79524307 -0.03034886 21.32418823 -0.03573608 C28.18015961 -0.04882129 35.0361198 -0.05533546 41.89210153 -0.05974674 C46.18358434 -0.06251984 50.47506494 -0.06675916 54.76654625 -0.07125092 C66.67795959 -0.08343758 78.58937116 -0.09373706 90.5007906 -0.09712601 C91.26173551 -0.09734557 92.02268042 -0.09756514 92.80668427 -0.09779136 C93.5693251 -0.09800964 94.33196593 -0.09822791 95.11771709 -0.09845281 C96.66280321 -0.09889625 98.20788934 -0.09934282 99.75297546 -0.09979248 C100.51937177 -0.10001391 101.28576808 -0.10023534 102.07538851 -0.10046348 C114.46985743 -0.10440427 126.86426731 -0.121839 139.25871346 -0.145152 C152.02262384 -0.16896352 164.78650471 -0.18133234 177.55043763 -0.18249393 C184.70117202 -0.18340537 191.85182951 -0.1890222 199.0025425 -0.20731354 C205.73889617 -0.22448568 212.47508025 -0.22589461 219.21145821 -0.21717453 C221.66824993 -0.21641017 224.12504982 -0.22066631 226.58182144 -0.23063278 C269.71704887 -0.39519662 305.66839298 10.52689654 337.06816101 41.14044189 C337.69593445 41.70634033 338.32370789 42.27223877 338.97050476 42.85528564 C353.40040329 56.19869769 363.82601748 75.77148682 370.06816101 94.14044189 C370.29276505 94.78888565 370.51736908 95.43732941 370.7487793 96.10542297 C376.71642977 114.20399898 375.79030428 133.05800505 375.64463806 151.86590576 C375.62596132 155.40633055 375.64082086 158.94629767 375.65574741 162.48671532 C375.666407 165.94617046 375.65730181 169.4053647 375.64236259 172.86479568 C375.63725652 174.49354905 375.63756801 176.12233052 375.64390755 177.75107956 C375.67723909 191.43743835 373.87169082 204.14688911 367.25566101 216.39044189 C366.90656677 217.05608154 366.55747253 217.72172119 366.19779968 218.40753174 C365.1753413 220.33076597 364.12734199 222.23724231 363.06816101 224.14044189 C362.53448914 225.11755127 362.00081726 226.09466064 361.45097351 227.10137939 C348.39659488 249.24836005 325.9055322 264.58214947 301.36629415 271.32676297 C291.28440521 273.81405508 281.36457843 274.43262223 271.01524353 274.40113831 C269.64670376 274.40416677 268.27816568 274.4080597 266.90963054 274.41273087 C263.18647024 274.42293031 259.46340711 274.42084984 255.74023914 274.41655028 C251.71010131 274.41406825 247.67998598 274.42311548 243.64985657 274.43058777 C235.76848163 274.44329638 227.88714082 274.44513323 220.00575736 274.44278751 C213.59459622 274.44099973 207.18344538 274.4427638 200.77228546 274.44701195 C199.40016005 274.44790473 199.40016005 274.44790473 198.00031494 274.44881555 C196.14158831 274.45002739 194.28286168 274.45124152 192.42413506 274.45245793 C175.01696176 274.46331886 157.60980786 274.46117794 140.20263347 274.45507308 C124.30726499 274.44990627 108.41195783 274.46115573 92.51660147 274.4801713 C76.16369258 274.49958303 59.81081266 274.50779979 43.45789218 274.50404805 C34.28966423 274.50214092 25.12148846 274.50457565 15.95326996 274.51876259 C8.14736636 274.53072002 0.34154703 274.53203271 -7.46435782 274.51997242 C-11.44018214 274.51411395 -15.41585265 274.51289936 -19.39166641 274.52497482 C-50.64228942 274.6134647 -78.40094444 271.46991464 -102.93183899 250.14044189 C-103.7529718 249.46368408 -104.57410461 248.78692627 -105.42012024 248.08966064 C-121.36786473 234.52291688 -130.13447012 216.9460454 -135.93183899 197.14044189 C-136.111633 196.56648178 -136.291427 195.99252167 -136.47666931 195.40116882 C-137.11975047 192.20712723 -137.09281546 189.11684598 -137.12471008 185.85943604 C-137.13288757 185.13180557 -137.14106506 184.40417511 -137.14949036 183.65449524 C-137.17429885 181.24487091 -137.1908666 178.83530621 -137.20527649 176.42559814 C-137.21060017 175.59493773 -137.21592384 174.76427731 -137.22140884 173.90844536 C-137.24814614 169.49465739 -137.267502 165.08089749 -137.28193665 160.66705322 C-137.29515798 157.05448414 -137.32278642 153.44249585 -137.3639679 149.83013916 C-137.79882794 110.78393926 -137.79882794 110.78393926 -131.93183899 94.14044189 C-131.57525208 93.08026855 -131.21866516 92.02009521 -130.85127258 90.92779541 C-129.96987911 88.52401495 -129.00088482 86.2153993 -127.93183899 83.89044189 C-127.61472961 83.15438721 -127.29762024 82.41833252 -126.97090149 81.65997314 C-123.66713573 74.14060228 -119.59852473 67.03485439 -115.24433899 60.07794189 C-114.6629718 59.13821533 -114.08160461 58.19848877 -113.48262024 57.23028564 C-112.97086243 56.54063721 -112.45910461 55.85098877 -111.93183899 55.14044189 C-111.27183899 55.14044189 -110.61183899 55.14044189 -109.93183899 55.14044189 C-109.68433899 54.39794189 -109.43683899 53.65544189 -109.18183899 52.89044189 C-107.78659682 49.82090912 -106.37677412 48.45321837 -103.93183899 46.14044189 C-102.84363682 44.85287445 -101.76083759 43.56073179 -100.68183899 42.26544189 C-97.67413313 38.78454093 -94.49374953 36.09265545 -90.72871399 33.46466064 C-88.94442484 32.14971712 -87.47252356 30.72859853 -85.93183899 29.14044189 C-82.26517232 26.14044189 -82.26517232 26.14044189 -79.93183899 26.14044189 C-79.93183899 25.48044189 -79.93183899 24.82044189 -79.93183899 24.14044189 C-76.93183899 22.14044189 -76.93183899 22.14044189 -73.93183899 22.14044189 C-73.93183899 21.48044189 -73.93183899 20.82044189 -73.93183899 20.14044189 C-50.18004929 7.84319467 -27.01335941 -0.02417553 0 0 Z M-74.93183899 63.14044189 C-75.64726868 63.78368408 -76.36269836 64.42692627 -77.09980774 65.08966064 C-91.20841875 78.07183565 -100.03136007 97.60711039 -103.93183899 116.14044189 C-103.93183899 117.79044189 -103.93183899 119.44044189 -103.93183899 121.14044189 C43.24816101 121.14044189 190.42816101 121.14044189 342.06816101 121.14044189 C341.35089765 114.68507161 340.50218615 109.39896149 338.44316101 103.39044189 C338.17737244 102.61039795 337.91158386 101.830354 337.63774109 101.02667236 C333.40319896 89.02408016 326.98696987 79.04993098 319.06816101 69.14044189 C318.5667157 68.48430908 318.06527039 67.82817627 317.54862976 67.15216064 C306.14259264 52.85352621 288.01741343 42.79088071 270.81816101 37.32794189 C269.84423401 37.0173584 269.84423401 37.0173584 268.85063171 36.70050049 C264.25244293 35.31468099 259.82468684 34.63194956 255.06816101 34.14044189 C254.74243103 34.74702637 254.41670105 35.35361084 254.08110046 35.97857666 C247.81786769 47.62777448 241.5024824 59.24456176 235.00566101 70.76544189 C234.20285706 72.19352173 234.20285706 72.19352173 233.38383484 73.65045166 C224.82702445 88.76101018 224.82702445 88.76101018 218.06816101 92.14044189 C212.73839138 92.8025925 208.13024939 92.53232215 203.57597351 89.53497314 C199.77389234 86.01854056 198.24523581 81.93039078 197.74394226 76.86309814 C198.13859915 72.33167624 199.5548206 69.33959014 201.69316101 65.39044189 C202.05780457 64.69088379 202.42244812 63.99132568 202.79814148 63.27056885 C203.87297768 61.21867308 204.96700216 59.17830749 206.06816101 57.14044189 C206.88800476 55.60710205 206.88800476 55.60710205 207.72441101 54.04278564 C209.15490915 51.3986468 210.60851965 48.76858321 212.06816101 46.14044189 C213.17395154 44.12049667 214.27813721 42.09967201 215.38066101 40.07794189 C215.87179382 39.17946533 216.36292664 38.28098877 216.86894226 37.35528564 C217.6234707 35.9617429 218.35946156 34.55784079 219.06816101 33.14044189 C206.85816101 33.14044189 194.64816101 33.14044189 182.06816101 33.14044189 C177.13674855 41.7704137 172.26490372 50.38775126 167.56816101 59.14044189 C165.4053685 63.14254566 163.238121 67.14222016 161.06816101 71.14044189 C160.64405945 71.92209717 160.21995789 72.70375244 159.78300476 73.50909424 C158.72145722 75.45451504 157.64806558 77.39266737 156.56816101 79.32794189 C156.00097351 80.35274658 155.43378601 81.37755127 154.84941101 82.43341064 C152.07968063 86.64267195 148.90940706 90.3983633 144.06816101 92.14044189 C138.58668548 92.89549309 134.6222015 92.45247134 130.06816101 89.14044189 C129.40816101 89.14044189 128.74816101 89.14044189 128.06816101 89.14044189 C127.3819607 87.81705557 126.7202964 86.48094242 126.06816101 85.14044189 C125.48034851 84.08856689 125.48034851 84.08856689 124.88066101 83.01544189 C123.00839653 76.39050602 124.5203752 70.638545 127.75566101 64.70294189 C128.85131379 62.84373157 129.95557332 60.98956782 131.06816101 59.14044189 C132.0770532 57.3119869 133.07714994 55.47864976 134.06816101 53.64044189 C135.61283086 50.80719221 137.15889438 47.97474549 138.70878601 45.14434814 C139.50542664 43.68835205 139.50542664 43.68835205 140.31816101 42.20294189 C140.79769226 41.32766846 141.27722351 40.45239502 141.77128601 39.55059814 C142.9098226 37.43470333 143.99361213 35.28953965 145.06816101 33.14044189 C132.85816101 33.14044189 120.64816101 33.14044189 108.06816101 33.14044189 C102.78723831 42.52874892 97.5367159 51.90433102 92.44316101 61.39044189 C77.54015723 88.95970222 77.54015723 88.95970222 70.06816101 92.14044189 C65.43618053 92.86471521 61.95104454 92.59021275 57.75566101 90.45294189 C53.6813945 86.94717769 51.02684226 84.34433742 50.06816101 78.95294189 C49.52695629 71.1956743 53.51242404 64.7325114 57.65019226 58.46856689 C59.4860554 55.45431226 61.02129586 52.30880532 62.56816101 49.14044189 C65.11722988 43.92379117 67.91421953 39.01471509 71.06816101 34.14044189 C71.06816101 33.81044189 71.06816101 33.48044189 71.06816101 33.14044189 C58.85816101 33.14044189 46.64816101 33.14044189 34.06816101 33.14044189 C29.02428135 42.17425621 24.01363346 51.21860628 19.12016296 60.33477783 C16.45912621 65.28262489 13.77264614 70.2162208 11.06816101 75.14044189 C10.4523114 76.26361816 10.4523114 76.26361816 9.82402039 77.40948486 C2.91023274 89.85975132 2.91023274 89.85975132 -3.93183899 92.14044189 C-8.7818905 92.91474836 -11.93963342 92.67329303 -16.30683899 90.32794189 C-17.17308899 89.60606689 -18.03933899 88.88419189 -18.93183899 88.14044189 C-19.50933899 87.68669189 -20.08683899 87.23294189 -20.68183899 86.76544189 C-23.48767387 83.11785655 -23.95301046 79.79675762 -23.80683899 75.26544189 C-23.06031724 70.72624643 -21.16845109 67.11664119 -18.93183899 63.14044189 C-18.4742218 62.29481689 -18.01660461 61.44919189 -17.54512024 60.57794189 C-15.5001546 56.79931772 -13.42544901 53.03724823 -11.35371399 49.27325439 C-8.43196214 43.94622198 -5.60780777 38.59530133 -2.93183899 33.14044189 C-30.12243301 31.37566776 -56.08069123 44.51271514 -74.93183899 63.14044189 Z M-105.93183899 153.14044189 C-106.35653924 179.18872421 -105.16543506 202.30787637 -86.30683899 222.32794189 C-74.11224862 233.9155617 -57.99721538 241.24435994 -41.03486729 241.27466297 C-39.29086748 241.28134974 -39.29086748 241.28134974 -37.51163536 241.28817159 C-35.60966996 241.28789505 -35.60966996 241.28789505 -33.66928101 241.28761292 C-32.30123349 241.29091488 -30.93318694 241.29464115 -29.56514162 241.29875439 C-25.81093135 241.30874484 -22.05673706 241.31248642 -18.30251539 241.3151437 C-14.25116449 241.31905558 -10.19982614 241.32863333 -6.14848328 241.33735657 C3.63337561 241.35709661 13.41523549 241.36718432 23.19710931 241.37608436 C27.80805853 241.38047151 32.4190066 241.38583723 37.02995491 241.39107323 C52.3656983 241.40808346 67.70144098 241.42257631 83.03719234 241.42982197 C87.01471902 241.43173174 90.99224569 241.43365209 94.96977234 241.43560791 C96.45259292 241.43633352 96.45259292 241.43633352 97.96536947 241.43707379 C113.96924315 241.44536918 129.97304197 241.47069873 145.97688299 241.50318859 C162.42221733 241.53630145 178.86751368 241.55427457 195.31288153 241.55746621 C204.5404214 241.55962745 213.76785212 241.56831942 222.99535942 241.59392738 C230.85602927 241.61569225 238.71656344 241.62365647 246.57726001 241.6139606 C250.58321821 241.60943253 254.58889681 241.61121435 258.59481621 241.63072205 C262.27231045 241.6484746 265.94932364 241.64725961 269.62682385 241.63182475 C271.5659935 241.62836187 273.50516891 241.64438424 275.44426674 241.66142923 C291.1896418 241.5475221 308.09453995 236.84903665 320.06816101 226.14044189 C321.94686086 224.1480003 323.73780371 222.11194576 325.49003601 220.00762939 C327.06816101 218.14044189 327.06816101 218.14044189 328.77128601 216.52325439 C330.29618708 215.21327223 330.29618708 215.21327223 330.06816101 213.14044189 C330.72816101 213.14044189 331.38816101 213.14044189 332.06816101 213.14044189 C340.60047446 196.98781999 344.26631971 183.5035873 344.13066101 165.14044189 C344.09972351 159.20044189 344.09972351 159.20044189 344.06816101 153.14044189 C334.16816101 153.14044189 324.26816101 153.14044189 314.06816101 153.14044189 C313.36691101 155.38856689 312.66566101 157.63669189 311.94316101 159.95294189 C304.9382751 181.29819324 290.82869094 196.01260765 271.06816101 206.14044189 C251.80416751 215.20900708 230.67211939 214.79117194 210.80253601 207.74200439 C198.32290109 202.67337269 188.4243665 193.5880761 179.06816101 184.14044189 C178.28054382 184.98606689 177.49292664 185.83169189 176.68144226 186.70294189 C165.94998219 197.9802951 155.01753343 205.19750424 140.06816101 210.14044189 C139.06269226 210.49235596 139.06269226 210.49235596 138.03691101 210.85137939 C120.24455278 216.23590886 100.15878252 212.5655817 83.87675476 204.57403564 C76.71395139 200.63129202 70.9707329 195.74839316 65.06816101 190.14044189 C62.75572106 188.11446219 60.41326048 186.1286784 58.06816101 184.14044189 C57.56929382 184.75790283 57.07042664 185.37536377 56.55644226 186.01153564 C43.33894746 201.60200977 25.16690172 210.91739811 4.81718445 212.92218018 C-9.10197762 213.94291873 -22.45234956 211.45785978 -34.93183899 205.14044189 C-35.91539368 204.64802002 -36.89894836 204.15559814 -37.91230774 203.64825439 C-55.71019602 194.02404055 -67.10353107 178.99104933 -73.93183899 160.14044189 C-74.59183899 157.83044189 -75.25183899 155.52044189 -75.93183899 153.14044189 C-85.83183899 153.14044189 -95.73183899 153.14044189 -105.93183899 153.14044189 Z M-41.93183899 153.14044189 C-38.81975747 162.47668646 -33.0599164 169.50497489 -24.93183899 175.14044189 C-11.07362773 181.78186224 1.41039106 182.87701384 16.06816101 178.14044189 C18.19582921 177.25755901 20.07526995 176.30296168 22.06816101 175.14044189 C22.06816101 174.48044189 22.06816101 173.82044189 22.06816101 173.14044189 C23.05816101 173.14044189 24.04816101 173.14044189 25.06816101 173.14044189 C30.7461608 168.22973937 35.56205863 161.76307973 39.06816101 155.14044189 C39.06816101 154.48044189 39.06816101 153.82044189 39.06816101 153.14044189 C12.33816101 153.14044189 -14.39183899 153.14044189 -41.93183899 153.14044189 Z M78.06816101 153.14044189 C84.66115338 166.32642664 90.74316353 173.55409012 104.31816101 178.95294189 C117.29473763 183.06219116 129.26464559 181.39496665 141.45487976 175.50372314 C142.74845398 174.82889893 142.74845398 174.82889893 144.06816101 174.14044189 C144.06816101 173.48044189 144.06816101 172.82044189 144.06816101 172.14044189 C144.79003601 171.93419189 145.51191101 171.72794189 146.25566101 171.51544189 C150.04034485 169.66515202 151.59074754 167.53803752 154.06816101 164.14044189 C154.06816101 163.48044189 154.06816101 162.82044189 154.06816101 162.14044189 C154.72816101 162.14044189 155.38816101 162.14044189 156.06816101 162.14044189 C157.38816101 159.17044189 158.70816101 156.20044189 160.06816101 153.14044189 C133.00816101 153.14044189 105.94816101 153.14044189 78.06816101 153.14044189 Z M199.06816101 153.14044189 C202.18024253 162.47668646 207.9400836 169.50497489 216.06816101 175.14044189 C229.92637227 181.78186224 242.41039106 182.87701384 257.06816101 178.14044189 C259.19582921 177.25755901 261.07526995 176.30296168 263.06816101 175.14044189 C263.06816101 174.48044189 263.06816101 173.82044189 263.06816101 173.14044189 C264.05816101 173.14044189 265.04816101 173.14044189 266.06816101 173.14044189 C271.7461608 168.22973937 276.56205863 161.76307973 280.06816101 155.14044189 C280.06816101 154.48044189 280.06816101 153.82044189 280.06816101 153.14044189 C253.33816101 153.14044189 226.60816101 153.14044189 199.06816101 153.14044189 Z " transform="translate(136.9318389892578,118.85955810546875)" style="fill: #000000;"/></svg>