<?xml version="1.0" encoding="UTF-8"?>
<!-- Generator: visioncortex VTracer -->
<svg id="svg" version="1.1" xmlns="http://www.w3.org/2000/svg" style="display: block;" viewBox="0 0 512 512"><path d="M0 0 C7.17293918 3.70955553 13.53302562 8.34447515 19.55078125 13.70703125 C20.31003906 14.3721875 21.06929687 15.03734375 21.8515625 15.72265625 C31.60455028 24.81870703 40.67130423 38.23978999 43.05859375 51.53515625 C43.57463805 54.33653957 44.00914876 56.30281868 45.55078125 58.70703125 C48.67609019 60.21517452 51.70163505 60.99315588 55.07421875 61.80078125 C66.15449706 64.68912346 76.62028836 72.647766 84.55078125 80.70703125 C91.9819748 78.77340436 99.24249025 76.54123528 106.48828125 74.00390625 C107.51106171 73.64904648 108.53384216 73.29418671 109.58761597 72.92857361 C112.90990229 71.77489983 116.23035722 70.61605281 119.55078125 69.45703125 C121.86594481 68.65180236 124.18121302 67.84687428 126.49658203 67.04223633 C132.37980906 64.99666449 138.26148422 62.94667031 144.1427002 60.89532471 C148.44028488 59.39688858 152.73875305 57.90099856 157.03729248 56.40530396 C165.2279483 53.55508214 173.41780925 50.70256865 181.60546875 47.84375 C182.37964645 47.57379211 183.15382416 47.30383423 183.95146179 47.0256958 C187.53206583 45.77440388 191.10706726 44.51057821 194.67114258 43.21289062 C195.31072906 42.9807637 195.95031555 42.74863678 196.60928345 42.50947571 C198.30035088 41.8936914 199.98949727 41.27263839 201.6784668 40.65112305 C207.90628544 38.60412137 211.92755973 38.49375348 217.9375 41.2734375 C240.01395511 53.30447495 259.86670527 72.78439966 273.55078125 93.70703125 C273.93637207 94.29097656 274.32196289 94.87492187 274.71923828 95.4765625 C295.2608475 127.0010738 305.39043034 162.27088175 305.18188477 199.74389648 C305.18703994 202.14347357 305.19433312 204.54304684 305.2035675 206.94261169 C305.22187909 213.38028949 305.20927507 219.81754629 305.18947721 226.25520587 C305.17821471 230.28978398 305.17805959 234.3243137 305.18092155 238.35890388 C305.18163772 239.37077211 305.18163772 239.37077211 305.18236835 240.40308212 C305.1833949 241.77436989 305.18445027 243.14565764 305.18553411 244.51694537 C305.19405248 256.57345791 305.17758065 268.62980664 305.14770508 280.6862793 C305.11883437 292.33771631 305.11181181 303.98891784 305.12719727 315.64038086 C305.14401569 328.39412592 305.14793991 341.14775986 305.13048691 353.90150791 C305.12864288 355.26496159 305.12680815 356.62841527 305.12498283 357.99186897 C305.12407074 358.66236829 305.12315865 359.3328676 305.12221893 360.02368508 C305.11665193 364.7108109 305.12004489 369.39786448 305.12652779 374.08498955 C305.13423704 380.40628613 305.12191375 386.72724718 305.09467888 393.04848671 C305.08784451 395.35537598 305.08764326 397.66229688 305.09489441 399.96918488 C305.1796971 430.4833092 297.15841707 457.75460798 275.41796875 479.875 C274.46447366 480.82126688 273.50890442 481.76545072 272.55078125 482.70703125 C271.79023438 483.46628906 271.0296875 484.22554688 270.24609375 485.0078125 C258.35967579 496.21936057 242.62999202 503.67710636 227.17578125 508.64453125 C225.93054688 509.04542969 224.6853125 509.44632812 223.40234375 509.859375 C206.06391736 513.47459677 191.87059825 508.08264939 175.67578125 502.14453125 C173.22522581 501.26851934 170.77371286 500.39518172 168.32128906 499.52441406 C163.38367987 497.76774125 158.4511119 495.99795655 153.52246094 494.21630859 C144.67575085 491.02316843 135.79237116 487.93856333 126.90515137 484.86044312 C122.55264621 483.35063282 118.20414228 481.82939761 113.85546875 480.30859375 C112.1390072 479.70863082 110.42253586 479.10869585 108.70605469 478.50878906 C107.85700562 478.21202271 107.00795654 477.91525635 106.13317871 477.60949707 C98.23149255 474.84810895 90.3287195 472.08983353 82.42578125 469.33203125 C81.54848358 469.02584869 80.67118591 468.71966614 79.76730347 468.40420532 C64.09401086 462.93481665 48.41096128 457.49375241 32.72625732 452.05718994 C18.18653325 447.01688469 3.65558064 441.95235547 -10.86581421 436.85949707 C-20.6165148 433.44019563 -30.3722198 430.03596815 -40.13671875 426.65625 C-41.13964966 426.30908432 -42.14258057 425.96191864 -43.17590332 425.60423279 C-45.23046484 424.89309579 -47.2850303 424.1819702 -49.33959961 423.47085571 C-50.87886108 422.9380751 -50.87886108 422.9380751 -52.44921875 422.39453125 C-53.98751343 421.86211319 -53.98751343 421.86211319 -55.55688477 421.31893921 C-72.05220574 415.60699286 -88.51161814 409.79841976 -104.95870972 403.94924927 C-118.94372099 398.97845744 -132.95858348 394.10671014 -147.01171875 389.33203125 C-171.78771245 380.90373536 -171.78771245 380.90373536 -182.10983276 377.28973389 C-183.43847735 376.82582754 -184.76813985 376.36482404 -186.09890747 375.90704346 C-202.39479193 370.29550502 -202.39479193 370.29550502 -207.44921875 362.70703125 C-207.94979 359.38833618 -207.94979 359.38833618 -207.95042419 355.53369141 C-207.95872579 354.4667678 -207.95872579 354.4667678 -207.96719509 353.37829018 C-207.98078276 351.00053339 -207.96584365 348.62382976 -207.95092773 346.24609375 C-207.95471162 344.53920038 -207.96021223 342.83231009 -207.96730042 341.12542725 C-207.98126332 336.49317337 -207.97007942 331.86129058 -207.9535892 327.22905731 C-207.93973956 322.38138029 -207.94619868 317.53372482 -207.94972229 312.68603516 C-207.95242448 304.54518656 -207.93894805 296.40448539 -207.91577148 288.26367188 C-207.8891617 278.85178421 -207.88741462 269.44014306 -207.89915985 260.02823067 C-207.90993913 250.97425304 -207.90374937 241.92036459 -207.88960457 232.86639404 C-207.88384607 229.01322319 -207.88392638 225.16011761 -207.88866997 221.3069458 C-207.89344236 216.76950808 -207.88332723 212.23234029 -207.86171532 207.69495392 C-207.85615085 206.02967489 -207.85567905 204.3643699 -207.86066818 202.69908905 C-207.86662454 200.42588355 -207.85411002 198.15350234 -207.8368988 195.88037109 C-207.83446891 194.60833832 -207.83203901 193.33630554 -207.82953548 192.02572632 C-207.41823251 188.43664111 -206.60662388 186.57216862 -204.44921875 183.70703125 C-201.32960266 181.48723063 -198.15539097 180.09510561 -194.55859375 178.82421875 C-193.56529053 178.47077393 -192.5719873 178.1173291 -191.54858398 177.75317383 C-190.44329346 177.36669678 -189.33800293 176.98021973 -188.19921875 176.58203125 C-186.40303101 175.94720825 -186.40303101 175.94720825 -184.57055664 175.29956055 C-168.10921552 169.4914315 -151.60419697 163.80586261 -135.109375 158.09375 C-123.34327905 154.01904666 -111.58177347 149.93131271 -99.82421875 145.83203125 C-98.94362793 145.52519409 -98.06303711 145.21835693 -97.15576172 144.90222168 C-88.07832233 141.73840031 -79.00693073 138.55902518 -69.953125 135.328125 C-69.21505615 135.06495483 -68.4769873 134.80178467 -67.71655273 134.53063965 C-64.29479861 133.30990263 -60.874469 132.08541876 -57.45654297 130.85400391 C-55.70301514 130.22631104 -55.70301514 130.22631104 -53.9140625 129.5859375 C-52.89948975 129.22056885 -51.88491699 128.8552002 -50.83959961 128.47875977 C-48.44921875 127.70703125 -48.44921875 127.70703125 -46.44921875 127.70703125 C-46.4234375 127.0521875 -46.39765625 126.39734375 -46.37109375 125.72265625 C-45.64829352 114.09214339 -41.44968881 104.11784597 -36.44921875 93.70703125 C-35.78921875 93.70703125 -35.12921875 93.70703125 -34.44921875 93.70703125 C-34.44921875 92.71703125 -34.44921875 91.72703125 -34.44921875 90.70703125 C-33.78921875 90.70703125 -33.12921875 90.70703125 -32.44921875 90.70703125 C-32.11921875 89.38703125 -31.78921875 88.06703125 -31.44921875 86.70703125 C-30.78921875 86.70703125 -30.12921875 86.70703125 -29.44921875 86.70703125 C-29.28421875 86.02640625 -29.11921875 85.34578125 -28.94921875 84.64453125 C-26.75929942 80.35593922 -23.32920876 77.51194069 -19.44921875 74.70703125 C-18.78921875 74.70703125 -18.12921875 74.70703125 -17.44921875 74.70703125 C-17.11921875 73.71703125 -16.78921875 72.72703125 -16.44921875 71.70703125 C-15.45921875 71.70703125 -14.46921875 71.70703125 -13.44921875 71.70703125 C-13.44921875 71.04703125 -13.44921875 70.38703125 -13.44921875 69.70703125 C-12.45921875 69.70703125 -11.46921875 69.70703125 -10.44921875 69.70703125 C-10.44921875 69.04703125 -10.44921875 68.38703125 -10.44921875 67.70703125 C-7.86756075 66.55729286 -5.28403568 65.41212766 -2.69921875 64.26953125 C-1.96960938 63.94404297 -1.24 63.61855469 -0.48828125 63.28320312 C0.22070312 62.97060547 0.9296875 62.65800781 1.66015625 62.3359375 C2.30952148 62.0479126 2.95888672 61.7598877 3.62792969 61.46313477 C5.58150596 60.69494968 7.5054933 60.17060332 9.55078125 59.70703125 C9.20479505 53.13329352 5.50682034 46.62901459 0.85546875 42.03125 C-0.44921875 40.70703125 -0.44921875 40.70703125 -0.44921875 38.70703125 C-1.0215625 38.43503906 -1.59390625 38.16304687 -2.18359375 37.8828125 C-4.48186189 36.69009058 -6.56043338 35.3524443 -8.69921875 33.89453125 C-11.67147219 31.87712035 -14.66923853 29.9711177 -17.76171875 28.14453125 C-21.70722062 25.70806595 -24.36053126 22.88440622 -26.44921875 18.70703125 C-27.00314408 12.78429118 -27.01411423 7.69788493 -23.44921875 2.70703125 C-17.35469847 -3.55220579 -7.74193126 -2.90212825 0 0 Z M199.07421875 76.171875 C198.2970752 76.43654572 197.51993164 76.70121643 196.71923828 76.97390747 C194.12021222 77.86062613 191.52294124 78.7523629 188.92578125 79.64453125 C188.03240051 79.95027069 187.13901978 80.25601013 186.21856689 80.5710144 C168.71978376 86.56039439 151.28174531 92.71956956 133.86083984 98.93139648 C123.45961349 102.63724274 113.0473371 106.27906033 102.55078125 109.70703125 C102.76734375 111.53234375 102.76734375 111.53234375 102.98828125 113.39453125 C103.06949219 114.07902344 103.15070313 114.76351562 103.234375 115.46875 C103.52649314 117.73192807 103.52649314 117.73192807 104.05566406 120.03491211 C107.59788186 139.15205894 103.4683827 158.21042686 93.55078125 174.70703125 C81.92799757 191.40517037 65.14903899 204.17789569 44.9140625 208.1171875 C22.86604143 211.53409125 2.36795823 207.47925872 -15.76171875 194.26953125 C-27.710302 184.93470058 -35.01385255 174.42638337 -41.44921875 160.70703125 C-49.47543239 162.77723222 -57.29378686 165.26737073 -65.12109375 167.98828125 C-66.9056044 168.60404022 -66.9056044 168.60404022 -68.72616577 169.23223877 C-71.90033054 170.32852917 -75.07334201 171.42803192 -78.24576569 172.52934265 C-80.86142701 173.43676341 -83.47801178 174.34150522 -86.09457588 175.24631882 C-104.57934094 181.63928713 -123.04401379 188.08806584 -141.44921875 194.70703125 C-141.44921875 195.36703125 -141.44921875 196.02703125 -141.44921875 196.70703125 C-139.78765747 197.27079468 -139.78765747 197.27079468 -138.0925293 197.84594727 C-104.05373604 209.4004571 -70.06084773 221.08239476 -36.2253418 233.22094727 C-19.96941245 239.04275964 -3.62457743 244.60890912 12.72265625 250.16796875 C45.15104193 261.19713214 45.15104193 261.19713214 56.73828125 265.33203125 C57.99983032 265.77313232 57.99983032 265.77313232 59.28686523 266.22314453 C64.80203469 268.22048921 69.92795729 270.14630837 73.19152832 275.29603577 C74.87488657 279.52036169 74.97013458 282.94849583 74.93554688 287.44702148 C74.94091965 288.30472137 74.94629242 289.16242126 74.951828 290.04611206 C74.96158001 291.90068248 74.96455797 293.7552984 74.96147156 295.60989189 C74.95698064 298.54874701 74.97102993 301.48700409 74.98986816 304.42579651 C75.02659415 310.66536512 75.04035064 316.90487048 75.05078125 323.14453125 C75.06287381 330.37393639 75.08447151 337.60304914 75.13078308 344.83232307 C75.14432272 347.72113247 75.14018807 350.60956932 75.13537598 353.49839783 C75.14472006 355.27815215 75.15488975 357.0579024 75.16601562 358.83764648 C75.15679329 360.03408028 75.15679329 360.03408028 75.14738464 361.25468445 C75.21574806 367.50383093 76.37501198 372.34476747 80.73828125 377.08203125 C85.39735089 379.77393816 89.4841496 380.07173095 94.73828125 379.14453125 C98.72501792 377.10686584 101.63980899 374.28271843 103.17962646 369.92903137 C103.67867797 366.94134931 103.67558412 364.05961587 103.67675781 361.0300293 C103.67862595 360.36769287 103.68049408 359.70535645 103.68241882 359.02294922 C103.68641321 357.58848648 103.68849678 356.15401742 103.68888092 354.71954918 C103.69231017 351.66309835 103.71368982 348.60685765 103.73411179 345.55048084 C103.7720548 339.86541233 103.8033984 334.1805711 103.80126953 328.49536133 C103.8004804 324.53524075 103.82392861 320.57589453 103.86315155 316.61597633 C103.87358077 315.11181944 103.87515827 313.60757283 103.86750031 312.10339928 C103.80687743 298.87575855 103.80687743 298.87575855 106.89355469 294.35473633 C110.47296972 290.7881472 113.53896161 288.70632008 118.74790955 288.70755005 C125.19494587 289.3064858 130.81313979 290.88885699 136.8671875 293.13671875 C137.8303035 293.48337585 138.79341949 293.83003296 139.78572083 294.18719482 C141.83902676 294.9273346 143.89054423 295.67245224 145.94036865 296.42218018 C151.29535135 298.37968207 156.66441857 300.2979349 162.03125 302.22265625 C163.63060394 302.79803635 163.63060394 302.79803635 165.26226807 303.38504028 C174.07727842 306.55244625 182.91688496 309.63889596 191.7975769 312.61724854 C193.21163294 313.09217605 194.62467147 313.57014438 196.03665161 314.0512085 C197.96327503 314.70708889 199.89364307 315.35193971 201.82421875 315.99609375 C202.89075684 316.35396973 203.95729492 316.7118457 205.05615234 317.08056641 C207.528812 317.98951381 207.528812 317.98951381 209.55078125 316.70703125 C209.55078125 316.04703125 209.55078125 315.38703125 209.55078125 314.70703125 C210.87078125 314.37703125 212.19078125 314.04703125 213.55078125 313.70703125 C213.55078125 313.04703125 213.55078125 312.38703125 213.55078125 311.70703125 C214.29328125 311.48015625 215.03578125 311.25328125 215.80078125 311.01953125 C219.14957046 309.42124549 220.2750769 307.63293684 222.55078125 304.70703125 C223.86455349 303.51838017 225.19981337 302.35323135 226.55078125 301.20703125 C229.61737386 298.58906978 232.11055802 295.93161194 234.55078125 292.70703125 C235.88411458 291.37369792 237.21744792 290.04036458 238.55078125 288.70703125 C241.55715273 285.61566221 241.55715273 285.61566221 242.55078125 281.70703125 C243.21078125 281.70703125 243.87078125 281.70703125 244.55078125 281.70703125 C244.88078125 280.38703125 245.21078125 279.06703125 245.55078125 277.70703125 C246.21078125 277.70703125 246.87078125 277.70703125 247.55078125 277.70703125 C247.55078125 276.71703125 247.55078125 275.72703125 247.55078125 274.70703125 C248.21078125 274.70703125 248.87078125 274.70703125 249.55078125 274.70703125 C249.55078125 273.71703125 249.55078125 272.72703125 249.55078125 271.70703125 C250.21078125 271.70703125 250.87078125 271.70703125 251.55078125 271.70703125 C251.91429687 270.98 252.2778125 270.25296875 252.65234375 269.50390625 C253.15507812 268.4984375 253.6578125 267.49296875 254.17578125 266.45703125 C254.99949219 264.79800781 254.99949219 264.79800781 255.83984375 263.10546875 C256.8925999 261.01437776 257.966316 258.93349733 259.07421875 256.87109375 C276.1619334 224.59429942 276.66151592 188.32571746 266.22900391 153.8828125 C260.66199519 136.02349584 252.52155206 118.19796434 240.55078125 103.70703125 C239.88393311 102.8864624 239.88393311 102.8864624 239.20361328 102.04931641 C230.30417334 91.13984593 220.75060713 81.00346557 208.55078125 73.70703125 C205.22871349 73.70703125 202.1895756 75.10135571 199.07421875 76.171875 Z M-1.88671875 102.45703125 C-6.24658769 107.10382576 -9.09190663 111.81375094 -11.44921875 117.70703125 C-11.86171875 118.65578125 -12.27421875 119.60453125 -12.69921875 120.58203125 C-15.74978152 133.29270944 -14.56861343 145.27718139 -8.33984375 156.8125 C-1.46252922 167.34161171 7.68964965 173.16818541 19.55078125 176.70703125 C31.20158123 178.56158734 41.28264215 177.56147136 51.55078125 171.70703125 C52.880826 171.03382758 54.21335817 170.36545492 55.55078125 169.70703125 C55.55078125 169.04703125 55.55078125 168.38703125 55.55078125 167.70703125 C56.12828125 167.45953125 56.70578125 167.21203125 57.30078125 166.95703125 C59.88018104 165.52403137 61.61199717 163.92278449 63.55078125 161.70703125 C63.55078125 161.04703125 63.55078125 160.38703125 63.55078125 159.70703125 C64.21078125 159.70703125 64.87078125 159.70703125 65.55078125 159.70703125 C65.55078125 158.71703125 65.55078125 157.72703125 65.55078125 156.70703125 C66.21078125 156.70703125 66.87078125 156.70703125 67.55078125 156.70703125 C72.93397144 144.57002312 75.58517474 132.69044304 71.55078125 119.70703125 C66.50059254 107.47705617 59.9437277 99.32696936 47.9140625 93.41015625 C30.46200607 86.37837877 11.82767453 89.51585302 -1.88671875 102.45703125 Z M-176.44921875 218.70703125 C-176.44921875 233.88703125 -176.44921875 249.06703125 -176.44921875 264.70703125 C-172.38609375 266.04765625 -168.32296875 267.38828125 -164.13671875 268.76953125 C-149.66694024 273.57552146 -135.26819995 278.57595741 -120.87768555 283.61352539 C-119.00310235 284.26972229 -117.1285091 284.92589047 -115.25390625 285.58203125 C-113.83187645 286.07980324 -113.83187645 286.07980324 -112.38111877 286.58763123 C-100.74733551 290.65682101 -89.09775566 294.68031966 -77.44921875 298.70703125 C-62.41345802 303.90607885 -47.38174421 309.11621521 -32.36206055 314.36154175 C-29.78386759 315.2617973 -27.20544899 316.16140346 -24.62695312 317.06079102 C-17.04358776 319.70613541 -9.46054275 322.35235042 -1.88037109 325.00683594 C3.81686906 327.00183501 9.51569926 328.992235 15.21548462 330.97994995 C17.42650214 331.75196814 19.63693902 332.52565141 21.84677124 333.30105591 C24.91330146 334.37685274 27.98178283 335.44689346 31.05078125 336.515625 C31.97047195 336.83981415 32.89016266 337.1640033 33.83772278 337.49801636 C34.68146957 337.79056305 35.52521637 338.08310974 36.39453125 338.38452148 C37.12865234 338.64128159 37.86277344 338.89804169 38.61914062 339.1625824 C40.6975465 339.84267528 40.6975465 339.84267528 43.55078125 339.70703125 C43.55078125 324.85703125 43.55078125 310.00703125 43.55078125 294.70703125 C22.69563653 287.35644745 1.82485966 280.05657725 -19.07421875 272.83203125 C-35.97105677 266.99096504 -52.86119526 261.13162247 -69.7388916 255.23547363 C-80.05911742 251.63038046 -90.38203716 248.03330019 -100.7109375 244.453125 C-101.74999237 244.09296295 -102.78904724 243.7328009 -103.85958862 243.36172485 C-108.04993051 241.90945052 -112.24034612 240.45738992 -116.43103027 239.00610352 C-127.19753161 235.27715315 -137.95956523 231.53680109 -148.703125 227.7421875 C-149.57835815 227.4332959 -150.45359131 227.1244043 -151.35534668 226.80615234 C-155.44209217 225.363294 -159.5275134 223.91686146 -163.61083984 222.46435547 C-165.03479744 221.96051788 -166.45878631 221.45676869 -167.8828125 220.953125 C-169.7244397 220.29848267 -169.7244397 220.29848267 -171.60327148 219.63061523 C-174.26759758 218.60413849 -174.26759758 218.60413849 -176.44921875 218.70703125 Z M272.55078125 296.70703125 C271.08437404 298.58538515 269.65691482 300.48054052 268.23828125 302.39453125 C263.18307589 309.09068847 257.68193188 315.25167156 251.88476562 321.31005859 C250.74719452 322.50134371 249.62399901 323.70632889 248.50390625 324.9140625 C241.72986916 332.02101167 233.71085672 338.26698094 225.55078125 343.70703125 C225.10317232 346.07605189 225.10317232 346.07605189 225.1900177 348.88284302 C225.18589371 349.97943237 225.18176971 351.07602173 225.17752075 352.20584106 C225.18830658 353.41424652 225.19909241 354.62265198 225.21020508 355.86767578 C225.209767 357.13593201 225.20932892 358.40418823 225.20887756 359.71087646 C225.20801478 363.1942447 225.22568596 366.67730471 225.24659944 370.16060114 C225.26531927 373.79877324 225.26711296 377.43695196 225.27067566 381.07516479 C225.28000998 387.96711378 225.30464239 394.85892045 225.33472413 401.75080669 C225.36822511 409.59590743 225.3847433 417.44101486 225.39981043 425.28616929 C225.43119084 441.42654 225.48397813 457.56676748 225.55078125 473.70703125 C229.79656853 472.3399187 233.53132929 470.76672381 237.42578125 468.58203125 C238.39257812 468.04320312 239.359375 467.504375 240.35546875 466.94921875 C241.07992188 466.53929687 241.804375 466.129375 242.55078125 465.70703125 C242.55078125 465.04703125 242.55078125 464.38703125 242.55078125 463.70703125 C243.54078125 463.70703125 244.53078125 463.70703125 245.55078125 463.70703125 C249.13677544 460.5087121 252.16973728 456.86080493 255.21875 453.16015625 C256.55078125 451.70703125 256.55078125 451.70703125 258.55078125 450.70703125 C258.55078125 449.71703125 258.55078125 448.72703125 258.55078125 447.70703125 C259.21078125 447.70703125 259.87078125 447.70703125 260.55078125 447.70703125 C273.08359267 424.85929358 273.86932054 401.72043787 273.74609375 376.19921875 C273.74235374 373.8932406 273.73951145 371.58726084 273.73751831 369.28128052 C273.72995954 363.2743474 273.71037966 357.2675143 273.68811035 351.26062012 C273.6674828 345.10605216 273.65848079 338.95146772 273.6484375 332.796875 C273.62712483 320.76688366 273.59308512 308.73696584 273.55078125 296.70703125 C273.22078125 296.70703125 272.89078125 296.70703125 272.55078125 296.70703125 Z M-176.44921875 298.70703125 C-176.44921875 313.88703125 -176.44921875 329.06703125 -176.44921875 344.70703125 C-172.48921875 346.00640625 -168.52921875 347.30578125 -164.44921875 348.64453125 C-151.03066131 353.09092609 -137.7024922 357.77529435 -124.38671875 362.51953125 C-105.61639591 369.2065536 -86.79746771 375.74374859 -67.94921875 382.20703125 C-48.40661308 388.9089019 -28.89904673 395.69980483 -9.43701172 402.6328125 C4.5220228 407.60305716 18.51612198 412.45467685 32.55078125 417.20703125 C48.559266 422.62775372 64.50510933 428.20657058 80.42614746 433.87869263 C100.84451405 441.14858826 121.33367762 448.20698319 141.83959961 455.22509766 C144.27988531 456.06123121 146.72007224 456.89765304 149.16015625 457.734375 C150.34017715 458.1388385 151.52019806 458.543302 152.73597717 458.96002197 C159.01614602 461.12044455 165.28260346 463.31480848 171.53320312 465.55908203 C172.51061399 465.90985416 172.51061399 465.90985416 173.50777054 466.26771259 C176.64324939 467.39421227 179.77669472 468.52587193 182.90814209 469.66355896 C184.56671234 470.26237633 184.56671234 470.26237633 186.25878906 470.87329102 C187.72339569 471.4056411 187.72339569 471.4056411 189.21759033 471.94874573 C191.45890608 472.81005975 191.45890608 472.81005975 193.55078125 472.70703125 C193.55078125 457.52703125 193.55078125 442.34703125 193.55078125 426.70703125 C181.2213954 422.51393339 181.2213954 422.51393339 168.89135742 418.32275391 C160.26780433 415.38502843 151.66025178 412.4152178 143.1015625 409.29296875 C142.38508041 409.03282486 141.66859833 408.77268097 140.93040466 408.50465393 C137.59277553 407.2919929 134.2605047 406.06737593 130.93530273 404.82104492 C129.76169189 404.39283447 128.58808105 403.96462402 127.37890625 403.5234375 C125.86151855 402.95798218 125.86151855 402.95798218 124.31347656 402.38110352 C118.6501565 400.99930547 114.41226182 403.60666824 109.48828125 406.20703125 C99.41217367 411.49459877 88.49442699 412.2957604 77.30859375 410.05859375 C74.57240685 409.1306695 72.11018507 408.0463466 69.55078125 406.70703125 C68.15085937 405.97806641 68.15085937 405.97806641 66.72265625 405.234375 C56.00194475 399.03920975 49.82547631 390.19183427 45.55078125 378.70703125 C45.47644867 378.04270584 45.40211609 377.37838043 45.32553101 376.69392395 C44.70844287 374.47679961 44.70844287 374.47679961 42.29019165 373.491745 C41.28515594 373.15504288 40.28012024 372.81834076 39.24462891 372.47143555 C38.1004953 372.0791124 36.95636169 371.68678925 35.77755737 371.28257751 C34.50674208 370.8651965 33.23583474 370.44809567 31.96484375 370.03125 C30.6490878 369.58643993 29.33383961 369.14012539 28.01907349 368.69239807 C25.21073321 367.73940053 22.39925833 366.79658467 19.58483887 365.86169434 C15.151685 364.38898444 10.72613856 362.89433639 6.30175781 361.39550781 C1.1298087 359.64470711 -4.04356389 357.89827839 -9.2191925 356.15838432 C-19.239294 352.78884544 -29.22928005 349.33750492 -39.20324707 345.83370972 C-43.42166867 344.35204251 -47.64253186 342.87736417 -51.86328125 341.40234375 C-52.70604614 341.10768723 -53.54881104 340.8130307 -54.41711426 340.50944519 C-65.62763532 336.59244548 -76.85148547 332.71386743 -88.07421875 328.83203125 C-90.25480586 328.07764951 -92.43538855 327.32325501 -94.6159668 326.56884766 C-97.89765078 325.43351825 -101.1793384 324.29819938 -104.46104431 323.16293335 C-115.73849096 319.26145465 -127.01500648 315.35729556 -138.28997803 311.44866943 C-140.41100379 310.7135332 -142.53213549 309.97870256 -144.65338135 309.24420166 C-147.59732224 308.22479401 -150.54095214 307.20449613 -153.484375 306.18359375 C-154.38357666 305.8718924 -155.28277832 305.56019104 -156.20922852 305.23904419 C-161.70394516 303.3291954 -167.17744958 301.37170552 -172.61889648 299.31396484 C-174.44422276 298.60211589 -174.44422276 298.60211589 -176.44921875 298.70703125 Z M135.55078125 327.70703125 C135.55078125 342.55703125 135.55078125 357.40703125 135.55078125 372.70703125 C143.72159309 375.62543829 143.72159309 375.62543829 151.89306641 378.54199219 C157.796411 380.64831199 163.69849112 382.75785254 169.59472656 384.88400269 C171.54164398 385.58591228 173.48901187 386.28655721 175.43652344 386.98681641 C177.90423203 387.87458569 180.37105034 388.76483407 182.83691406 389.65771484 C184.50898926 390.2583374 184.50898926 390.2583374 186.21484375 390.87109375 C187.1992041 391.2263916 188.18356445 391.58168945 189.19775391 391.94775391 C191.45592537 392.80939436 191.45592537 392.80939436 193.55078125 392.70703125 C193.55078125 377.52703125 193.55078125 362.34703125 193.55078125 346.70703125 C184.97841951 343.75215732 184.97841951 343.75215732 176.40527344 340.79956055 C169.9112469 338.5629875 163.42165028 336.31528636 156.94140625 334.0390625 C155.7591748 333.62519287 154.57694336 333.21132324 153.35888672 332.78491211 C151.10137424 331.99393188 148.84514551 331.19927643 146.59033203 330.40063477 C145.57438965 330.04541748 144.55844727 329.6902002 143.51171875 329.32421875 C142.62274902 329.01081543 141.7337793 328.69741211 140.81787109 328.37451172 C138.46502273 327.56581386 138.46502273 327.56581386 135.55078125 327.70703125 Z " transform="translate(207.44921875,1.29296875)" style="fill: #000000;"/><path d="M0 0 C3.59456418 3.16663987 7.36959262 6.53740056 7.828125 11.51953125 C7.98770191 20.38934777 7.98770191 20.38934777 4.625 24.3125 C-0.55279538 29.15891648 -3.80648353 30.67478117 -10.8359375 30.59375 C-15.81102713 30.04266315 -18.50019403 27.30552299 -21.6875 23.6875 C-25.01008961 19.01126277 -24.867114 14.93295986 -24.375 9.3125 C-22.58845148 4.63344435 -20.64293888 1.61828299 -16.3125 -0.875 C-10.5895145 -2.45795344 -5.36245963 -2.68122981 0 0 Z " transform="translate(390.375,247.6875)" style="fill: #000000;"/><path d="M0 0 C3.59456418 3.16663987 7.36959262 6.53740056 7.828125 11.51953125 C7.98770191 20.38934777 7.98770191 20.38934777 4.625 24.3125 C-0.55279538 29.15891648 -3.80648353 30.67478117 -10.8359375 30.59375 C-15.81102713 30.04266315 -18.50019403 27.30552299 -21.6875 23.6875 C-25.01008961 19.01126277 -24.867114 14.93295986 -24.375 9.3125 C-22.58845148 4.63344435 -20.64293888 1.61828299 -16.3125 -0.875 C-10.5895145 -2.45795344 -5.36245963 -2.68122981 0 0 Z " transform="translate(440.375,187.6875)" style="fill: #000000;"/><path d="M0 0 C3.59456418 3.16663987 7.36959262 6.53740056 7.828125 11.51953125 C7.98770191 20.38934777 7.98770191 20.38934777 4.625 24.3125 C-0.55279538 29.15891648 -3.80648353 30.67478117 -10.8359375 30.59375 C-15.81102713 30.04266315 -18.50019403 27.30552299 -21.6875 23.6875 C-25.01008961 19.01126277 -24.867114 14.93295986 -24.375 9.3125 C-22.58845148 4.63344435 -20.64293888 1.61828299 -16.3125 -0.875 C-10.5895145 -2.45795344 -5.36245963 -2.68122981 0 0 Z " transform="translate(360.375,177.6875)" style="fill: #000000;"/><path d="M0 0 C3.59456418 3.16663987 7.36959262 6.53740056 7.828125 11.51953125 C7.98770191 20.38934777 7.98770191 20.38934777 4.625 24.3125 C-0.55279538 29.15891648 -3.80648353 30.67478117 -10.8359375 30.59375 C-15.81102713 30.04266315 -18.50019403 27.30552299 -21.6875 23.6875 C-25.01008961 19.01126277 -24.867114 14.93295986 -24.375 9.3125 C-22.58845148 4.63344435 -20.64293888 1.61828299 -16.3125 -0.875 C-10.5895145 -2.45795344 -5.36245963 -2.68122981 0 0 Z " transform="translate(420.375,117.6875)" style="fill: #000000;"/></svg>