<?xml version="1.0" encoding="UTF-8"?>
<!-- Generator: visioncortex VTracer -->
<svg id="svg" version="1.1" xmlns="http://www.w3.org/2000/svg" style="display: block;" viewBox="0 0 512 512"><path d="M0 0 C10.56 0 21.12 0 32 0 C32 0.66 32 1.32 32 2 C34.97 2.33 37.94 2.66 41 3 C41.99 3.33 42.98 3.66 44 4 C44 4.66 44 5.32 44 6 C46.97 6.99 49.94 7.98 53 9 C55.97 10.32 58.94 11.64 62 13 C62 13.66 62 14.32 62 15 C63.65 15.33 65.3 15.66 67 16 C67.99 16.33 68.98 16.66 70 17 C70 17.66 70 18.32 70 19 C72.97 19.99 75.94 20.98 79 22 C81.97 23.32 84.94 24.64 88 26 C88 26.66 88 27.32 88 28 C90.97 28.99 93.94 29.98 97 31 C99.97 32.32 102.94 33.64 106 35 C106 35.66 106 36.32 106 37 C107.65 37.33 109.3 37.66 111 38 C111.99 38.33 112.98 38.66 114 39 C114 39.66 114 40.32 114 41 C118.95 42.485 118.95 42.485 124 44 C124 44.66 124 45.32 124 46 C125.65 46.33 127.3 46.66 129 47 C129.99 47.33 130.98 47.66 132 48 C132 48.66 132 49.32 132 50 C134.97 50.99 137.94 51.98 141 53 C143.97 54.32 146.94 55.64 150 57 C150 57.66 150 58.32 150 59 C151.65 59.33 153.3 59.66 155 60 C158.96 61.98 158.96 61.98 163 64 C164.65 64.66 166.3 65.32 168 66 C168 66.66 168 67.32 168 68 C169.65 68.33 171.3 68.66 173 69 C173.99 69.33 174.98 69.66 176 70 C176 70.66 176 71.32 176 72 C178.97 72.99 181.94 73.98 185 75 C187.97 76.32 190.94 77.64 194 79 C194 79.66 194 80.32 194 81 C195.65 81.33 197.3 81.66 199 82 C201.64 83.32 204.28 84.64 207 86 C208.65 86.66 210.3 87.32 212 88 C212 88.66 212 89.32 212 90 C214.31 90.66 216.62 91.32 219 92 C219 92.66 219 93.32 219 94 C220.65 94.66 222.3 95.32 224 96 C225.98 97.65 227.96 99.3 230 101 C230 101.66 230 102.32 230 103 C231.32 103.66 232.64 104.32 234 105 C237.96 109.95 237.96 109.95 242 115 C242.66 117.31 243.32 119.62 244 122 C244.66 122 245.32 122 246 122 C246.99 125.3 247.98 128.6 249 132 C249.66 133.65 250.32 135.3 251 137 C251.33 140.3 251.66 143.6 252 147 C252 218.94 252 290.88 252 365 C251.34 369.62 250.68 374.24 250 379 C248.515 382.96 248.515 382.96 247 387 C246.67 387.99 246.34 388.98 246 390 C245.34 390 244.68 390 244 390 C243.34 392.31 242.68 394.62 242 397 C238.04 401.62 234.08 406.24 230 411 C225.71 414.3 221.42 417.6 217 421 C215.35 421.33 213.7 421.66 212 422 C212 422.66 212 423.32 212 424 C209.03 425.32 206.06 426.64 203 428 C200.03 429.485 200.03 429.485 197 431 C196.01 431 195.02 431 194 431 C194 431.66 194 432.32 194 433 C191.03 434.32 188.06 435.64 185 437 C182.03 437.99 179.06 438.98 176 440 C176 440.66 176 441.32 176 442 C174.35 442.66 172.7 443.32 171 444 C170.01 444 169.02 444 168 444 C168 444.66 168 445.32 168 446 C165.03 447.32 162.06 448.64 159 450 C156.03 451.485 156.03 451.485 153 453 C152.01 453 151.02 453 150 453 C150 453.66 150 454.32 150 455 C147.03 456.32 144.06 457.64 141 459 C138.03 459.99 135.06 460.98 132 462 C132 462.66 132 463.32 132 464 C130.35 464.66 128.7 465.32 127 466 C126.01 466 125.02 466 124 466 C124 466.66 124 467.32 124 468 C121.03 469.32 118.06 470.64 115 472 C112.03 473.485 112.03 473.485 109 475 C108.01 475 107.02 475 106 475 C106 475.66 106 476.32 106 477 C103.03 478.32 100.06 479.64 97 481 C94.03 481.99 91.06 482.98 88 484 C88 484.66 88 485.32 88 486 C85.03 487.32 82.06 488.64 79 490 C76.03 490.99 73.06 491.98 70 493 C70 493.66 70 494.32 70 495 C68.35 495.66 66.7 496.32 65 497 C64.01 497 63.02 497 62 497 C62 497.66 62 498.32 62 499 C59.03 500.32 56.06 501.64 53 503 C50.03 503.99 47.06 504.98 44 506 C44 506.66 44 507.32 44 508 C41.36 508.66 38.72 509.32 36 510 C34.68 510 33.36 510 32 510 C32 510.66 32 511.32 32 512 C21.44 512 10.88 512 0 512 C0 511.34 0 510.68 0 510 C-2.64 509.67 -5.28 509.34 -8 509 C-9.32 508.67 -10.64 508.34 -12 508 C-12 507.34 -12 506.68 -12 506 C-16.455 504.515 -16.455 504.515 -21 503 C-23.97 501.68 -26.94 500.36 -30 499 C-30 498.34 -30 497.68 -30 497 C-31.65 496.67 -33.3 496.34 -35 496 C-35.99 495.67 -36.98 495.34 -38 495 C-38 494.34 -38 493.68 -38 493 C-42.95 491.515 -42.95 491.515 -48 490 C-48 489.34 -48 488.68 -48 488 C-49.65 487.67 -51.3 487.34 -53 487 C-53.99 486.67 -54.98 486.34 -56 486 C-56 485.34 -56 484.68 -56 484 C-60.455 482.515 -60.455 482.515 -65 481 C-67.97 479.68 -70.94 478.36 -74 477 C-74 476.34 -74 475.68 -74 475 C-75.65 474.67 -77.3 474.34 -79 474 C-82.96 472.02 -82.96 472.02 -87 470 C-88.65 469.34 -90.3 468.68 -92 468 C-92 467.34 -92 466.68 -92 466 C-93.65 465.67 -95.3 465.34 -97 465 C-97.99 464.67 -98.98 464.34 -100 464 C-100 463.34 -100 462.68 -100 462 C-104.455 460.515 -104.455 460.515 -109 459 C-111.97 457.68 -114.94 456.36 -118 455 C-118 454.34 -118 453.68 -118 453 C-119.65 452.67 -121.3 452.34 -123 452 C-125.64 450.68 -128.28 449.36 -131 448 C-132.65 447.34 -134.3 446.68 -136 446 C-136 445.34 -136 444.68 -136 444 C-137.65 443.67 -139.3 443.34 -141 443 C-141.99 442.67 -142.98 442.34 -144 442 C-144 441.34 -144 440.68 -144 440 C-148.455 438.515 -148.455 438.515 -153 437 C-155.97 435.68 -158.94 434.36 -162 433 C-162 432.34 -162 431.68 -162 431 C-166.455 429.515 -166.455 429.515 -171 428 C-173.97 426.68 -176.94 425.36 -180 424 C-180 423.34 -180 422.68 -180 422 C-182.31 421.34 -184.62 420.68 -187 420 C-187 419.34 -187 418.68 -187 418 C-188.65 417.34 -190.3 416.68 -192 416 C-193.98 414.35 -195.96 412.7 -198 411 C-198 410.34 -198 409.68 -198 409 C-199.32 408.34 -200.64 407.68 -202 407 C-204.97 403.04 -207.94 399.08 -211 395 C-211.33 393.35 -211.66 391.7 -212 390 C-212.66 390 -213.32 390 -214 390 C-214.66 386.7 -215.32 383.4 -216 380 C-216.66 380 -217.32 380 -218 380 C-218.66 375.05 -219.32 370.1 -220 365 C-220 293.06 -220 221.12 -220 147 C-219.34 142.38 -218.68 137.76 -218 133 C-217.01 130.36 -216.02 127.72 -215 125 C-214.67 124.01 -214.34 123.02 -214 122 C-213.34 122 -212.68 122 -212 122 C-211.34 119.69 -210.68 117.38 -210 115 C-206.7 111.04 -203.4 107.08 -200 103 C-199.34 103 -198.68 103 -198 103 C-197.34 101.68 -196.68 100.36 -196 99 C-192.37 96.36 -188.74 93.72 -185 91 C-182.525 90.505 -182.525 90.505 -180 90 C-180 89.34 -180 88.68 -180 88 C-177.03 86.68 -174.06 85.36 -171 84 C-168.03 83.01 -165.06 82.02 -162 81 C-162 80.34 -162 79.68 -162 79 C-159.03 77.68 -156.06 76.36 -153 75 C-150.03 74.01 -147.06 73.02 -144 72 C-144 71.34 -144 70.68 -144 70 C-142.35 69.34 -140.7 68.68 -139 68 C-138.01 68 -137.02 68 -136 68 C-136 67.34 -136 66.68 -136 66 C-133.03 64.68 -130.06 63.36 -127 62 C-124.03 61.01 -121.06 60.02 -118 59 C-118 58.34 -118 57.68 -118 57 C-115.03 55.68 -112.06 54.36 -109 53 C-106.03 52.01 -103.06 51.02 -100 50 C-100 49.34 -100 48.68 -100 48 C-97.03 46.68 -94.06 45.36 -91 44 C-88.03 43.01 -85.06 42.02 -82 41 C-82 40.34 -82 39.68 -82 39 C-80.35 38.34 -78.7 37.68 -77 37 C-76.01 37 -75.02 37 -74 37 C-74 36.34 -74 35.68 -74 35 C-71.03 33.68 -68.06 32.36 -65 31 C-62.03 30.01 -59.06 29.02 -56 28 C-56 27.34 -56 26.68 -56 26 C-53.03 24.68 -50.06 23.36 -47 22 C-44.03 21.01 -41.06 20.02 -38 19 C-38 18.34 -38 17.68 -38 17 C-35.525 16.01 -35.525 16.01 -33 15 C-32.01 15 -31.02 15 -30 15 C-30 14.34 -30 13.68 -30 13 C-27.03 11.68 -24.06 10.36 -21 9 C-18.03 8.01 -15.06 7.02 -12 6 C-12 5.34 -12 4.68 -12 4 C-9.69 3.34 -7.38 2.68 -5 2 C-3.35 2 -1.7 2 0 2 C0 1.34 0 0.68 0 0 Z M10 29 C10 29.66 10 30.32 10 31 C5.05 31.495 5.05 31.495 0 32 C-2.475 32.99 -2.475 32.99 -5 34 C-5 34.66 -5 35.32 -5 36 C-6.65 36.33 -8.3 36.66 -10 37 C-10.99 37.33 -11.98 37.66 -13 38 C-13 38.66 -13 39.32 -13 40 C-15.97 40.99 -18.94 41.98 -22 43 C-24.97 44.32 -27.94 45.64 -31 47 C-31 47.66 -31 48.32 -31 49 C-33.97 49.99 -36.94 50.98 -40 52 C-42.97 53.32 -45.94 54.64 -49 56 C-49 56.66 -49 57.32 -49 58 C-50.65 58.33 -52.3 58.66 -54 59 C-54.99 59.33 -55.98 59.66 -57 60 C-57 60.66 -57 61.32 -57 62 C-59.97 62.99 -62.94 63.98 -66 65 C-68.97 66.32 -71.94 67.64 -75 69 C-75 69.66 -75 70.32 -75 71 C-77.97 71.99 -80.94 72.98 -84 74 C-86.97 75.32 -89.94 76.64 -93 78 C-93 78.66 -93 79.32 -93 80 C-94.65 80.33 -96.3 80.66 -98 81 C-99.485 81.495 -99.485 81.495 -101 82 C-101 82.66 -101 83.32 -101 84 C-104.3 84.99 -107.6 85.98 -111 87 C-111 87.66 -111 88.32 -111 89 C-112.65 89.33 -114.3 89.66 -116 90 C-117.485 90.495 -117.485 90.495 -119 91 C-119 91.66 -119 92.32 -119 93 C-121.97 93.99 -124.94 94.98 -128 96 C-130.97 97.32 -133.94 98.64 -137 100 C-137 100.66 -137 101.32 -137 102 C-139.475 102.495 -139.475 102.495 -142 103 C-144.64 104.32 -147.28 105.64 -150 107 C-152.475 107.99 -152.475 107.99 -155 109 C-155 109.66 -155 110.32 -155 111 C-157.475 111.495 -157.475 111.495 -160 112 C-161.485 112.495 -161.485 112.495 -163 113 C-163 113.66 -163 114.32 -163 115 C-166.465 115.99 -166.465 115.99 -170 117 C-170.33 117.66 -170.66 118.32 -171 119 C-169.68 119.66 -168.36 120.32 -167 121 C-158.585 124.96 -158.585 124.96 -150 129 C-147.03 130.32 -144.06 131.64 -141 133 C-140.01 133.99 -140.01 133.99 -139 135 C-131.08 138.465 -131.08 138.465 -123 142 C-122.34 142.66 -121.68 143.32 -121 144 C-119.02 144.99 -117.04 145.98 -115 147 C-113.02 148.32 -111.04 149.64 -109 151 C-104.545 154.465 -104.545 154.465 -100 158 C-98.68 159.65 -97.36 161.3 -96 163 C-95.34 163 -94.68 163 -94 163 C-93.01 165.475 -93.01 165.475 -92 168 C-89.69 171.96 -87.38 175.92 -85 180 C-84.34 182.64 -83.68 185.28 -83 188 C-82.34 188 -81.68 188 -81 188 C-80.505 194.93 -80.505 194.93 -80 202 C-80 220.48 -80 238.96 -80 258 C-80.99 260.31 -81.98 262.62 -83 265 C-84.32 265.99 -85.64 266.98 -87 268 C-87 268.66 -87 269.32 -87 270 C-91.95 270 -96.9 270 -102 270 C-102.33 269.01 -102.66 268.02 -103 267 C-103.99 266.01 -104.98 265.02 -106 264 C-106.66 264 -107.32 264 -108 264 C-108.33 243.87 -108.66 223.74 -109 203 C-109.495 199.535 -109.495 199.535 -110 196 C-110.66 196 -111.32 196 -112 196 C-112.99 191.545 -112.99 191.545 -114 187 C-114.33 186.34 -114.66 185.68 -115 185 C-115.66 185 -116.32 185 -117 185 C-117.99 182.525 -117.99 182.525 -119 180 C-121.31 178.02 -123.62 176.04 -126 174 C-129.96 172.02 -133.92 170.04 -138 168 C-138.66 168 -139.32 168 -140 168 C-140 167.34 -140 166.68 -140 166 C-142.97 164.68 -145.94 163.36 -149 162 C-151.31 161.01 -153.62 160.02 -156 159 C-156.99 159 -157.98 159 -159 159 C-159 158.34 -159 157.68 -159 157 C-164.28 154.36 -169.56 151.72 -175 149 C-177.97 148.01 -180.94 147.02 -184 146 C-184 145.34 -184 144.68 -184 144 C-185.65 143.67 -187.3 143.34 -189 143 C-189.33 144.65 -189.66 146.3 -190 148 C-190 219.28 -190 290.56 -190 364 C-189.67 366.31 -189.34 368.62 -189 371 C-188.34 371 -187.68 371 -187 371 C-186.67 373.31 -186.34 375.62 -186 378 C-184.02 380.97 -182.04 383.94 -180 387 C-176.04 390.465 -176.04 390.465 -172 394 C-167.545 395.485 -167.545 395.485 -163 397 C-163 397.66 -163 398.32 -163 399 C-161.35 399.66 -159.7 400.32 -158 401 C-157.01 401 -156.02 401 -155 401 C-155 401.66 -155 402.32 -155 403 C-152.03 404.32 -149.06 405.64 -146 407 C-144.02 407.99 -142.04 408.98 -140 410 C-139.01 410 -138.02 410 -137 410 C-137 410.66 -137 411.32 -137 412 C-134.03 413.32 -131.06 414.64 -128 416 C-123.545 417.485 -123.545 417.485 -119 419 C-119 419.66 -119 420.32 -119 421 C-117.35 421.66 -115.7 422.32 -114 423 C-113.01 423 -112.02 423 -111 423 C-111 423.66 -111 424.32 -111 425 C-108.03 426.32 -105.06 427.64 -102 429 C-99.03 430.485 -99.03 430.485 -96 432 C-95.01 432 -94.02 432 -93 432 C-93 432.66 -93 433.32 -93 434 C-90.03 435.32 -87.06 436.64 -84 438 C-79.545 439.485 -79.545 439.485 -75 441 C-75 441.66 -75 442.32 -75 443 C-72.03 444.32 -69.06 445.64 -66 447 C-61.545 448.485 -61.545 448.485 -57 450 C-57 450.66 -57 451.32 -57 452 C-55.35 452.66 -53.7 453.32 -52 454 C-51.01 454 -50.02 454 -49 454 C-49 454.66 -49 455.32 -49 456 C-46.03 457.32 -43.06 458.64 -40 460 C-35.545 461.485 -35.545 461.485 -31 463 C-31 463.66 -31 464.32 -31 465 C-28.03 466.32 -25.06 467.64 -22 469 C-17.545 470.485 -17.545 470.485 -13 472 C-13 472.66 -13 473.32 -13 474 C-11.35 474.66 -9.7 475.32 -8 476 C-7.01 476 -6.02 476 -5 476 C-5 476.66 -5 477.32 -5 478 C-0.545 479.485 -0.545 479.485 4 481 C5.98 481 7.96 481 10 481 C10 481.66 10 482.32 10 483 C13.96 483 17.92 483 22 483 C22 482.34 22 481.68 22 481 C25.3 480.67 28.6 480.34 32 480 C33.65 479.34 35.3 478.68 37 478 C37 477.34 37 476.68 37 476 C38.65 475.67 40.3 475.34 42 475 C42.99 474.67 43.98 474.34 45 474 C45 473.34 45 472.68 45 472 C47.97 471.01 50.94 470.02 54 469 C58.455 467.02 58.455 467.02 63 465 C63 464.34 63 463.68 63 463 C64.65 462.67 66.3 462.34 68 462 C70.64 460.68 73.28 459.36 76 458 C77.65 457.34 79.3 456.68 81 456 C81 455.34 81 454.68 81 454 C82.65 453.67 84.3 453.34 86 453 C86.99 452.67 87.98 452.34 89 452 C89 451.34 89 450.68 89 450 C93.455 448.515 93.455 448.515 98 447 C100.97 445.68 103.94 444.36 107 443 C107 442.34 107 441.68 107 441 C111.455 439.515 111.455 439.515 116 438 C118.97 436.68 121.94 435.36 125 434 C125 433.34 125 432.68 125 432 C126.65 431.67 128.3 431.34 130 431 C132.64 429.68 135.28 428.36 138 427 C139.65 426.34 141.3 425.68 143 425 C143 424.34 143 423.68 143 423 C144.65 422.67 146.3 422.34 148 422 C148.99 421.67 149.98 421.34 151 421 C151 420.34 151 419.68 151 419 C155.455 417.515 155.455 417.515 160 416 C162.97 414.68 165.94 413.36 169 412 C169 411.34 169 410.68 169 410 C170.65 409.67 172.3 409.34 174 409 C176.64 407.68 179.28 406.36 182 405 C183.65 404.34 185.3 403.68 187 403 C187 402.34 187 401.68 187 401 C188.65 400.67 190.3 400.34 192 400 C192.99 399.67 193.98 399.34 195 399 C195 398.34 195 397.68 195 397 C199.455 395.515 199.455 395.515 204 394 C205.65 392.68 207.3 391.36 209 390 C210.65 388.02 212.3 386.04 214 384 C214 383.34 214 382.68 214 382 C214.66 382 215.32 382 216 382 C217.485 378.535 217.485 378.535 219 375 C219 373.68 219 372.36 219 371 C219.66 371 220.32 371 221 371 C221.33 368.69 221.66 366.38 222 364 C222 292.72 222 221.44 222 148 C221.67 146.35 221.34 144.7 221 143 C219.68 143.33 218.36 143.66 217 144 C217 144.66 217 145.32 217 146 C215.02 146.33 213.04 146.66 211 147 C206.05 149.64 201.1 152.28 196 155 C194.35 155.66 192.7 156.32 191 157 C191 157.66 191 158.32 191 159 C189.02 159.33 187.04 159.66 185 160 C179.06 162.97 179.06 162.97 173 166 C173 166.66 173 167.32 173 168 C171.02 168.33 169.04 168.66 167 169 C162.05 171.64 157.1 174.28 152 177 C150.35 177.66 148.7 178.32 147 179 C145.515 179.99 145.515 179.99 144 181 C139.05 183.31 134.1 185.62 129 188 C129 188.66 129 189.32 129 190 C127.02 190.33 125.04 190.66 123 191 C118.05 193.64 113.1 196.28 108 199 C106.02 199.99 104.04 200.98 102 202 C100.35 203.65 98.7 205.3 97 207 C95.35 208.98 93.7 210.96 92 213 C90.02 216.96 90.02 216.96 88 221 C87.67 222.65 87.34 224.3 87 226 C86.67 264.61 86.34 303.22 86 343 C85.67 343 85.34 343 85 343 C84.34 347.62 83.68 352.24 83 357 C82.34 357 81.68 357 81 357 C79.02 360.3 77.04 363.6 75 367 C73.68 367.99 72.36 368.98 71 370 C71 370.66 71 371.32 71 372 C69.35 372.66 67.7 373.32 66 374 C62.04 375.98 62.04 375.98 58 378 C58 378.66 58 379.32 58 380 C48.76 380 39.52 380 30 380 C30 379.34 30 378.68 30 378 C27.03 376.68 24.06 375.36 21 374 C18.525 372.515 18.525 372.515 16 371 C14.02 368.69 12.04 366.38 10 364 C9.67 363.34 9.34 362.68 9 362 C8.34 362 7.68 362 7 362 C6.01 358.7 5.02 355.4 4 352 C3.34 350.02 2.68 348.04 2 346 C1.67 315.97 1.34 285.94 1 255 C0.67 253.35 0.34 251.7 0 250 C-0.66 250 -1.32 250 -2 250 C-2.99 245.545 -2.99 245.545 -4 241 C-5.65 239.02 -7.3 237.04 -9 235 C-11.64 232.69 -14.28 230.38 -17 228 C-21.95 225.69 -26.9 223.38 -32 221 C-32.66 221 -33.32 221 -34 221 C-34 220.34 -34 219.68 -34 219 C-35.98 218.67 -37.96 218.34 -40 218 C-40 211.4 -40 204.8 -40 198 C-40.33 197.67 -40.66 197.34 -41 197 C-41.99 190.07 -41.99 190.07 -43 183 C-40.36 183.99 -37.72 184.98 -35 186 C-34.34 186.66 -33.68 187.32 -33 188 C-31.02 188.33 -29.04 188.66 -27 189 C-27 189.66 -27 190.32 -27 191 C-21.39 193.64 -15.78 196.28 -10 199 C-5.545 201.475 -5.545 201.475 -1 204 C3.29 207.63 7.58 211.26 12 215 C14.97 218.96 17.94 222.92 21 227 C21.99 229.475 21.99 229.475 23 232 C23.66 232 24.32 232 25 232 C25.99 236.29 26.98 240.58 28 245 C28.33 245.33 28.66 245.66 29 246 C29.33 248.31 29.66 250.62 30 253 C30.33 282.7 30.66 312.4 31 343 C32.65 345.31 34.3 347.62 36 350 C36.66 350.33 37.32 350.66 38 351 C41.63 351 45.26 351 49 351 C51.475 349.02 51.475 349.02 54 347 C54.99 344.36 55.98 341.72 57 339 C57.33 300.72 57.66 262.44 58 223 C58.66 218.38 59.32 213.76 60 209 C60.66 209 61.32 209 62 209 C62.99 205.04 62.99 205.04 64 201 C64.66 201 65.32 201 66 201 C66.99 199.02 67.98 197.04 69 195 C69 194.34 69 193.68 69 193 C69.66 193 70.32 193 71 193 C72.98 190.69 74.96 188.38 77 186 C77 185.34 77 184.68 77 184 C78.32 183.34 79.64 182.68 81 182 C84.96 179.03 84.96 179.03 89 176 C97.415 171.545 97.415 171.545 106 167 C111.28 164.36 116.56 161.72 122 159 C127.28 156.36 132.56 153.72 138 151 C146.415 147.04 146.415 147.04 155 143 C156.485 142.01 156.485 142.01 158 141 C163.28 138.36 168.56 135.72 174 133 C182.415 129.04 182.415 129.04 191 125 C191 124.34 191 123.68 191 123 C192.98 122.67 194.96 122.34 197 122 C198.98 121.01 200.96 120.02 203 119 C202.01 118.01 201.02 117.02 200 116 C198.35 115.67 196.7 115.34 195 115 C195 114.34 195 113.68 195 113 C193.35 112.34 191.7 111.68 190 111 C189.01 111 188.02 111 187 111 C187 110.34 187 109.68 187 109 C184.03 107.68 181.06 106.36 178 105 C176.02 104.01 174.04 103.02 172 102 C171.01 102 170.02 102 169 102 C169 101.34 169 100.68 169 100 C166.03 98.68 163.06 97.36 160 96 C157.03 95.01 154.06 94.02 151 93 C151 92.34 151 91.68 151 91 C149.35 90.34 147.7 89.68 146 89 C145.01 89 144.02 89 143 89 C143 88.34 143 87.68 143 87 C138.05 85.515 138.05 85.515 133 84 C133 83.34 133 82.68 133 82 C131.35 81.34 129.7 80.68 128 80 C127.01 80 126.02 80 125 80 C125 79.34 125 78.68 125 78 C122.03 76.68 119.06 75.36 116 74 C114.02 73.01 112.04 72.02 110 71 C109.01 71 108.02 71 107 71 C107 70.34 107 69.68 107 69 C104.03 67.68 101.06 66.36 98 65 C95.03 64.01 92.06 63.02 89 62 C89 61.34 89 60.68 89 60 C87.35 59.34 85.7 58.68 84 58 C83.01 58 82.02 58 81 58 C81 57.34 81 56.68 81 56 C78.03 54.68 75.06 53.36 72 52 C70.02 51.01 68.04 50.02 66 49 C65.01 49 64.02 49 63 49 C63 48.34 63 47.68 63 47 C58.545 45.02 58.545 45.02 54 43 C51.03 42.01 48.06 41.02 45 40 C45 39.34 45 38.68 45 38 C43.35 37.34 41.7 36.68 40 36 C39.01 36 38.02 36 37 36 C37 35.34 37 34.68 37 34 C34.03 33.01 31.06 32.02 28 31 C26.02 31 24.04 31 22 31 C22 30.34 22 29.68 22 29 C18.04 29 14.08 29 10 29 Z M-191 93 C-189 94 -189 94 -189 94 Z M221 93 C223 94 223 94 223 94 Z M95 210 C97 211 97 211 97 211 Z M-100 297 C-96.37 297 -92.74 297 -89 297 C-87.02 298.32 -85.04 299.64 -83 301 C-83 301.66 -83 302.32 -83 303 C-82.34 303 -81.68 303 -81 303 C-80.34 304.98 -79.68 306.96 -79 309 C-79 319.56 -79 330.12 -79 341 C-79.99 343.475 -79.99 343.475 -81 346 C-82.98 348.475 -82.98 348.475 -85 351 C-86.65 351.99 -88.3 352.98 -90 354 C-92.97 354 -95.94 354 -99 354 C-100.98 352.68 -102.96 351.36 -105 350 C-106.32 348.02 -107.64 346.04 -109 344 C-109 331.46 -109 318.92 -109 306 C-108.67 305.01 -108.34 304.02 -108 303 C-106.02 301.35 -104.04 299.7 -102 298 C-101.34 297.67 -100.68 297.34 -100 297 Z " transform="translate(240,0)" style="fill: #000000;"/></svg>