<?xml version="1.0" encoding="UTF-8"?>
<!-- Generator: visioncortex VTracer -->
<svg id="svg" version="1.1" xmlns="http://www.w3.org/2000/svg" style="display: block;" viewBox="0 0 512 512"><path d="M0 0 C5.94 0 11.88 0 18 0 C23.445 1.98 23.445 1.98 29 4 C31.97 5.98 34.94 7.96 38 10 C39.65 11.32 41.3 12.64 43 14 C45.31 17.3 47.62 20.6 50 24 C51.65 28.29 53.3 32.58 55 37 C55 42.94 55 48.88 55 55 C54.01 58.3 53.02 61.6 52 65 C55.96 65.495 55.96 65.495 60 66 C67.92 68.64 75.84 71.28 84 74 C89.61 76.64 95.22 79.28 101 82 C103.31 83.32 105.62 84.64 108 86 C109.32 85.34 110.64 84.68 112 84 C113.65 82.68 115.3 81.36 117 80 C117.66 80 118.32 80 119 80 C119 79.34 119 78.68 119 78 C120.32 77.67 121.64 77.34 123 77 C123 76.34 123 75.68 123 75 C123.99 75 124.98 75 126 75 C126 74.34 126 73.68 126 73 C134.415 69.04 134.415 69.04 143 65 C147.62 63.68 152.24 62.36 157 61 C158.98 60.67 160.96 60.34 163 60 C170.92 60 178.84 60 187 60 C192.61 61.32 198.22 62.64 204 64 C207.96 65.65 211.92 67.3 216 69 C220.62 71.97 225.24 74.94 230 78 C233.3 80.97 236.6 83.94 240 87 C242.97 90.3 245.94 93.6 249 97 C251.64 101.29 254.28 105.58 257 110 C258.98 114.95 260.96 119.9 263 125 C263.66 127.64 264.32 130.28 265 133 C265 144.88 265 156.76 265 169 C263.35 174.61 261.7 180.22 260 186 C256.04 193.425 256.04 193.425 252 201 C249.03 204.63 246.06 208.26 243 212 C239.7 215.3 236.4 218.6 233 222 C228.05 225.465 228.05 225.465 223 229 C214.585 233.455 214.585 233.455 206 238 C206 249.88 206 261.76 206 274 C204.515 284.395 204.515 284.395 203 295 C201.02 302.26 199.04 309.52 197 317 C195.02 322.28 193.04 327.56 191 333 C188.36 338.61 185.72 344.22 183 350 C180.69 353.96 178.38 357.92 176 362 C178.64 362.33 181.28 362.66 184 363 C191.92 366.96 191.92 366.96 200 371 C203.63 373.64 207.26 376.28 211 379 C213.64 381.64 216.28 384.28 219 387 C221.97 391.62 224.94 396.24 228 401 C229.65 404.63 231.3 408.26 233 412 C234.485 418.435 234.485 418.435 236 425 C236 430.28 236 435.56 236 441 C235.01 442.65 234.02 444.3 233 446 C231.02 447.65 229.04 449.3 227 451 C226.34 451.33 225.68 451.66 225 452 C82.44 452 -60.12 452 -207 452 C-209.97 450.02 -209.97 450.02 -213 448 C-214.32 446.35 -215.64 444.7 -217 443 C-217.33 442.34 -217.66 441.68 -218 441 C-218 435.72 -218 430.44 -218 425 C-216.68 419.72 -215.36 414.44 -214 409 C-212.02 404.71 -210.04 400.42 -208 396 C-207.34 396 -206.68 396 -206 396 C-206 395.01 -206 394.02 -206 393 C-205.34 393 -204.68 393 -204 393 C-203.67 391.68 -203.34 390.36 -203 389 C-202.34 389 -201.68 389 -201 389 C-200.34 387.35 -199.68 385.7 -199 384 C-196.36 381.69 -193.72 379.38 -191 377 C-190.34 377 -189.68 377 -189 377 C-189 376.34 -189 375.68 -189 375 C-187.68 374.67 -186.36 374.34 -185 374 C-185 373.34 -185 372.68 -185 372 C-178.73 369.03 -172.46 366.06 -166 363 C-163.36 362.67 -160.72 362.34 -158 362 C-159.98 358.37 -161.96 354.74 -164 351 C-166.64 345.72 -169.28 340.44 -172 335 C-173.98 330.05 -175.96 325.1 -178 320 C-179.98 313.07 -181.96 306.14 -184 299 C-184.99 293.39 -185.98 287.78 -187 282 C-187.33 279.03 -187.66 276.06 -188 273 C-188 261.45 -188 249.9 -188 238 C-186.515 227.605 -186.515 227.605 -185 217 C-184.34 214.36 -183.68 211.72 -183 209 C-186.63 206.36 -190.26 203.72 -194 201 C-208.52 191.43 -223.04 181.86 -238 172 C-241.96 168.535 -241.96 168.535 -246 165 C-246.33 164.34 -246.66 163.68 -247 163 C-247 158.38 -247 153.76 -247 149 C-246.67 148.01 -246.34 147.02 -246 146 C-245.34 146 -244.68 146 -244 146 C-244 145.01 -244 144.02 -244 143 C-243.34 143 -242.68 143 -242 143 C-242 142.01 -242 141.02 -242 140 C-241.34 140 -240.68 140 -240 140 C-240 139.01 -240 138.02 -240 137 C-239.34 137 -238.68 137 -238 137 C-238 136.01 -238 135.02 -238 134 C-237.34 134 -236.68 134 -236 134 C-236 133.01 -236 132.02 -236 131 C-235.34 131 -234.68 131 -234 131 C-234 130.01 -234 129.02 -234 128 C-233.34 128 -232.68 128 -232 128 C-232 127.01 -232 126.02 -232 125 C-231.34 125 -230.68 125 -230 125 C-230 124.01 -230 123.02 -230 122 C-229.34 122 -228.68 122 -228 122 C-228 121.01 -228 120.02 -228 119 C-227.34 119 -226.68 119 -226 119 C-226 118.01 -226 117.02 -226 116 C-225.34 116 -224.68 116 -224 116 C-224 115.01 -224 114.02 -224 113 C-223.34 113 -222.68 113 -222 113 C-222 112.01 -222 111.02 -222 110 C-221.34 110 -220.68 110 -220 110 C-220 109.01 -220 108.02 -220 107 C-219.34 107 -218.68 107 -218 107 C-218 106.01 -218 105.02 -218 104 C-217.34 104 -216.68 104 -216 104 C-216 103.01 -216 102.02 -216 101 C-215.34 101 -214.68 101 -214 101 C-214 100.01 -214 99.02 -214 98 C-213.34 98 -212.68 98 -212 98 C-211.505 96.02 -211.505 96.02 -211 94 C-208.69 92.68 -206.38 91.36 -204 90 C-200.7 90 -197.4 90 -194 90 C-191.03 91.65 -188.06 93.3 -185 95 C-170.81 104.57 -156.62 114.14 -142 124 C-140.515 124.495 -140.515 124.495 -139 125 C-136.69 123.02 -134.38 121.04 -132 119 C-130.68 117.35 -129.36 115.7 -128 114 C-125.36 111.69 -122.72 109.38 -120 107 C-118.02 105.35 -116.04 103.7 -114 102 C-113.34 102 -112.68 102 -112 102 C-112 101.34 -112 100.68 -112 100 C-110.68 99.67 -109.36 99.34 -108 99 C-108 98.34 -108 97.68 -108 97 C-106.68 96.67 -105.36 96.34 -104 96 C-104 95.34 -104 94.68 -104 94 C-101.69 92.68 -99.38 91.36 -97 90 C-95.68 89.67 -94.36 89.34 -93 89 C-93 88.34 -93 87.68 -93 87 C-87.72 84.36 -82.44 81.72 -77 79 C-70.73 76.36 -64.46 73.72 -58 71 C-51.4 69.02 -44.8 67.04 -38 65 C-36.68 65 -35.36 65 -34 65 C-34.99 61.37 -35.98 57.74 -37 54 C-37 48.39 -37 42.78 -37 37 C-35.35 32.38 -33.7 27.76 -32 23 C-30.35 20.69 -28.7 18.38 -27 16 C-26.34 16 -25.68 16 -25 16 C-24.34 14.68 -23.68 13.36 -23 12 C-22.34 12 -21.68 12 -21 12 C-20.67 11.01 -20.34 10.02 -20 9 C-17.03 7.35 -14.06 5.7 -11 4 C-7.37 2.68 -3.74 1.36 0 0 Z M8 32 C6.02 32.66 4.04 33.32 2 34 C0.35 35.32 -1.3 36.64 -3 38 C-3.66 40.97 -4.32 43.94 -5 47 C-4.34 49.31 -3.68 51.62 -3 54 C-1.02 55.65 0.96 57.3 3 59 C5.31 59.33 7.62 59.66 10 60 C12.31 59.34 14.62 58.68 17 58 C18.65 56.02 20.3 54.04 22 52 C22.33 49.69 22.66 47.38 23 45 C22.34 42.69 21.68 40.38 21 38 C19.02 36.35 17.04 34.7 15 33 C12.69 32.67 10.38 32.34 8 32 Z M25 93 C25 105.21 25 117.42 25 130 C43.81 148.81 62.62 167.62 82 187 C82.66 188.32 83.32 189.64 84 191 C84.33 207.17 84.66 223.34 85 240 C114.04 240 143.08 240 173 240 C172.01 232.08 172.01 232.08 171 224 C168.69 215.75 166.38 207.5 164 199 C161.36 193.06 158.72 187.12 156 181 C153.03 176.05 150.06 171.1 147 166 C144.36 162.37 141.72 158.74 139 155 C135.04 150.38 131.08 145.76 127 141 C122.71 137.04 118.42 133.08 114 129 C108.39 125.04 102.78 121.08 97 117 C90.07 113.37 83.14 109.74 76 106 C66.595 102.535 66.595 102.535 57 99 C49.74 97.35 42.48 95.7 35 94 C31.7 93.67 28.4 93.34 25 93 Z M172 92 C167.71 92.66 163.42 93.32 159 94 C155.04 95.65 151.08 97.3 147 99 C144.03 100.98 141.06 102.96 138 105 C138 106.32 138 107.64 138 109 C141.3 111.97 144.6 114.94 148 118 C150.97 120.97 153.94 123.94 157 127 C160.63 131.62 164.26 136.24 168 141 C171.3 145.95 174.6 150.9 178 156 C181.96 163.59 185.92 171.18 190 179 C192.31 185.27 194.62 191.54 197 198 C197.66 199.98 198.32 201.96 199 204 C201.475 203.01 201.475 203.01 204 202 C204.99 201.67 205.98 201.34 207 201 C207 200.34 207 199.68 207 199 C207.99 199 208.98 199 210 199 C210 198.34 210 197.68 210 197 C211.65 196.34 213.3 195.68 215 195 C217.97 191.535 217.97 191.535 221 188 C221 187.34 221 186.68 221 186 C221.66 186 222.32 186 223 186 C225.64 180.72 228.28 175.44 231 170 C231.66 167.36 232.32 164.72 233 162 C233.33 157.38 233.66 152.76 234 148 C233.34 143.71 232.68 139.42 232 135 C230.35 131.04 228.7 127.08 227 123 C225.02 120.03 223.04 117.06 221 114 C219.02 111.69 217.04 109.38 215 107 C210.05 103.535 210.05 103.535 205 100 C201.37 98.35 197.74 96.7 194 95 C188.72 94.01 183.44 93.02 178 92 C176.02 92 174.04 92 172 92 Z M-9 93 C-17.91 94.485 -17.91 94.485 -27 96 C-35.91 98.475 -35.91 98.475 -45 101 C-49.95 102.98 -54.9 104.96 -60 107 C-66.27 110.3 -72.54 113.6 -79 117 C-82.3 119.31 -85.6 121.62 -89 124 C-92.63 126.97 -96.26 129.94 -100 133 C-103.3 135.97 -106.6 138.94 -110 142 C-114.455 146.95 -114.455 146.95 -119 152 C-122.465 155.96 -122.465 155.96 -126 160 C-127.65 160.99 -129.3 161.98 -131 163 C-134.3 163 -137.6 163 -141 163 C-146.28 159.7 -151.56 156.4 -157 153 C-168.88 145.08 -180.76 137.16 -193 129 C-194.485 129.495 -194.485 129.495 -196 130 C-200.62 136.93 -205.24 143.86 -210 151 C-207.525 152.98 -207.525 152.98 -205 155 C-190.81 164.57 -176.62 174.14 -162 184 C-158.7 186.31 -155.4 188.62 -152 191 C-150.515 193.475 -150.515 193.475 -149 196 C-148.505 199.96 -148.505 199.96 -148 204 C-149.65 210.93 -151.3 217.86 -153 225 C-153.66 229.95 -154.32 234.9 -155 240 C-125.96 240 -96.92 240 -67 240 C-66.67 223.83 -66.34 207.66 -66 191 C-65.01 189.02 -64.02 187.04 -63 185 C-60.36 182.69 -57.72 180.38 -55 178 C-39.16 162.16 -23.32 146.32 -7 130 C-7 117.79 -7 105.58 -7 93 C-7.66 93 -8.32 93 -9 93 Z M8 159 C-6.19 173.19 -20.38 187.38 -35 202 C-35 224.44 -35 246.88 -35 270 C-5.96 270 23.08 270 53 270 C53 247.56 53 225.12 53 202 C38.81 187.81 24.62 173.62 10 159 C9.34 159 8.68 159 8 159 Z M-155 272 C-154.34 276.95 -153.68 281.9 -153 287 C-151.68 292.61 -150.36 298.22 -149 304 C-147.02 309.28 -145.04 314.56 -143 320 C-140.36 325.28 -137.72 330.56 -135 336 C-132.69 339.96 -130.38 343.92 -128 348 C-125.03 351.96 -122.06 355.92 -119 360 C-34.85 360 49.3 360 136 360 C136.99 359.01 137.98 358.02 139 357 C139.99 356.01 140.98 355.02 142 354 C143.485 351.525 143.485 351.525 145 349 C145.99 347.68 146.98 346.36 148 345 C148 344.01 148 343.02 148 342 C148.66 342 149.32 342 150 342 C151.98 338.04 153.96 334.08 156 330 C157.98 326.04 159.96 322.08 162 318 C163.98 312.06 165.96 306.12 168 300 C169.32 294.06 170.64 288.12 172 282 C172.33 278.7 172.66 275.4 173 272 C143.96 272 114.92 272 85 272 C84.67 278.27 84.34 284.54 84 291 C83.01 292.65 82.02 294.3 81 296 C78.525 297.98 78.525 297.98 76 300 C75.34 300.33 74.68 300.66 74 301 C31.1 301 -11.8 301 -56 301 C-57.98 299.68 -59.96 298.36 -62 297 C-63.32 295.02 -64.64 293.04 -66 291 C-66.33 284.73 -66.66 278.46 -67 272 C-96.04 272 -125.08 272 -155 272 Z M-144 392 C-147.96 392.66 -151.92 393.32 -156 394 C-159.96 395.98 -163.92 397.96 -168 400 C-171.3 403.3 -174.6 406.6 -178 410 C-179.32 412.64 -180.64 415.28 -182 418 C-182 418.66 -182 419.32 -182 420 C-55.94 420 70.12 420 200 420 C199.34 418.02 198.68 416.04 198 414 C196.02 411.03 196.02 411.03 194 408 C190.04 404.04 190.04 404.04 186 400 C182.7 398.35 179.4 396.7 176 395 C171.38 394.01 166.76 393.02 162 392 C61.02 392 -39.96 392 -144 392 Z " transform="translate(247,30)" style="fill: #0A0A0A;"/></svg>