<svg viewBox="0 0 512 512" fill="none" xmlns="http://www.w3.org/2000/svg"><g clip-path="url(#clip0_83_28)"><path d="M99.3673 180.612C101.254 180.604 101.254 180.604 103.179 180.596C106.664 180.582 110.148 180.586 113.633 180.593C117.394 180.598 121.155 180.585 124.915 180.575C132.28 180.558 139.645 180.557 147.01 180.562C152.996 180.566 158.983 180.565 164.969 180.56C166.247 180.559 166.247 180.559 167.551 180.557C169.281 180.556 171.012 180.554 172.743 180.553C188.974 180.539 205.204 180.544 221.435 180.556C236.284 180.566 251.132 180.553 265.981 180.529C281.228 180.505 296.476 180.495 311.723 180.502C320.283 180.505 328.843 180.503 337.403 180.485C344.69 180.471 351.976 180.47 359.263 180.487C362.98 180.496 366.697 180.498 370.415 180.483C374.445 180.466 378.475 180.481 382.506 180.499C384.267 180.484 384.267 180.484 386.063 180.47C392.594 180.529 396.728 181.025 402 185C406.307 190.564 406.522 195.059 406.25 201.938C406.232 202.812 406.214 203.687 406.195 204.588C406.149 206.726 406.077 208.863 406 211C406.637 210.991 407.275 210.982 407.931 210.973C414.616 210.884 421.3 210.824 427.985 210.78C430.474 210.76 432.962 210.733 435.451 210.698C439.045 210.649 442.639 210.627 446.234 210.609C447.88 210.578 447.88 210.578 449.56 210.547C462.868 210.543 473.571 214.976 483.223 224.102C492.902 234.342 496.572 245.714 496.271 259.683C495.979 265.931 494.669 271.923 493.237 277.995C492.392 281.581 491.603 285.18 490.805 288.777C490.566 289.842 490.566 289.842 490.322 290.929C488.979 296.964 487.875 303.024 486.875 309.125C485.444 317.766 483.708 326.306 481.78 334.85C480.68 339.747 479.709 344.62 478.941 349.58C476.803 362.998 470.783 375.486 459.656 383.738C448.047 391.141 437.184 392.602 423.738 392.609C422.095 392.624 420.452 392.641 418.808 392.66C414.519 392.703 410.23 392.723 405.941 392.738C401.55 392.758 397.159 392.8 392.768 392.84C384.178 392.915 375.589 392.965 367 393C366.405 393.804 365.811 394.608 365.198 395.436C364.398 396.512 363.597 397.588 362.797 398.664C362.017 399.715 361.236 400.767 360.433 401.85C357.515 405.629 354.386 409.151 351.141 412.648C349.499 414.452 347.922 416.271 346.366 418.147C345.585 419.089 344.805 420.03 344 421C344.565 421.001 345.129 421.001 345.711 421.002C359.475 421.017 373.239 421.06 387.003 421.132C393.66 421.166 400.316 421.192 406.972 421.196C413.398 421.2 419.823 421.228 426.249 421.273C428.698 421.286 431.148 421.291 433.597 421.286C437.033 421.281 440.467 421.307 443.902 421.341C444.912 421.332 445.921 421.323 446.96 421.314C453.467 421.42 458.019 422.672 463 427C466.015 431.334 466.63 434.779 466 440C464.318 445.336 462.243 448.501 457.16 451.226C452.903 452.752 448.525 452.409 444.062 452.25C443.092 452.232 442.122 452.214 441.123 452.195C438.748 452.149 436.374 452.083 434 452C433.878 453.201 433.755 454.403 433.629 455.641C432.269 466.397 426.268 475.413 420 484C419.541 484.646 419.082 485.292 418.609 485.957C407.972 499.638 389.631 509.129 372.747 511.363C362.283 512.581 351.704 512.287 341.187 512.275C338.703 512.279 336.22 512.284 333.736 512.29C327.724 512.302 321.712 512.305 315.7 512.302C310.81 512.301 305.919 512.302 301.029 512.307C299.98 512.308 299.98 512.307 298.91 512.308C297.489 512.31 296.069 512.311 294.648 512.312C281.364 512.323 268.08 512.321 254.796 512.315C242.668 512.309 230.54 512.321 218.412 512.34C205.924 512.359 193.436 512.367 180.947 512.364C173.95 512.362 166.953 512.364 159.956 512.378C153.378 512.392 146.8 512.389 140.222 512.376C137.815 512.374 135.408 512.376 133.001 512.385C107.168 512.467 86.0033 507.754 67 489C57.5338 479.399 48 466.042 48 452C47.4005 452.021 46.801 452.042 46.1833 452.064C43.4349 452.147 40.6867 452.199 37.9375 452.25C36.9946 452.284 36.0516 452.317 35.0801 452.352C28.7921 452.439 25.1008 451.759 20 448C16.9288 444.767 16.0613 441.429 15.4375 437.063C15.7042 432.335 17.7556 428.403 21 425C26.4042 421.285 31.577 421.646 37.875 421.813C38.8495 421.826 39.8241 421.84 40.8281 421.854C43.2193 421.889 45.6094 421.938 48 422C47.6769 420.891 47.3539 419.782 47.021 418.64C45.7841 413.666 45.6766 408.867 45.6641 403.762C45.6574 402.8 45.6507 401.839 45.6439 400.848C45.6338 398.824 45.6291 396.799 45.6294 394.775C45.625 391.707 45.5887 388.64 45.5508 385.572C45.4409 366.59 45.4409 366.59 50 358C50.4808 357.005 50.9616 356.01 51.457 354.984C57.6032 344.853 64.8162 338.448 76 334C78.9928 333.487 81.9706 333.19 85 333C84.7964 332.195 84.7964 332.195 84.5886 331.374C79.9205 312.767 75.9077 293.918 75.8071 274.66C75.7949 273.331 75.7949 273.331 75.7823 271.976C75.7578 269.076 75.7411 266.177 75.7266 263.277C75.7212 262.281 75.7159 261.284 75.7104 260.257C75.6838 254.989 75.6644 249.722 75.6499 244.454C75.6365 240.108 75.6086 235.762 75.5679 231.416C75.5185 226.147 75.4938 220.878 75.4867 215.609C75.48 213.609 75.4648 211.609 75.4408 209.609C75.4091 206.809 75.4091 204.011 75.4165 201.211C75.4001 200.393 75.3837 199.576 75.3668 198.734C75.4296 192.904 76.8784 188.271 81 184C86.6587 179.996 92.7158 180.578 99.3673 180.612ZM106 211C102.746 271.194 102.746 271.194 117 332C117.843 332.061 118.686 332.121 119.555 332.184C121.198 332.309 121.198 332.309 122.875 332.438C124.511 332.559 124.511 332.559 126.18 332.684C129 333 129 333 131 334C132.664 334.096 134.333 334.13 136 334.125C137.33 334.129 137.33 334.129 138.688 334.133C141.027 334.151 141.027 334.151 143 333C145.838 332.888 148.65 332.836 151.488 332.832C152.342 332.829 153.197 332.825 154.077 332.822C155.893 332.817 157.71 332.815 159.527 332.815C162.263 332.813 165 332.794 167.736 332.775C185.061 332.717 199.853 333.589 213.219 346.023C222.845 356.705 225.166 369.491 225.133 383.406C225.134 384.29 225.135 385.173 225.136 386.084C225.136 387.943 225.135 389.802 225.13 391.661C225.125 394.491 225.13 397.322 225.137 400.152C225.136 401.966 225.135 403.78 225.133 405.594C225.135 406.433 225.137 407.271 225.139 408.135C225.134 409.332 225.134 409.332 225.129 410.553C225.129 411.244 225.128 411.936 225.127 412.649C224.957 415.799 224.476 418.883 224 422C233.276 422.256 242.55 422.451 251.829 422.57C256.139 422.627 260.446 422.704 264.755 422.83C268.924 422.951 273.091 423.015 277.262 423.044C278.842 423.064 280.422 423.103 282 423.163C293.175 423.57 299.595 421.484 307.937 413.906C308.44 413.428 308.944 412.95 309.463 412.457C311.053 410.95 312.684 409.503 314.335 408.062C350.141 376.595 370.782 331.962 376 285C376 260.58 376 236.16 376 211C286.9 211 197.8 211 106 211ZM406 241C405.98 242.244 405.96 243.488 405.94 244.769C405.863 249.468 405.774 254.167 405.683 258.865C405.645 260.883 405.61 262.901 405.578 264.919C405.317 281.364 404.366 297.341 400.75 313.438C400.535 314.407 400.319 315.377 400.097 316.376C397.05 329.634 392.534 342.206 387.184 354.697C385.563 358.221 385.563 358.221 385 362C391.813 362.076 398.627 362.129 405.441 362.165C407.756 362.18 410.071 362.2 412.386 362.226C415.725 362.263 419.063 362.28 422.402 362.293C423.428 362.308 424.453 362.324 425.51 362.34C432.015 362.341 439.633 362.243 444.6 357.459C449.534 351.134 450.097 341.94 451.438 334.25C451.882 331.812 452.333 329.376 452.784 326.94C453.087 325.303 453.388 323.665 453.687 322.027C455.011 314.815 456.541 307.66 458.125 300.5C460.193 290.983 462.147 281.449 463.938 271.875C464.161 270.731 464.385 269.587 464.616 268.408C465.992 260.848 467.235 253.04 463.375 246.063C457.066 240.583 450.81 240.585 442.816 240.707C441.761 240.711 440.705 240.716 439.618 240.72C436.266 240.737 432.914 240.774 429.562 240.813C427.282 240.828 425.001 240.841 422.721 240.854C417.147 240.887 411.574 240.937 406 241ZM78.6313 367.516C75.6888 372.052 75.3995 376.423 75.4336 381.715C75.4274 382.529 75.4212 383.344 75.4148 384.183C75.4077 385.897 75.4108 387.61 75.4236 389.324C75.4374 391.928 75.4033 394.528 75.3652 397.131C75.3643 398.805 75.3661 400.479 75.3711 402.152C75.3578 402.92 75.3446 403.688 75.3309 404.48C75.431 410.367 77.1083 414.543 81 419C85.6961 422.336 90.0559 422.467 95.6172 422.469C96.8412 422.48 96.8412 422.48 98.0899 422.492C99.8094 422.503 101.529 422.506 103.249 422.501C105.861 422.5 108.47 422.542 111.082 422.586C112.76 422.591 114.439 422.594 116.117 422.594C117.274 422.618 117.274 422.618 118.454 422.643C124.321 422.57 128.628 421 133 417C136.046 411.922 136.446 407.438 136.398 401.688C136.403 400.529 136.403 400.529 136.407 399.346C136.409 397.723 136.404 396.099 136.391 394.476C136.375 392.007 136.391 389.539 136.41 387.07C136.408 385.484 136.404 383.898 136.398 382.313C136.405 381.583 136.411 380.854 136.417 380.102C136.334 373.956 135.112 369.058 130.562 364.625C125.917 361.679 121.405 361.815 116.016 361.762C114.854 361.75 114.854 361.75 113.669 361.737C112.032 361.723 110.394 361.713 108.757 361.705C107.093 361.693 105.429 361.673 103.765 361.643C101.348 361.6 98.9326 361.584 96.5156 361.574C95.782 361.557 95.0484 361.539 94.2925 361.521C88.2693 361.546 82.7999 362.898 78.6313 367.516ZM164 362C164.071 362.548 164.141 363.095 164.214 363.659C165.235 372.889 165.151 382.117 165.13 391.39C165.125 394.257 165.13 397.125 165.137 399.992C165.136 401.833 165.135 403.675 165.133 405.516C165.135 406.364 165.137 407.212 165.139 408.086C165.12 412.828 164.791 417.322 164 422C167.333 422.147 170.665 422.235 174 422.313C175.402 422.375 175.402 422.375 176.832 422.439C182.564 422.54 186.465 421.814 191.344 418.766C195.986 413.816 196.452 408.131 196.398 401.688C196.403 400.529 196.403 400.529 196.407 399.346C196.409 397.723 196.404 396.099 196.391 394.476C196.375 392.007 196.391 389.539 196.41 387.07C196.408 385.484 196.404 383.898 196.398 382.313C196.405 381.583 196.411 380.854 196.417 380.102C196.334 373.956 195.112 369.058 190.562 364.625C186.775 362.223 183.668 361.874 179.234 361.902C178.345 361.906 177.455 361.909 176.539 361.912C175.619 361.921 174.698 361.929 173.75 361.938C172.346 361.944 172.346 361.944 170.914 361.951C168.609 361.963 166.305 361.979 164 362ZM79 452C82.891 463.673 90.1403 472.166 101.125 477.875C108.665 481.505 115.219 482.294 123.48 482.267C124.523 482.272 125.566 482.277 126.64 482.281C130.128 482.294 133.616 482.292 137.104 482.291C139.608 482.297 142.112 482.303 144.615 482.311C150.707 482.327 156.799 482.333 162.891 482.334C167.846 482.335 172.801 482.339 177.755 482.346C191.82 482.363 205.884 482.372 219.948 482.371C220.706 482.371 221.463 482.371 222.244 482.371C223.002 482.371 223.761 482.37 224.542 482.37C236.827 482.37 249.111 482.389 261.395 482.417C274.025 482.446 286.654 482.459 299.283 482.458C306.367 482.457 313.451 482.463 320.535 482.484C327.201 482.504 333.866 482.504 340.532 482.489C342.973 482.487 345.414 482.492 347.856 482.504C365.781 482.587 379.672 481.897 393.258 468.828C400.193 461.412 400.193 461.412 403 452C296.08 452 189.16 452 79 452Z" fill="currentColor"/><path d="M175.117 2.16026C177.19 3.67245 179.091 5.2872 181 7.0001C181.878 7.68846 181.878 7.68846 182.773 8.39073C187.211 12.206 189.71 16.786 192.312 21.9376C192.65 22.6058 192.988 23.274 193.336 23.9625C198.814 35.3324 199.874 47.5179 196.375 59.7501C191.652 73.1473 184.352 81.6889 173.562 90.7501C169.45 94.3477 167.35 97.1858 166.656 102.762C166.296 109.931 167.264 114.575 172 120C174.027 122.109 176.083 124.154 178.23 126.141C181.073 129.127 181.932 131.269 182.312 135.375C181.84 140.859 180.088 144.271 175.937 147.813C171.598 151.044 169.442 151.357 164 151C154.618 148.345 147.261 140.445 142.246 132.332C135.603 119.9 133.8 105.286 137.121 91.4923C141.293 79.662 148.341 70.4461 158.25 62.9376C163.634 58.73 166.426 55.1696 167.367 48.3321C167.66 42.0864 166.886 37.0038 163 32.0001C160.754 29.8616 158.458 27.8782 156.023 25.9571C152.656 22.7005 151.707 19.1638 151.625 14.5626C151.73 10.0332 153.015 7.48237 156 4.0001C161.366 -0.86326 168.773 -1.31606 175.117 2.16026Z" fill="currentColor"/><path d="M250.117 2.16026C252.19 3.67245 254.091 5.2872 256 7.0001C256.878 7.68846 256.878 7.68846 257.774 8.39073C262.211 12.206 264.71 16.786 267.313 21.9376C267.65 22.6058 267.988 23.274 268.336 23.9625C273.815 35.3324 274.874 47.5179 271.375 59.7501C266.653 73.1473 259.353 81.6889 248.563 90.7501C244.45 94.3477 242.35 97.1858 241.656 102.762C241.297 109.931 242.264 114.575 247 120C249.028 122.109 251.084 124.154 253.231 126.141C256.256 129.32 256.951 131.487 257.375 135.875C257.254 140.212 255.811 142.657 253 146C249.571 149.021 247.41 150.89 242.813 151.25C234.15 150.682 228.839 146.087 223 140C212.032 126.79 209.925 113.143 211.203 96.3282C213.236 82.8046 222.224 71.3048 232.813 63.1876C233.905 62.4045 233.905 62.4045 235.02 61.6056C239.33 58.1116 241.628 53.8924 242.336 48.3868C242.428 42.0466 241.969 37.1101 238 32.0001C235.754 29.8616 233.458 27.8782 231.024 25.9571C227.656 22.7005 226.707 19.1638 226.625 14.5626C226.731 10.0332 228.015 7.48237 231 4.0001C236.367 -0.86326 243.773 -1.31606 250.117 2.16026Z" fill="currentColor"/><path d="M325.117 2.16026C327.19 3.67245 329.091 5.2872 331 7.0001C331.878 7.68846 331.878 7.68846 332.774 8.39073C337.211 12.206 339.71 16.786 342.313 21.9376C342.65 22.6058 342.988 23.274 343.336 23.9625C348.993 35.7029 350.008 48.3945 345.875 60.8126C341.087 73.6396 334.034 81.9622 323.625 90.6876C319.49 94.3124 317.355 97.1478 316.656 102.762C316.297 109.931 317.264 114.575 322 120C324.028 122.109 326.084 124.154 328.231 126.141C331.256 129.32 331.951 131.487 332.375 135.875C332.254 140.212 330.811 142.657 328 146C324.571 149.021 322.41 150.89 317.813 151.25C309.15 150.682 303.839 146.087 298 140C287.032 126.79 284.925 113.143 286.203 96.3282C288.236 82.8046 297.224 71.3048 307.813 63.1876C308.905 62.4045 308.905 62.4045 310.02 61.6056C314.33 58.1116 316.628 53.8924 317.336 48.3868C317.428 42.0425 316.965 37.1156 313 32.0001C310.756 29.8281 308.457 27.816 306.024 25.8595C303.255 23.3157 302.191 21.3461 301.664 17.6329C301.575 11.8841 302.052 8.49693 306 4.0001C311.367 -0.86326 318.773 -1.31606 325.117 2.16026Z" fill="currentColor"/></g><defs><clipPath id="clip0_83_28"></clipPath></defs></svg>