<?xml version="1.0" encoding="UTF-8"?>
<!-- Generator: visioncortex VTracer -->
<svg id="svg" version="1.1" xmlns="http://www.w3.org/2000/svg" style="display: block;" viewBox="0 0 512 512"><path d="M0 0 C21.78 0 43.56 0 66 0 C68.31 1.98 70.62 3.96 73 6 C73.66 7.65 74.32 9.3 75 11 C75 13.64 75 16.28 75 19 C73.515 21.97 73.515 21.97 72 25 C70.02 26.65 68.04 28.3 66 30 C65.34 30.33 64.68 30.66 64 31 C46.84 31.33 29.68 31.66 12 32 C9.03 32.99 6.06 33.98 3 35 C1.35 36.98 -0.3 38.96 -2 41 C-7.28 55.52 -12.56 70.04 -18 85 C-19.98 90.445 -19.98 90.445 -22 96 C55.715 96.495 55.715 96.495 135 97 C137.31 98.32 139.62 99.64 142 101 C143.32 102.65 144.64 104.3 146 106 C146.33 106.66 146.66 107.32 147 108 C147 111.63 147 115.26 147 119 C143.535 123.455 143.535 123.455 140 128 C135.71 132.95 131.42 137.9 127 143 C123.04 147.62 119.08 152.24 115 157 C110.71 161.95 106.42 166.9 102 172 C98.04 176.62 94.08 181.24 90 186 C86.04 190.62 82.08 195.24 78 200 C74.04 204.62 70.08 209.24 66 214 C61.71 218.95 57.42 223.9 53 229 C49.04 233.62 45.08 238.24 41 243 C36.71 247.95 32.42 252.9 28 258 C24.04 262.62 20.08 267.24 16 272 C12.04 276.62 8.08 281.24 4 286 C-0.29 290.95 -4.58 295.9 -9 301 C-12.96 305.62 -16.92 310.24 -21 315 C-24.3 318.96 -27.6 322.92 -31 327 C-31 368.25 -31 409.5 -31 452 C-30.01 455.3 -29.02 458.6 -28 462 C-26.02 464.97 -24.04 467.94 -22 471 C-17.545 473.97 -17.545 473.97 -13 477 C-9.04 477.99 -5.08 478.98 -1 480 C8.24 480.33 17.48 480.66 27 481 C29.64 482.98 32.28 484.96 35 487 C35.99 489.31 36.98 491.62 38 494 C38 496.31 38 498.62 38 501 C36.68 503.31 35.36 505.62 34 508 C32.35 509.32 30.7 510.64 29 512 C-42.28 512 -113.56 512 -187 512 C-189.31 510.02 -191.62 508.04 -194 506 C-194.66 504.68 -195.32 503.36 -196 502 C-196 498.7 -196 495.4 -196 492 C-194.68 489.69 -193.36 487.38 -192 485 C-189.525 483.515 -189.525 483.515 -187 482 C-186.34 481.67 -185.68 481.34 -185 481 C-175.1 480.67 -165.2 480.34 -155 480 C-152.03 479.34 -149.06 478.68 -146 478 C-144.35 477.01 -142.7 476.02 -141 475 C-140.01 475 -139.02 475 -138 475 C-138 474.34 -138 473.68 -138 473 C-136.35 471.35 -134.7 469.7 -133 468 C-132.01 467.67 -131.02 467.34 -130 467 C-129.67 465.68 -129.34 464.36 -129 463 C-128.01 460.36 -127.02 457.72 -126 455 C-126 412.43 -126 369.86 -126 326 C-129.3 322.37 -132.6 318.74 -136 315 C-138.97 311.37 -141.94 307.74 -145 304 C-148.63 300.04 -152.26 296.08 -156 292 C-158.97 288.37 -161.94 284.74 -165 281 C-168.63 277.04 -172.26 273.08 -176 269 C-178.97 265.37 -181.94 261.74 -185 258 C-188.63 254.04 -192.26 250.08 -196 246 C-198.97 242.37 -201.94 238.74 -205 235 C-208.63 231.04 -212.26 227.08 -216 223 C-218.97 219.37 -221.94 215.74 -225 212 C-228.3 208.37 -231.6 204.74 -235 201 C-237.97 197.37 -240.94 193.74 -244 190 C-247.63 186.04 -251.26 182.08 -255 178 C-257.97 174.37 -260.94 170.74 -264 167 C-267.63 163.04 -271.26 159.08 -275 155 C-277.97 151.37 -280.94 147.74 -284 144 C-287.63 140.04 -291.26 136.08 -295 132 C-297.64 128.7 -300.28 125.4 -303 122 C-303.66 120.68 -304.32 119.36 -305 118 C-305 114.7 -305 111.4 -305 108 C-304.67 107.01 -304.34 106.02 -304 105 C-303.34 105 -302.68 105 -302 105 C-301.67 103.68 -301.34 102.36 -301 101 C-298.36 99.68 -295.72 98.36 -293 97 C-215.12 97 -137.24 97 -57 97 C-56.34 94.03 -55.68 91.06 -55 88 C-44.605 59.29 -44.605 59.29 -34 30 C-32.35 26.7 -30.7 23.4 -29 20 C-28.34 20 -27.68 20 -27 20 C-26.34 18.35 -25.68 16.7 -25 15 C-22.69 13.02 -20.38 11.04 -18 9 C-15.69 7.35 -13.38 5.7 -11 4 C-7.37 2.68 -3.74 1.36 0 0 Z M-253 130 C-251.02 132.64 -249.04 135.28 -247 138 C-243.04 142.29 -239.08 146.58 -235 151 C-230.545 156.445 -230.545 156.445 -226 162 C-220.555 167.94 -220.555 167.94 -215 174 C-212.03 177.63 -209.06 181.26 -206 185 C-204.35 186.65 -202.7 188.3 -201 190 C-177.9 190 -154.8 190 -131 190 C-129.68 186.7 -128.36 183.4 -127 180 C-126.01 178.02 -125.02 176.04 -124 174 C-123.34 173.67 -122.68 173.34 -122 173 C-121.01 171.35 -120.02 169.7 -119 168 C-116.36 166.02 -113.72 164.04 -111 162 C-111 161.34 -111 160.68 -111 160 C-109.02 159.34 -107.04 158.68 -105 158 C-101.04 156.35 -97.08 154.7 -93 153 C-87.72 152.34 -82.44 151.68 -77 151 C-73.535 142.09 -73.535 142.09 -70 133 C-70 132.01 -70 131.02 -70 130 C-130.39 130 -190.78 130 -253 130 Z M-35 130 C-38.63 139.9 -42.26 149.8 -46 160 C-45.67 161.32 -45.34 162.64 -45 164 C-42.69 165.98 -40.38 167.96 -38 170 C-34.535 175.445 -34.535 175.445 -31 181 C-29.68 183.97 -28.36 186.94 -27 190 C-3.9 190 19.2 190 43 190 C44.65 188.68 46.3 187.36 48 186 C49.32 184.02 50.64 182.04 52 180 C53.32 178.68 54.64 177.36 56 176 C58.97 172.535 58.97 172.535 62 169 C64.97 165.535 64.97 165.535 68 162 C69.98 159.69 71.96 157.38 74 155 C77.465 151.04 77.465 151.04 81 147 C82.98 144.69 84.96 142.38 87 140 C88.98 137.69 90.96 135.38 93 133 C93 132.34 93 131.68 93 131 C93.66 130.67 94.32 130.34 95 130 C52.1 130 9.2 130 -35 130 Z M-86 184 C-90.95 186.97 -90.95 186.97 -96 190 C-97.65 193.3 -99.3 196.6 -101 200 C-101 203.96 -101 207.92 -101 212 C-99.68 214.64 -98.36 217.28 -97 220 C-95.02 221.65 -93.04 223.3 -91 225 C-88.03 225.99 -85.06 226.98 -82 228 C-77.05 227.505 -77.05 227.505 -72 227 C-69.69 225.68 -67.38 224.36 -65 223 C-64.01 222.01 -63.02 221.02 -62 220 C-62 219.34 -62 218.68 -62 218 C-61.34 218 -60.68 218 -60 218 C-59.01 215.36 -58.02 212.72 -57 210 C-57 207.03 -57 204.06 -57 201 C-58.32 198.03 -59.64 195.06 -61 192 C-63.31 190.02 -65.62 188.04 -68 186 C-69.65 185.34 -71.3 184.68 -73 184 C-77.29 184 -81.58 184 -86 184 Z M-173 222 C-171.02 224.64 -169.04 227.28 -167 230 C-163.37 233.96 -159.74 237.92 -156 242 C-151.545 247.445 -151.545 247.445 -147 253 C-141.555 258.94 -141.555 258.94 -136 265 C-133.03 268.63 -130.06 272.26 -127 276 C-125.68 276.99 -124.36 277.98 -123 279 C-120.69 273.06 -118.38 267.12 -116 261 C-114.68 257.04 -113.36 253.08 -112 249 C-115.3 245.7 -118.6 242.4 -122 239 C-123.98 235.7 -125.96 232.4 -128 229 C-128.99 226.69 -129.98 224.38 -131 222 C-144.86 222 -158.72 222 -173 222 Z M-27 222 C-28.98 225.96 -30.96 229.92 -33 234 C-35.31 236.97 -37.62 239.94 -40 243 C-42.64 245.31 -45.28 247.62 -48 250 C-52.62 252.31 -57.24 254.62 -62 257 C-64.31 257.66 -66.62 258.32 -69 259 C-75.435 259.495 -75.435 259.495 -82 260 C-86.95 273.86 -91.9 287.72 -97 302 C-97 302.99 -97 303.98 -97 305 C-83.14 305 -69.28 305 -55 305 C-53.02 302.69 -51.04 300.38 -49 298 C-47.02 295.69 -45.04 293.38 -43 291 C-41.02 288.69 -39.04 286.38 -37 284 C-33.535 280.04 -33.535 280.04 -30 276 C-27.03 272.535 -27.03 272.535 -24 269 C-21.03 265.535 -21.03 265.535 -18 262 C-15.03 258.535 -15.03 258.535 -12 255 C-10.02 252.69 -8.04 250.38 -6 248 C-4.02 245.69 -2.04 243.38 0 241 C3.465 237.04 3.465 237.04 7 233 C8.98 230.69 10.96 228.38 13 226 C13 225.34 13 224.68 13 224 C13.99 223.67 14.98 223.34 16 223 C16 222.67 16 222.34 16 222 C1.81 222 -12.38 222 -27 222 Z M-92 338 C-92.33 377.27 -92.66 416.54 -93 457 C-94.32 461.95 -95.64 466.9 -97 472 C-98.32 474.97 -99.64 477.94 -101 481 C-85.82 481 -70.64 481 -55 481 C-56.98 476.38 -58.96 471.76 -61 467 C-61.66 464.36 -62.32 461.72 -63 459 C-63.33 455.7 -63.66 452.4 -64 449 C-64.33 412.37 -64.66 375.74 -65 338 C-73.91 338 -82.82 338 -92 338 Z " transform="translate(335,0)" style="fill: #000000;"/></svg>