<?xml version="1.0" encoding="UTF-8"?>
<!-- Generator: visioncortex VTracer -->
<svg id="svg" version="1.1" xmlns="http://www.w3.org/2000/svg" style="display: block;" viewBox="0 0 512 512"><path d="M0 0 C0.70769531 -0.03287109 1.41539062 -0.06574219 2.14453125 -0.09960938 C6.18196988 -0.14096117 7.88561371 0.23811897 11.0234375 2.8515625 C11.71695313 3.70492188 12.41046875 4.55828125 13.125 5.4375 C13.7025 6.035625 14.28 6.63375 14.875 7.25 C17.46219806 11.77759661 17.51704373 15.92533133 16.25 20.8125 C11.89674275 29.55350977 3.0070503 36.69948176 -3.84765625 43.5078125 C-4.65617538 44.31491669 -5.46469452 45.12202087 -6.29771423 45.95358276 C-8.84193935 48.49227873 -11.38964586 51.02744672 -13.9375 53.5625 C-15.67926958 55.2992454 -17.42080806 57.0362226 -19.16210938 58.7734375 C-23.39707672 62.99747002 -27.63489616 67.21862388 -31.875 71.4375 C-30.73638519 72.05007156 -30.73638519 72.05007156 -29.57476807 72.67501831 C-28.58104187 73.21264801 -27.58731567 73.75027771 -26.56347656 74.30419922 C-25.08454926 75.10239578 -25.08454926 75.10239578 -23.57574463 75.91671753 C-12.55156131 82.12440728 -5.4054185 92.25506114 -1.9375 104.3125 C-0.12486103 112.86099491 -0.01856681 121.51120038 -2.125 130 C-2.73458717 132.31072341 -2.73458717 132.31072341 -2.875 134.4375 C-1.21794424 137.40679149 -1.21794424 137.40679149 1.125 139.4375 C4.11558947 148.40926842 1.04280778 158.27494958 -0.72973633 167.26782227 C-1.03772457 168.86285815 -1.34497546 170.45803657 -1.65155029 172.05334473 C-2.48564165 176.38229916 -3.33008038 180.70917704 -4.17641282 185.03575253 C-5.07277891 189.62749058 -5.95962007 194.22106825 -6.84757996 198.81443787 C-8.5418246 207.5708683 -10.24472933 216.32559161 -11.95066518 225.07975096 C-13.84798605 234.81838981 -15.73526694 244.5589648 -17.62181497 254.29969525 C-19.99605571 266.55796307 -22.37267366 278.81575102 -24.76394653 291.07070923 C-24.94158433 291.98110808 -25.11922212 292.89150694 -25.30224288 293.82949364 C-26.0062629 297.43725436 -26.71033972 301.04500396 -27.41467309 304.65270352 C-29.57978801 315.74532453 -31.72250044 326.84186078 -33.8361007 337.94440901 C-34.7032058 342.4911528 -35.57872703 347.03628315 -36.45334435 351.58158684 C-36.90031977 353.9171156 -37.34314961 356.25344254 -37.78132057 358.59063911 C-41.95154545 380.8266434 -48.28407871 399.27043436 -64.875 415.4375 C-66.22658203 416.20900391 -66.22658203 416.20900391 -67.60546875 416.99609375 C-71.3463194 421.02024462 -70.57165468 425.59155509 -70.4375 430.875 C-70.41260498 432.49946045 -70.41260498 432.49946045 -70.38720703 434.15673828 C-69.99104814 447.83345702 -66.39976232 460.53895301 -56.1875 470.25 C-47.78540387 476.93706153 -39.07313739 479.10719321 -28.6003418 480.27441406 C-22.12110908 481.07272068 -18.03196576 483.04734875 -13.5625 488 C-10.61332013 492.25992647 -10.35712415 496.39300565 -10.875 501.4375 C-12.60604122 506.34211679 -15.3889511 509.79210191 -19.875 512.4375 C-22.90212555 512.92108139 -25.35920736 513.11556888 -28.37670898 513.07241821 C-29.21881392 513.08021817 -30.06091887 513.08801812 -30.92854214 513.09605443 C-33.74317439 513.11595799 -36.55645208 513.10021658 -39.37109375 513.08447266 C-41.39178251 513.0912495 -43.4124651 513.10015301 -45.43313599 513.11102295 C-50.91663382 513.13381466 -56.39966122 513.12498027 -61.88316727 513.10912752 C-67.62191281 513.09646799 -73.3606181 513.10820879 -79.09936523 513.11605835 C-88.73656444 513.12515473 -98.37357207 513.11316719 -108.01074219 513.08935547 C-119.15238645 513.06214435 -130.29357324 513.07095851 -141.43520641 513.0984875 C-151.00141154 513.12117778 -160.56747894 513.12437899 -170.13370228 513.11129415 C-175.84709484 513.10349926 -181.56027238 513.10245928 -187.27365112 513.11897659 C-192.64512419 513.13342076 -198.01600748 513.12340011 -203.38741684 513.09450531 C-205.35866186 513.08789428 -207.32995652 513.08979243 -209.30118179 513.10081863 C-211.99255472 513.11448501 -214.68203846 513.0973458 -217.37329102 513.07241821 C-218.54323939 513.08914863 -218.54323939 513.08914863 -219.73682308 513.10621703 C-225.58875344 513.0010929 -227.92819973 511.4610255 -231.875 507.4375 C-234.87095995 502.94356008 -235.74078751 498.75164405 -234.875 493.4375 C-233.46293021 488.55298187 -231.78479488 485.74528414 -227.3046875 483.2421875 C-222.70293396 481.09066406 -218.51786572 480.85545685 -213.5 480.8125 C-211.81363807 480.75600194 -210.12742506 480.69485457 -208.44140625 480.62890625 C-207.64621582 480.59941895 -206.85102539 480.56993164 -206.03173828 480.53955078 C-197.77248075 480.14874598 -191.59423808 477.58523392 -184.34375 473.6796875 C-181.875 472.4375 -181.875 472.4375 -179.875 472.4375 C-179.545 471.4475 -179.215 470.4575 -178.875 469.4375 C-176.4375 466.75 -176.4375 466.75 -173.875 464.4375 C-173.215 464.4375 -172.555 464.4375 -171.875 464.4375 C-171.50375 463.2 -171.50375 463.2 -171.125 461.9375 C-169.91723322 458.55575302 -168.45947042 455.52831611 -166.77734375 452.3671875 C-163.90361208 446.22163147 -164.45735846 439.26490774 -164.3125 432.625 C-164.24998047 431.36623047 -164.18746094 430.10746094 -164.12304688 428.81054688 C-163.85987154 422.0750766 -163.85987154 422.0750766 -166.55297852 416.13793945 C-168.57582381 414.38230228 -170.6360316 412.90257767 -172.875 411.4375 C-186.82798072 397.81843676 -192.46192334 380.53161313 -195.97436523 361.77807617 C-196.24700202 360.36719721 -196.52061836 358.95650726 -196.79512024 357.54598999 C-197.53292879 353.74017353 -198.25712743 349.93188414 -198.97880054 346.12297988 C-199.75423748 342.04367203 -200.54257652 337.96685621 -201.32936096 333.88972473 C-202.83015141 326.10233723 -204.31963332 318.31283189 -205.80498701 310.52248698 C-207.44073515 301.94610892 -209.08859622 293.37207601 -210.73781848 284.79828048 C-212.84958169 273.81975936 -214.95881836 262.84077961 -217.05282593 251.8588562 C-217.69641071 248.48449792 -218.34008875 245.11015746 -218.98388672 241.73583984 C-219.14267768 240.90348997 -219.30146863 240.07114009 -219.46507144 239.2135675 C-221.77247332 227.12579616 -224.1200477 215.04634853 -226.49241388 202.97116935 C-227.49214886 197.87593499 -228.4855371 192.77945895 -229.47879583 187.68295866 C-230.41710036 182.87264855 -231.36591678 178.0645708 -232.32272577 173.2579093 C-232.90728368 170.30794532 -233.48163189 167.35606142 -234.05317378 164.40355086 C-234.31823226 163.04559964 -234.58753593 161.68846867 -234.86151433 160.33228898 C-236.62023468 151.61414833 -237.99151197 144.61587997 -233.875 136.4375 C-234.07369923 134.46428328 -234.07369923 134.46428328 -234.75 132.375 C-237.26277791 121.32206187 -237.5016456 107.91665457 -232.875 97.4375 C-232.42253906 96.35082031 -232.42253906 96.35082031 -231.9609375 95.2421875 C-229.9322428 90.77246179 -227.50781136 87.7978505 -223.875 84.4375 C-223.194375 83.53 -222.51375 82.6225 -221.8125 81.6875 C-219.78741339 79.33578652 -218.90015469 78.76162372 -215.875 78.4375 C-215.875 77.7775 -215.875 77.1175 -215.875 76.4375 C-212.905 75.4475 -209.935 74.4575 -206.875 73.4375 C-206.92720703 72.39916016 -206.92720703 72.39916016 -206.98046875 71.33984375 C-207.41627321 55.58862559 -203.07387646 41.31858715 -195.875 27.4375 C-195.215 27.4375 -194.555 27.4375 -193.875 27.4375 C-193.875 26.4475 -193.875 25.4575 -193.875 24.4375 C-193.215 24.4375 -192.555 24.4375 -191.875 24.4375 C-191.648125 23.695 -191.42125 22.9525 -191.1875 22.1875 C-189.60624115 18.87438621 -187.80660239 17.60130177 -184.875 15.4375 C-184.153125 14.695 -183.43125 13.9525 -182.6875 13.1875 C-180.875 11.4375 -180.875 11.4375 -178.875 11.4375 C-178.875 10.7775 -178.875 10.1175 -178.875 9.4375 C-172.88484701 6.1110011 -167.81283267 3.4375 -160.875 3.4375 C-155.64667244 5.03258298 -152.33237308 7.2118218 -148.875 11.4375 C-147.28857592 14.54933185 -146.13260539 17.32941798 -145.34375 20.72265625 C-141.3599604 37.26062492 -124.61257189 48.8724358 -110.875 57.4375 C-101.82090269 62.95164949 -90.52399807 69.76108857 -79.59719849 69.35227966 C-75.54780643 67.99150398 -73.2375729 65.31723124 -70.29638672 62.29711914 C-69.33691635 61.33611549 -69.33691635 61.33611549 -68.35806274 60.35569763 C-66.2474553 58.2372103 -64.15126088 56.10502564 -62.0546875 53.97265625 C-60.59023207 52.49819844 -59.12481503 51.02469514 -57.65847778 49.55210876 C-53.80073635 45.6734291 -49.95471764 41.7833354 -46.1114502 37.89031982 C-39.95571877 31.65933223 -33.78127137 25.44687507 -27.60895157 19.23232841 C-25.45266469 17.05832225 -23.30064243 14.88016758 -21.14938354 12.70118713 C-19.83124756 11.36983327 -18.51306371 10.03852678 -17.19482422 8.70727539 C-16.59631653 8.09888824 -15.99780884 7.4905011 -15.38116455 6.86367798 C-10.24734601 1.68889937 -7.21387474 0.05849088 0 0 Z M-168.875 48.4375 C-169.52739158 49.83028017 -170.17160552 51.22689212 -170.8125 52.625 C-171.17214844 53.40230469 -171.53179687 54.17960937 -171.90234375 54.98046875 C-173.87889215 59.97343641 -174.01069017 64.59241367 -174 69.9375 C-174.00257813 71.2265625 -174.00515625 72.515625 -174.0078125 73.84375 C-173.89565038 76.87872492 -173.5282272 79.4904979 -172.875 82.4375 C-172.38334576 87.07194568 -172.42486941 90.48322315 -174.4375 94.75 C-179.37479005 100.19367877 -183.37764897 101.49778388 -190.5 102.375 C-194.68438439 102.92747326 -196.55975284 103.21497259 -200.0625 105.6875 C-203.54326441 110.9686598 -204.31568421 115.13774228 -203.41015625 121.3203125 C-202.5998945 124.52587357 -201.32936659 126.24847034 -198.875 128.4375 C-194.64567381 130.15025847 -191.08186884 130.68831018 -186.53723145 130.69146729 C-185.28394547 130.69710693 -184.03065948 130.70274658 -182.73939514 130.70855713 C-181.36337222 130.70466912 -179.98734987 130.70057282 -178.61132812 130.69628906 C-177.15221482 130.69900117 -175.69310288 130.70256333 -174.23399353 130.70690918 C-170.28155839 130.71600936 -166.32922792 130.71249873 -162.376791 130.70615101 C-158.23560687 130.70107874 -154.09443156 130.70578587 -149.95324707 130.70892334 C-142.99957677 130.7125594 -136.04594899 130.70777332 -129.09228516 130.69824219 C-121.05906215 130.68735832 -113.02594067 130.69088416 -104.99272013 130.701895 C-98.08894435 130.71097812 -91.1851991 130.71224814 -84.28141928 130.70701766 C-80.16098969 130.7039036 -76.04060778 130.70347312 -71.92018127 130.71009064 C-68.04597292 130.71587837 -64.17189516 130.71184112 -60.29770088 130.70030212 C-58.8779427 130.69766317 -57.45817348 130.69840755 -56.03841972 130.70282745 C-54.09654006 130.70831432 -52.15463631 130.70020548 -50.21276855 130.69146729 C-48.5845882 130.69033621 -48.5845882 130.69033621 -46.92351532 130.68918228 C-42.1569326 130.29565813 -38.86803179 129.45666421 -35.5 126 C-33.24909264 121.06531849 -33.0734937 116.77823009 -33.875 111.4375 C-35.86468453 107.52674075 -37.24033646 105.86060902 -40.875 103.4375 C-45.61945373 102.03904138 -50.52455983 102.30255457 -55.42578125 102.296875 C-57.34180854 102.27852366 -59.25782445 102.25895126 -61.17382812 102.23828125 C-64.16401147 102.20955056 -67.15346936 102.18750562 -70.14379883 102.18701172 C-101.31219951 102.15063343 -125.05810863 88.53687781 -148.875 69.4375 C-149.57496094 68.88191406 -150.27492187 68.32632813 -150.99609375 67.75390625 C-156.73069322 63.04106169 -161.48804951 57.49975716 -165.75 51.4375 C-166.45125 50.4475 -167.1525 49.4575 -167.875 48.4375 C-168.205 48.4375 -168.535 48.4375 -168.875 48.4375 Z M-199.875 162.4375 C-199.26916583 169.10167583 -198.70753898 175.05717403 -197.375 181.5 C-197.1171875 182.76972656 -196.859375 184.03945312 -196.59375 185.34765625 C-196.02701536 188.32758224 -196.02701536 188.32758224 -194.875 190.4375 C-143.395 190.4375 -91.915 190.4375 -38.875 190.4375 C-35.4453139 176.52955707 -35.4453139 176.52955707 -33.875 162.4375 C-88.655 162.4375 -143.435 162.4375 -199.875 162.4375 Z M-188.875 222.4375 C-185.72112731 240.67497959 -185.72112731 240.67497959 -182.37304688 258.8737793 C-182.15455582 260.02829086 -181.93606476 261.18280243 -181.71095276 262.37229919 C-181.00738666 266.08585464 -180.30096092 269.7988558 -179.59375 273.51171875 C-179.34866196 274.79955576 -179.10357391 276.08739277 -178.85105896 277.41425514 C-177.82132209 282.82411253 -176.79066829 288.23379358 -175.7572403 293.6429472 C-174.29425422 301.30049605 -172.83701018 308.95908669 -171.38766241 316.61922902 C-170.35639561 322.06723374 -169.3187483 327.51400003 -168.27643061 332.95990115 C-167.65863418 336.18859798 -167.04430352 339.41788636 -166.43516541 342.6482296 C-165.75686039 346.24187263 -165.06812423 349.83337302 -164.37695312 353.42456055 C-164.18255142 354.46737183 -163.98814972 355.51018311 -163.78785706 356.58459473 C-160.84868435 371.6871343 -156.06289318 384.45565917 -143.875 394.4375 C-133.03713378 401.70680052 -119.57390756 403.78855719 -106.875 401.4375 C-96.89789652 398.77955773 -89.18715638 394.60617296 -82.875 386.4375 C-82.215 386.1075 -81.555 385.7775 -80.875 385.4375 C-80.875 384.4475 -80.875 383.4575 -80.875 382.4375 C-80.215 382.4375 -79.555 382.4375 -78.875 382.4375 C-75.09356466 375.09990632 -73.14448871 367.77506959 -71.54418945 359.73120117 C-71.33169461 358.68689784 -71.11919977 357.64259451 -70.90026569 356.56664562 C-70.21689359 353.19186469 -69.5442932 349.81509976 -68.875 346.4375 C-68.65562649 345.3327042 -68.43625298 344.2279084 -68.21023178 343.08963394 C-66.57067717 334.80996934 -64.96038307 326.5247196 -63.35546875 318.23828125 C-62.97592579 316.28145361 -62.5963824 314.32462605 -62.21679956 312.36780614 C-61.03317675 306.26531508 -59.85161487 300.16242736 -58.67114258 294.05932617 C-57.45765892 287.78589185 -56.23931421 281.51341383 -55.01891822 275.24132091 C-53.96245125 269.81044255 -52.90955943 264.37887884 -51.85940629 258.94677609 C-51.23572113 255.72104535 -50.61011832 252.49570745 -49.98167992 249.27089882 C-49.28572524 245.69746379 -48.59562276 242.1229464 -47.90698242 238.5480957 C-47.59616478 236.96251106 -47.59616478 236.96251106 -47.27906799 235.34489441 C-46.99961838 233.88468369 -46.99961838 233.88468369 -46.71452332 232.39497375 C-46.5514075 231.55320745 -46.38829168 230.71144114 -46.22023296 229.84416676 C-45.75667076 227.01782757 -45.75667076 227.01782757 -45.875 222.4375 C-93.065 222.4375 -140.255 222.4375 -188.875 222.4375 Z M-130.875 433.4375 C-131.101875 436.428125 -131.32875 439.41875 -131.5625 442.5 C-132.81685053 456.14982692 -136.84164984 467.61880084 -143.875 479.4375 C-144.205 480.0975 -144.535 480.7575 -144.875 481.4375 C-126.725 481.4375 -108.575 481.4375 -89.875 481.4375 C-91.35438789 477.73903027 -92.88485061 474.48386713 -94.75 471 C-100.8058281 458.8883438 -102.56646594 446.74092965 -103.875 433.4375 C-112.785 433.4375 -121.695 433.4375 -130.875 433.4375 Z " transform="translate(365.875,-0.4375)" style="fill: #000000;"/></svg>