<?xml version="1.0" encoding="UTF-8"?>
<!-- Generator: visioncortex VTracer -->
<svg id="svg" version="1.1" xmlns="http://www.w3.org/2000/svg" style="display: block;" viewBox="0 0 512 512"><path d="M0 0 C1.12468689 -0.01354271 1.12468689 -0.01354271 2.27209473 -0.02735901 C3.85192943 -0.04177423 5.43182265 -0.05072634 7.01171875 -0.05444336 C9.37348269 -0.06624255 11.73254301 -0.11542538 14.09375 -0.16601562 C40.93802755 -0.45316622 63.60901591 13.39987915 82.52001953 31.5168457 C90.61634161 39.49539982 97.65883844 47.88142211 103.90625 57.37109375 C104.96005859 58.96824219 104.96005859 58.96824219 106.03515625 60.59765625 C108.07440895 63.81416833 110.00941359 67.06863354 111.90625 70.37109375 C112.26428711 70.99145508 112.62232422 71.61181641 112.99121094 72.25097656 C131.0289154 103.83651456 141.4094565 141.93055609 140.90625 178.37109375 C141.61910156 178.33628906 142.33195312 178.30148438 143.06640625 178.265625 C150.79957538 178.04705629 155.52248229 178.60255653 161.65625 183.62109375 C167.34898226 190.57887763 167.34036135 196.95230515 167.26953125 205.63671875 C167.27002975 206.82473083 167.27052826 208.01274292 167.27104187 209.23675537 C167.26870534 211.75160391 167.25900175 214.26645496 167.24243164 216.78125 C167.21908591 220.566628 167.22184417 224.35128818 167.22851562 228.13671875 C167.20948319 245.26400441 166.91124988 262.36603447 162.65625 279.05859375 C162.43864014 279.93177246 162.22103027 280.80495117 161.99682617 281.70458984 C155.78227493 305.81766594 144.01202431 327.92013013 126.98046875 346.140625 C125.08144913 348.18269694 123.30787345 350.28560957 121.53125 352.43359375 C117.19755948 357.3949222 112.09042752 361.33818969 106.90625 365.37109375 C105.978125 366.11488281 105.05 366.85867188 104.09375 367.625 C90.00240772 378.63386115 73.85728503 386.72074874 56.90625 392.37109375 C56.81883876 395.93343803 56.76572104 399.49550483 56.71875 403.05859375 C56.69361328 404.06599609 56.66847656 405.07339844 56.64257812 406.11132812 C56.43979367 413.29336647 56.43979367 413.29336647 59.90625 419.37109375 C62.91610498 420.37437874 65.66176436 420.65112412 68.80786133 420.91455078 C88.70958595 422.66492598 104.66034126 430.19665278 118.90625 444.37109375 C119.67710937 445.10714844 120.44796875 445.84320313 121.2421875 446.6015625 C134.21688748 459.81981487 140.24289936 478.4945549 141.28125 496.68359375 C140.70813498 502.31922473 138.82083845 506.34646968 134.93547058 510.45513821 C130.63719146 513.17376219 127.06551021 512.92990741 122.07543945 512.88575745 C121.07830838 512.89270297 120.08117731 512.8996485 119.05383015 512.9068045 C115.70883708 512.92511733 112.3645498 512.91479797 109.01953125 512.90454102 C106.6229906 512.91159725 104.22645441 512.92034101 101.82992554 512.9306488 C95.99414466 512.95084322 90.15858631 512.95216233 84.32278037 512.94402326 C79.57988333 512.93772307 74.83704316 512.93886044 70.09414673 512.94529533 C69.41907965 512.94619699 68.74401257 512.94709864 68.04848891 512.94802762 C66.67709723 512.94987882 65.30570555 512.95174138 63.93431389 512.95361518 C51.07515857 512.97019312 38.21611297 512.96147431 25.35696423 512.9446296 C13.59148571 512.92993038 1.82626252 512.94456402 -9.93918312 512.97339977 C-22.02035602 513.00278884 -34.10141106 513.01376765 -46.18261814 513.00421757 C-47.54896098 513.00319501 -48.91530385 513.0022004 -50.28164673 513.00123405 C-50.95391113 513.00075766 -51.62617554 513.00028127 -52.3188116 512.99979045 C-57.05596011 512.99762578 -61.79299708 513.00743305 -66.53012085 513.02200508 C-72.90615652 513.04031775 -79.28171641 513.03445695 -85.65772629 513.00980568 C-88.00028621 513.00478409 -90.34288211 513.00832224 -92.68541336 513.02095413 C-95.87847409 513.03681286 -99.06995427 513.02200029 -102.26293945 512.99928284 C-103.66006432 513.01703643 -103.66006432 513.01703643 -105.08541393 513.03514868 C-109.60240648 512.96966207 -111.4694876 512.87181554 -115.09880066 509.96073818 C-116.08630058 508.67886419 -116.08630058 508.67886419 -117.09375 507.37109375 C-117.67125 506.69046875 -118.24875 506.00984375 -118.84375 505.30859375 C-123.22599541 498.51611337 -120.92800229 487.95332863 -119.30859375 480.40234375 C-117.41380927 472.85389061 -114.89080647 466.15155173 -111.09375 459.37109375 C-110.42068086 458.04098092 -109.75194933 456.70862725 -109.09375 455.37109375 C-108.43375 455.37109375 -107.77375 455.37109375 -107.09375 455.37109375 C-107.09375 454.38109375 -107.09375 453.39109375 -107.09375 452.37109375 C-106.43375 452.37109375 -105.77375 452.37109375 -105.09375 452.37109375 C-104.908125 451.66984375 -104.7225 450.96859375 -104.53125 450.24609375 C-102.82632222 446.83623819 -100.82735296 445.21144147 -97.89453125 442.85546875 C-95.87338365 441.24942304 -95.87338365 441.24942304 -93.46875 438.62109375 C-91.06471985 436.34359151 -89.2247551 435.35512393 -86.09375 434.37109375 C-86.09375 433.71109375 -86.09375 433.05109375 -86.09375 432.37109375 C-73.06060397 425.78981717 -60.6266465 421.12940231 -45.80078125 420.64453125 C-42.99772263 420.36139402 -41.39869871 419.97586957 -39.09375 418.37109375 C-37.12806022 415.23525687 -36.85581387 412.83360086 -36.8984375 409.16796875 C-36.90488281 408.18828125 -36.91132813 407.20859375 -36.91796875 406.19921875 C-36.93472656 405.1834375 -36.95148438 404.16765625 -36.96875 403.12109375 C-36.97777344 402.08984375 -36.98679687 401.05859375 -36.99609375 399.99609375 C-37.01962989 397.45419088 -37.05250977 394.91276095 -37.09375 392.37109375 C-38.32867187 391.90960938 -39.56359375 391.448125 -40.8359375 390.97265625 C-61.25564724 383.17718432 -78.74961025 373.31816015 -94.859375 358.4140625 C-96.74325698 356.69156202 -98.66509631 355.08993008 -100.65625 353.49609375 C-105.47124345 349.39150917 -109.21414083 344.3367318 -113.09375 339.37109375 C-113.82722656 338.46488281 -114.56070313 337.55867188 -115.31640625 336.625 C-141.58156276 303.22609728 -147.28186424 264.36480239 -147.27905273 223.05541992 C-147.28125965 219.41769042 -147.29952905 215.78025503 -147.31835938 212.14257812 C-147.32129044 209.81380311 -147.32327715 207.48502667 -147.32421875 205.15625 C-147.33499702 203.53735619 -147.33499702 203.53735619 -147.34599304 201.88575745 C-147.32911168 196.31438147 -146.96991041 191.63149992 -145.09375 186.37109375 C-144.43375 186.37109375 -143.77375 186.37109375 -143.09375 186.37109375 C-142.866875 185.77296875 -142.64 185.17484375 -142.40625 184.55859375 C-140.47159955 181.33417633 -137.83309539 179.92828665 -134.2890625 178.79296875 C-131.60147567 178.27649299 -129.07884388 178.27603311 -126.34375 178.30859375 C-125.35890625 178.31761719 -124.3740625 178.32664063 -123.359375 178.3359375 C-122.23789063 178.35333984 -122.23789063 178.35333984 -121.09375 178.37109375 C-121.06796875 177.14519531 -121.0421875 175.91929687 -121.015625 174.65625 C-120.0183592 140.66889598 -112.63922428 100.65921543 -93.07861328 71.94165039 C-91.91145301 70.21768991 -91.91145301 70.21768991 -91.09375 67.37109375 C-90.43375 67.37109375 -89.77375 67.37109375 -89.09375 67.37109375 C-88.01849806 64.71880563 -86.99918849 62.08740921 -86.09375 59.37109375 C-85.43375 59.37109375 -84.77375 59.37109375 -84.09375 59.37109375 C-84.09375 58.38109375 -84.09375 57.39109375 -84.09375 56.37109375 C-83.43375 56.37109375 -82.77375 56.37109375 -82.09375 56.37109375 C-81.805 55.60796875 -81.51625 54.84484375 -81.21875 54.05859375 C-80.09375 51.37109375 -80.09375 51.37109375 -78.09375 48.37109375 C-77.43375 48.37109375 -76.77375 48.37109375 -76.09375 48.37109375 C-75.990625 47.73171875 -75.8875 47.09234375 -75.78125 46.43359375 C-75.554375 45.75296875 -75.3275 45.07234375 -75.09375 44.37109375 C-74.10375 44.04109375 -73.11375 43.71109375 -72.09375 43.37109375 C-71.79210937 42.60796875 -71.49046875 41.84484375 -71.1796875 41.05859375 C-69.88425825 37.85263934 -68.36991664 36.55544367 -65.71875 34.37109375 C-63.09262013 32.14769306 -60.97363153 30.21760904 -58.84375 27.49609375 C-56.80779056 25.02385729 -55.12187967 24.29635559 -52.09375 23.37109375 C-52.09375 22.71109375 -52.09375 22.05109375 -52.09375 21.37109375 C-49.47696558 19.21015586 -46.52668716 17.4877741 -43.65625 15.68359375 C-42.80184326 15.14557129 -41.94743652 14.60754883 -41.06713867 14.05322266 C-28.5881712 6.39423477 -14.86019708 0.11450273 0 0 Z M-41.41015625 55.59375 C-55.20950456 69.87517161 -65.39137713 87.16548514 -73.09375 105.37109375 C-73.39909668 106.09071289 -73.70444336 106.81033203 -74.01904297 107.55175781 C-83.34960933 130.018845 -88.09375 154.09010995 -88.09375 178.37109375 C-23.41375 178.37109375 41.26625 178.37109375 107.90625 178.37109375 C107.90625 133.24430615 91.39723449 87.16046961 59.90625 54.37109375 C46.29478844 40.96607045 29.58225597 32.17357911 10.3046875 31.34375 C-10.07834092 31.50775138 -26.95364657 41.97651519 -41.41015625 55.59375 Z M-114.09375 211.37109375 C-114.09375 220.28109375 -114.09375 229.19109375 -114.09375 238.37109375 C-32.25375 238.37109375 49.58625 238.37109375 133.90625 238.37109375 C133.90625 229.46109375 133.90625 220.55109375 133.90625 211.37109375 C52.06625 211.37109375 -29.77375 211.37109375 -114.09375 211.37109375 Z M-110.09375 271.37109375 C-109.33829143 276.65930374 -108.40209202 280.97896692 -106.53125 285.87109375 C-106.26803955 286.56106445 -106.0048291 287.25103516 -105.73364258 287.96191406 C-93.56250326 318.90967058 -69.69934119 343.27761881 -39.33984375 356.62109375 C-9.46520563 369.18843526 24.61421721 370.29029004 54.90625 358.37109375 C69.79650201 352.3648963 69.79650201 352.3648963 82.90625 343.37109375 C82.90625 342.71109375 82.90625 342.05109375 82.90625 341.37109375 C84.22625 341.04109375 85.54625 340.71109375 86.90625 340.37109375 C86.90625 339.71109375 86.90625 339.05109375 86.90625 338.37109375 C87.6384375 338.14035156 88.370625 337.90960938 89.125 337.671875 C92.43508873 336.12375766 94.04496427 334.3314416 96.40625 331.55859375 C101.27066201 325.93081826 101.27066201 325.93081826 103.96875 323.37109375 C106.13818174 321.59577762 106.13818174 321.59577762 105.90625 319.37109375 C106.56625 319.37109375 107.22625 319.37109375 107.90625 319.37109375 C108.23625 318.05109375 108.56625 316.73109375 108.90625 315.37109375 C109.56625 315.37109375 110.22625 315.37109375 110.90625 315.37109375 C119.6097952 304.4799007 129.90625 285.3917648 129.90625 271.37109375 C50.70625 271.37109375 -28.49375 271.37109375 -110.09375 271.37109375 Z M-4.09375 398.37109375 C-4.17625 401.93921875 -4.25875 405.50734375 -4.34375 409.18359375 C-4.87775703 423.4042604 -7.64154034 433.30234918 -18.16015625 443.34375 C-27.04125553 450.82675136 -36.24554016 452.53692523 -47.46069336 453.59423828 C-59.05849035 454.76316932 -69.06566606 458.9570308 -77.16796875 467.578125 C-80.86791766 472.13131161 -82.69667023 475.77790761 -85.09375 481.37109375 C-22.39375 481.37109375 40.30625 481.37109375 104.90625 481.37109375 C98.41557394 468.38974164 92.34667086 460.91820079 78.90625 455.62109375 C74.36182083 454.22218584 69.74191495 453.88588323 65.03125 453.43359375 C51.26806187 452.0816134 41.17526172 447.8993635 32.09375 437.12109375 C23.49956495 425.11715083 24.23755782 412.7001569 23.90625 398.37109375 C14.66625 398.37109375 5.42625 398.37109375 -4.09375 398.37109375 Z " transform="translate(246.09375,-0.37109375)" style="fill: #000000;"/></svg>