<?xml version="1.0" encoding="UTF-8"?>
<!-- Generator: visioncortex VTracer -->
<svg id="svg" version="1.1" xmlns="http://www.w3.org/2000/svg" style="display: block;" viewBox="0 0 512 512"><path d="M0 0 C1.12148438 -0.03738281 2.24296875 -0.07476563 3.3984375 -0.11328125 C13.94877735 -0.22292681 23.03634945 2.56946934 31.125 9.5625 C32.31996094 10.57376953 32.31996094 10.57376953 33.5390625 11.60546875 C34.89221608 12.8265416 36.21119367 14.08619367 37.5 15.375 C40.15234392 15.44323704 42.72870336 15.41152566 45.375 15.3125 C60.71051971 15.04951318 73.03665234 19.43850002 84.2421875 30.046875 C89.05851747 35.01319449 96.5 43.05609246 96.5 50.375 C97.77875 50.601875 99.0575 50.82875 100.375 51.0625 C112.59059063 53.88294838 122.55141384 61.38673571 129.74609375 71.546875 C135.45596392 81.0910239 136.86309596 88.61376722 136.875 99.625 C136.89949219 100.80191406 136.92398438 101.97882813 136.94921875 103.19140625 C136.98450851 113.7665706 134.42124186 121.54138723 128.0625 129.9375 C127.32128906 130.94941406 126.58007812 131.96132812 125.81640625 133.00390625 C116.64642015 143.18310398 104.35837957 147.87340842 91.8125 152.375 C90.25002025 152.95011205 88.68816636 153.52692741 87.12695312 154.10546875 C84.30232684 155.1512984 81.47403869 156.18579981 78.6418457 157.2109375 C75.65000837 158.25474129 75.65000837 158.25474129 73.5 159.375 C73.70496094 160.01824219 73.90992188 160.66148437 74.12109375 161.32421875 C76.31262657 168.67476664 77.14732402 175.72557967 77.5 183.375 C78.03625 183.0346875 78.5725 182.694375 79.125 182.34375 C86.33515304 177.88483957 93.80088606 174.09510884 101.41992188 170.39941406 C103.47807771 169.38579647 105.51264991 168.33412643 107.546875 167.2734375 C119.40439163 161.21142384 119.40439163 161.21142384 125.56640625 162.5859375 C130.34344027 164.5353534 133.6457174 167.0935761 136.5 171.375 C139.49454726 186.275204 132.30127565 200.05723326 126.76519775 213.50598145 C125.47818924 216.64953849 124.2230324 219.80576207 122.96484375 222.9609375 C120.50518574 229.110803 118.01497533 235.24756356 115.5 241.375 C116.25418213 241.35542236 117.00836426 241.33584473 117.78540039 241.31567383 C118.77531982 241.30044678 119.76523926 241.28521973 120.78515625 241.26953125 C121.76621338 241.24995361 122.74727051 241.23037598 123.75805664 241.21020508 C128.68890481 241.50655647 131.19393607 244.14173412 134.6268158 247.38327026 C137.3490589 251.73106245 137.06760258 255.51995455 137.03344727 260.55517578 C137.04206284 261.57877197 137.05067841 262.60236816 137.05955505 263.65698242 C137.08227142 267.04501605 137.0754576 270.43222502 137.06640625 273.8203125 C137.0716447 276.18903853 137.07792199 278.55776248 137.08518982 280.92648315 C137.09560864 285.9014463 137.09101914 290.87612379 137.07641602 295.85107422 C137.05935315 302.17746014 137.0825608 308.50292714 137.11790562 314.82921028 C137.14006134 319.72998905 137.13839238 324.63055489 137.1301403 329.53136826 C137.12932823 331.86018751 137.13604692 334.18902361 137.15091133 336.51779556 C137.29507341 363.22601809 131.14462406 386.11329079 114.5 407.375 C114.05140625 407.94847168 113.6028125 408.52194336 113.140625 409.11279297 C96.81186543 429.66392752 71.87489265 448.53116384 44.98748779 451.6681366 C44.09797424 451.75211197 43.20846069 451.83608734 42.29199219 451.92260742 C40.94485138 452.05151619 40.94485138 452.05151619 39.57049561 452.18302917 C38.88723206 452.24637955 38.20396851 452.30972992 37.5 452.375 C37.50666183 452.99030075 37.51332367 453.6056015 37.52018738 454.23954773 C37.58658996 460.64719413 37.63182115 467.05474267 37.66479492 473.46264648 C37.67987543 475.8536374 37.70034277 478.24460068 37.72631836 480.63549805 C37.76273306 484.07347435 37.77973399 487.51108469 37.79296875 490.94921875 C37.80845261 492.01710129 37.82393646 493.08498383 37.83988953 494.18522644 C37.8415095 501.33921028 37.01487969 504.62736995 32.1284399 509.96604633 C27.54359034 513.70159543 22.24213563 513.06906523 16.58827209 513.01664734 C15.37935301 513.02515286 14.17043392 513.03365838 12.92488092 513.04242164 C9.57659892 513.06083679 6.22970935 513.0568624 2.88149464 513.04328239 C-0.73212317 513.03402371 -4.34560319 513.05352086 -7.95918274 513.06925964 C-15.03544365 513.09534669 -22.1114505 513.09425888 -29.18774121 513.08322146 C-34.93937429 513.07466248 -40.69093386 513.07549424 -46.44256783 513.08301735 C-47.67057722 513.08459968 -47.67057722 513.08459968 -48.92339488 513.08621398 C-50.58653758 513.08838491 -52.24968025 513.09057169 -53.91282291 513.09277413 C-69.50846793 513.11220439 -85.10397043 513.10020585 -100.6996038 513.07798818 C-114.07872738 513.05973912 -127.45757498 513.07063829 -140.83666992 513.10229492 C-156.37503882 513.13905861 -171.91323534 513.1560788 -187.45164782 513.14288265 C-189.10897066 513.14154155 -190.76629352 513.14023257 -192.42361641 513.13895607 C-193.23903814 513.1383254 -194.05445987 513.13769474 -194.89459134 513.13704496 C-200.63820941 513.13401798 -206.38169743 513.14527685 -212.12528801 513.16220665 C-219.12660451 513.18253285 -226.12753158 513.18166049 -233.12882774 513.15357425 C-236.70051661 513.13980208 -240.2715257 513.13561511 -243.84318924 513.15752411 C-247.71624931 513.18096794 -251.58823835 513.15786329 -255.46128845 513.13017273 C-256.58852654 513.14423918 -257.71576463 513.15830563 -258.87716144 513.17279834 C-265.04309336 513.08380318 -268.70594578 512.41916991 -273.19667345 508.05157596 C-275.94627586 504.51453661 -276.74954264 501.78444225 -276.72705078 497.33105469 C-276.72689972 496.33031921 -276.72674866 495.32958374 -276.72659302 494.29852295 C-276.71627045 493.22547913 -276.70594788 492.1524353 -276.6953125 491.046875 C-276.6924826 489.94273254 -276.68965271 488.83859009 -276.68673706 487.70098877 C-276.67554489 484.1755488 -276.65044175 480.65036315 -276.625 477.125 C-276.61496897 474.73437867 -276.60584333 472.34375336 -276.59765625 469.953125 C-276.5756087 464.09366327 -276.54214053 458.23434981 -276.5 452.375 C-277.16459229 452.31763168 -277.82918457 452.26026337 -278.51391602 452.20115662 C-284.86102327 451.61723809 -290.46362927 450.48176246 -296.5 448.4375 C-297.40282715 448.13247559 -298.3056543 447.82745117 -299.23583984 447.51318359 C-313.23550579 442.56217194 -325.46640869 435.28160176 -336.5 425.375 C-337.62728516 424.46041016 -337.62728516 424.46041016 -338.77734375 423.52734375 C-357.3947577 408.11644398 -368.586806 385.36064642 -374.5 362.375 C-374.67781384 361.74772223 -374.85562767 361.12044447 -375.0388298 360.47415829 C-375.53883257 358.19824158 -375.63162856 356.15702536 -375.64044189 353.82752991 C-375.64615204 352.92052841 -375.65186218 352.01352692 -375.65774536 351.07904053 C-375.65886322 350.09139709 -375.65998108 349.10375366 -375.66113281 348.08618164 C-375.66609772 347.04024338 -375.67106262 345.99430511 -375.67617798 344.91667175 C-375.69078518 341.4561599 -375.69759841 337.99569386 -375.703125 334.53515625 C-375.70887661 332.13146463 -375.71463434 329.72777302 -375.72039795 327.32408142 C-375.73090312 322.28449286 -375.7367493 317.24492024 -375.74023438 312.20532227 C-375.74572518 305.74437698 -375.76976795 299.28364179 -375.79820633 292.82276249 C-375.8168166 287.85826498 -375.8220374 282.89381831 -375.82357025 277.92928886 C-375.82659976 275.5470305 -375.83463827 273.16477309 -375.84775543 270.7825489 C-375.86478563 267.45260662 -375.86294312 264.1231809 -375.85644531 260.79321289 C-375.8656601 259.80759369 -375.87487488 258.82197449 -375.8843689 257.80648804 C-375.85415701 252.870832 -375.80888317 249.33107902 -372.5 245.375 C-367.54570557 241.99157941 -363.78280662 241.14495037 -357.875 240.8125 C-357.16859375 240.76931641 -356.4621875 240.72613281 -355.734375 240.68164062 C-353.98981463 240.57555249 -352.24493303 240.47477111 -350.5 240.375 C-350.9846875 239.82714844 -351.469375 239.27929688 -351.96875 238.71484375 C-368.51019406 219.1514051 -376.09276048 193.41571079 -375.94604492 168.06713867 C-375.9373875 165.78281525 -375.96667138 163.50088433 -375.99804688 161.21679688 C-375.99965597 159.74739657 -375.99908696 158.27799189 -375.99609375 156.80859375 C-375.99794678 155.49947021 -375.9997998 154.19034668 -376.00170898 152.84155273 C-375.42025188 148.82398126 -374.32567882 147.22792365 -371.5 144.375 C-366.03666244 140.49915465 -360.371895 140.95506112 -353.9375 141.0625 C-352.87080078 141.07087891 -351.80410156 141.07925781 -350.70507812 141.08789062 C-343.15171453 141.20282312 -335.89624906 141.75707052 -328.5 143.375 C-328.438125 142.158125 -328.37625 140.94125 -328.3125 139.6875 C-327.369789 131.0528137 -323.42328092 123.02654494 -319.5 115.375 C-318.84 115.375 -318.18 115.375 -317.5 115.375 C-317.5 114.385 -317.5 113.395 -317.5 112.375 C-316.84 112.375 -316.18 112.375 -315.5 112.375 C-315.005 110.395 -315.005 110.395 -314.5 108.375 C-313.84 108.375 -313.18 108.375 -312.5 108.375 C-312.335 107.694375 -312.17 107.01375 -312 106.3125 C-309.81008067 102.02390797 -306.37999001 99.17990944 -302.5 96.375 C-301.84 96.375 -301.18 96.375 -300.5 96.375 C-300.005 94.89 -300.005 94.89 -299.5 93.375 C-298.51 93.375 -297.52 93.375 -296.5 93.375 C-296.5 92.715 -296.5 92.055 -296.5 91.375 C-275.89044944 80.375 -275.89044944 80.375 -266.5 80.375 C-266.39816406 79.36308594 -266.29632813 78.35117188 -266.19140625 77.30859375 C-265.47392373 73.22664515 -264.23927467 70.15605624 -262.4375 66.4375 C-261.88964844 65.29410156 -261.34179688 64.15070313 -260.77734375 62.97265625 C-260.35582031 62.11542969 -259.93429687 61.25820313 -259.5 60.375 C-258.84 60.375 -258.18 60.375 -257.5 60.375 C-257.5 59.385 -257.5 58.395 -257.5 57.375 C-256.84 57.375 -256.18 57.375 -255.5 57.375 C-255.17 56.055 -254.84 54.735 -254.5 53.375 C-253.84 53.375 -253.18 53.375 -252.5 53.375 C-252.2628125 52.63894531 -252.025625 51.90289062 -251.78125 51.14453125 C-250.3023873 47.94784328 -248.65624763 46.35221996 -246 44.0625 C-245.2059375 43.36511719 -244.411875 42.66773438 -243.59375 41.94921875 C-241.5 40.375 -241.5 40.375 -239.5 40.375 C-239.5 39.715 -239.5 39.055 -239.5 38.375 C-236.5149087 36.68056412 -233.5091737 35.02621076 -230.5 33.375 C-229.75363281 32.94445313 -229.00726563 32.51390625 -228.23828125 32.0703125 C-211.81305441 23.09081667 -191.36666563 21.58840717 -173.3125 26 C-152.38145494 32.64514373 -135.9777636 46.17335931 -125.5 65.375 C-120.5 75.12014563 -120.5 75.12014563 -120.5 80.375 C-119.4275 80.436875 -118.355 80.49875 -117.25 80.5625 C-101.16999636 82.62912019 -87.67929518 93.41374072 -76.5 104.375 C-71.30690397 102.43516646 -66.46530683 99.85689922 -61.55859375 97.296875 C-55.64245499 94.27682702 -50.23388709 92.23736892 -43.5 92.375 C-43.77263672 90.97145264 -43.77263672 90.97145264 -44.05078125 89.53955078 C-53.72799407 39.31146417 -53.72799407 39.31146417 -40.37890625 18.71484375 C-38.32020621 16.15109879 -36.1024174 14.37407488 -33.5 12.375 C-32.8709375 11.70855469 -32.241875 11.04210937 -31.59375 10.35546875 C-28.96619077 7.87007224 -26.19388707 6.3760114 -23 4.6875 C-21.8759375 4.08550781 -20.751875 3.48351562 -19.59375 2.86328125 C-13.20505382 -0.21006881 -6.99142645 0.08602426 0 0 Z M-13.203125 36.796875 C-16.75961248 41.12464892 -17.59537037 45.33589062 -17.3359375 50.8828125 C-16.93370678 54.31199985 -16.45076853 57.6983162 -15.87792969 61.1015625 C-15.47551413 63.52229485 -15.11468286 65.94715753 -14.7578125 68.375 C-14.50680067 70.02107694 -14.25422919 71.6669169 -14 73.3125 C-13.88188965 74.10003662 -13.7637793 74.88757324 -13.64208984 75.69897461 C-13.33018548 77.60353272 -12.92359255 79.4921311 -12.5 81.375 C-11.84 81.705 -11.18 82.035 -10.5 82.375 C-10.0560791 81.20928467 -9.6121582 80.04356934 -9.15478516 78.8425293 C-7.50732304 74.51931748 -5.85498813 70.1979819 -4.20117188 65.87719727 C-3.48597213 64.00661246 -2.77209618 62.13552096 -2.05957031 60.26391602 C-1.0353776 57.57434029 -0.00644339 54.88662066 1.0234375 52.19921875 C1.34122162 51.36162521 1.65900574 50.52403168 1.98641968 49.66105652 C2.43666 48.49018242 2.43666 48.49018242 2.89599609 47.2956543 C3.15802826 46.60948532 3.42006042 45.92331635 3.69003296 45.21635437 C4.5 43.375 4.5 43.375 6.5 40.375 C6.5 39.385 6.5 38.395 6.5 37.375 C7.16 37.375 7.82 37.375 8.5 37.375 C8.83 36.385 9.16 35.395 9.5 34.375 C2.22386457 29.52424305 -6.8454669 30.84938839 -13.203125 36.796875 Z M36.5 52.375 C32.78015453 57.29725409 30.726222 62.46061097 28.609375 68.2265625 C28.25989807 69.16301605 27.91042114 70.0994696 27.550354 71.06430054 C26.81722815 73.03463019 26.08794568 75.00639371 25.36230469 76.97949219 C24.24968469 80.00085623 23.12184244 83.01621961 21.9921875 86.03125 C21.28033624 87.95018211 20.56936792 89.86944204 19.859375 91.7890625 C19.52194275 92.69016754 19.1845105 93.59127258 18.83685303 94.51968384 C18.37572113 95.78151993 18.37572113 95.78151993 17.90527344 97.06884766 C17.63309998 97.80575836 17.36092651 98.54266907 17.08050537 99.3019104 C16.32023515 101.65816739 16.32023515 101.65816739 16.5 105.375 C18.79129293 106.68815613 21.0830155 108.00055193 23.375 109.3125 C24.02597656 109.68568359 24.67695313 110.05886719 25.34765625 110.44335938 C28.88746834 112.47633078 28.88746834 112.47633078 32.5 114.375 C32.5 113.715 32.5 113.055 32.5 112.375 C33.16 112.375 33.82 112.375 34.5 112.375 C34.7475 111.7975 34.995 111.22 35.25 110.625 C36.68081368 108.04953538 38.38918881 106.42372851 40.5 104.375 C41.84919532 102.72114767 43.18133728 101.053298 44.5 99.375 C45.28375 98.446875 46.0675 97.51875 46.875 96.5625 C49.41002955 93.5423722 51.74642927 90.39137935 54.0703125 87.20703125 C55.44616923 85.44397986 56.89790235 83.93155999 58.5 82.375 C63.58511827 77.03109709 66.14624172 73.03050222 66.875 65.5 C66.7325027 60.85102545 65.22073262 57.12744774 62.5 53.375 C57.42491666 49.33564796 53.27327111 48.00444309 46.9140625 48.09765625 C42.96007061 48.55191745 39.60848625 49.88554849 36.5 52.375 Z M-225.37890625 70.15234375 C-231.7760574 76.90873016 -234.96161822 84.55932624 -236.90991211 93.55224609 C-239.42829382 105.11432821 -239.42829382 105.11432821 -244.4609375 108.4765625 C-249.18068373 110.55614417 -254.09257708 111.06436478 -259.1640625 111.71875 C-271.85241004 113.62017384 -281.42793511 119.40362573 -289.5 129.375 C-294.24924388 136.31620259 -296.97702601 144.9965209 -297.5 153.375 C-295.61114093 156.25730744 -292.4963302 157.65175172 -289.5625 159.375 C-278.56424025 166.28528225 -267.00375344 176.41387247 -261.5 188.375 C-260.84 188.375 -260.18 188.375 -259.5 188.375 C-258.51 185.405 -258.51 185.405 -257.5 182.375 C-256.84 182.375 -256.18 182.375 -255.5 182.375 C-255.005 180.89 -255.005 180.89 -254.5 179.375 C-253.53118348 178.34475995 -252.52645991 177.34782067 -251.5 176.375 C-250.39064894 175.06687902 -249.28677341 173.75410102 -248.1875 172.4375 C-245.97573886 169.87279825 -243.93255898 167.80228822 -241.0625 166 C-240.216875 165.46375 -239.37125 164.9275 -238.5 164.375 C-238.5 163.715 -238.5 163.055 -238.5 162.375 C-237.81292969 162.12234375 -237.12585938 161.8696875 -236.41796875 161.609375 C-233.70361214 160.46113311 -231.19969143 159.11774308 -228.64233398 157.65893555 C-215.52128938 150.24497639 -201.31106363 145.95810896 -186.5 143.375 C-185.46359375 143.19195312 -184.4271875 143.00890625 -183.359375 142.8203125 C-178.04693324 142.20733845 -172.78138581 142.11128776 -167.4375 142.0625 C-165.84325195 142.01899414 -165.84325195 142.01899414 -164.21679688 141.97460938 C-158.15962551 141.9254256 -154.12281137 142.02623985 -149.5 146.375 C-144.6193676 151.66979588 -144.913703 156.79645297 -145.0625 163.625 C-145.07643799 164.69041016 -145.09037598 165.75582031 -145.10473633 166.85351562 C-145.74275651 194.56894587 -154.87200209 219.20433612 -171.5 241.375 C-162.92 241.375 -154.34 241.375 -145.5 241.375 C-143.71741093 236.62142914 -142.04865571 232.09996042 -140.625 227.26953125 C-131.8727663 198.05459176 -122.34470589 168.02316077 -105.5 142.375 C-103.0082565 138.68376816 -103.0082565 138.68376816 -102.5 134.375 C-101.84 134.375 -101.18 134.375 -100.5 134.375 C-98.30654019 131.71543151 -98.30654019 131.71543151 -98.5625 129.5 C-101.70687914 122.37274062 -110.55663411 116.92526438 -117.5625 114.125 C-123.30905667 112.17197445 -129.10782572 111.52312475 -135.1171875 110.96484375 C-138.59822384 110.35787321 -140.58694048 109.30137807 -143.5 107.375 C-144.16 107.375 -144.82 107.375 -145.5 107.375 C-146.9487462 104.66910248 -147.91188303 102.16443268 -148.61328125 99.1796875 C-152.28233248 84.09138455 -156.1863233 71.46889126 -170.16015625 62.70703125 C-189.49041914 52.76492017 -209.59838772 55.22482622 -225.37890625 70.15234375 Z M95.5 84.375 C94.2178645 86.25766448 94.2178645 86.25766448 92.9375 88.6875 C89.39364018 94.79463707 85.04927362 99.99721629 80.5 105.375 C78.9755125 107.22616339 77.45464062 109.08031062 75.9375 110.9375 C75.2053125 111.83210938 74.473125 112.72671875 73.71875 113.6484375 C70.28470729 117.86844069 66.88860424 122.11846988 63.5 126.375 C65.60762678 127.71581922 65.60762678 127.71581922 68.47753906 126.46630859 C69.7435532 125.9941568 71.00604258 125.51248888 72.265625 125.0234375 C72.93664246 124.76752838 73.60765991 124.51161926 74.29901123 124.24795532 C75.72283585 123.70197202 77.14510307 123.15191283 78.56591797 122.59814453 C80.72235552 121.76073518 82.88588077 120.94414281 85.05078125 120.12890625 C86.43538185 119.59500872 87.8195121 119.05988948 89.203125 118.5234375 C89.84397034 118.28362152 90.48481567 118.04380554 91.14508057 117.79672241 C96.27251278 115.76575713 100.92133775 113.06403632 103.77734375 108.19921875 C105.45348404 102.7740783 105.86639992 98.93169299 104.5 93.375 C102.58213602 89.98677363 100.53501799 86.85819653 97.5 84.375 C96.84 84.375 96.18 84.375 95.5 84.375 Z M-68.08789062 142.68798828 C-72.14031171 147.52931431 -75.3747999 152.90589982 -78.5 158.375 C-78.84998047 158.98682129 -79.19996094 159.59864258 -79.56054688 160.22900391 C-83.64991178 166.48957735 -83.64991178 166.48957735 -85.5 173.375 C-84.89003174 173.70709473 -84.28006348 174.03918945 -83.65161133 174.38134766 C-80.8646915 175.90812958 -78.0886959 177.45381058 -75.3125 179 C-73.87293945 179.78310547 -73.87293945 179.78310547 -72.40429688 180.58203125 C-66.08135359 184.12638008 -60.89443864 187.19168408 -58.5 194.375 C-57.96143067 199.01022786 -58.04821981 202.45406346 -60.125 206.6875 C-63.25326026 210.22737345 -65.83669674 212.96468884 -70.68530273 213.71166992 C-77.7303001 213.94680915 -82.05712703 212.03192304 -87.9375 208.3125 C-89.49336063 207.35455801 -91.05435417 206.4048875 -92.62109375 205.46484375 C-93.63320923 204.82857056 -93.63320923 204.82857056 -94.66577148 204.17944336 C-96.66598397 203.05775428 -96.66598397 203.05775428 -99.5 204.375 C-100.6235147 207.02563499 -101.5509241 209.57743749 -102.41796875 212.3125 C-102.81113029 213.50540649 -102.81113029 213.50540649 -103.2122345 214.72241211 C-104.04860511 217.26974455 -104.86798534 219.82220104 -105.6875 222.375 C-106.25088714 224.09670335 -106.81532713 225.81806256 -107.38085938 227.5390625 C-110.11559766 234.35959296 -110.11559766 234.35959296 -111.5 241.375 C-94.41047686 241.60877953 -77.32145381 241.78502773 -60.23069668 241.89312172 C-52.2947737 241.94465002 -44.35984514 242.01487519 -36.42456055 242.12939453 C-29.50669007 242.22918316 -22.58953975 242.29360828 -15.67096955 242.31588495 C-12.00839664 242.32890479 -8.34788355 242.35941085 -4.68597221 242.43230057 C-0.59368126 242.5130934 3.49504869 242.51489265 7.58813477 242.51025391 C8.79726532 242.54620667 10.00639587 242.58215942 11.25216675 242.61920166 C17.65432935 242.56723084 17.65432935 242.56723084 22.85099602 239.17789841 C26.48602319 234.24115594 26.48602319 234.24115594 27.5 228.375 C28.16 228.375 28.82 228.375 29.5 228.375 C29.974375 227.42625 30.44875 226.4775 30.9375 225.5 C31.79166667 223.79166667 32.64583333 222.08333333 33.5 220.375 C32.82420898 220.00737549 32.14841797 219.63975098 31.45214844 219.26098633 C28.37857739 217.58086956 25.31432763 215.88441261 22.25 214.1875 C21.18652344 213.60935547 20.12304688 213.03121094 19.02734375 212.43554688 C18.00253906 211.86513672 16.97773438 211.29472656 15.921875 210.70703125 C14.97924805 210.18858643 14.03662109 209.6701416 13.06542969 209.13598633 C9.23998611 206.51008944 6.96761723 203.77785169 5.5 199.375 C5.1978212 194.62901528 5.30690465 189.99824448 6.5 185.375 C7.16 185.375 7.82 185.375 8.5 185.375 C9.36625 184.446875 9.36625 184.446875 10.25 183.5 C12.98956852 180.91262973 14.81532899 180.15444964 18.5 179.375 C25.07475851 179.68210125 29.31439274 181.53123683 34.875 184.9375 C39.40609466 188.06073882 39.40609466 188.06073882 44.5 189.375 C45.30090715 176.82745461 42.74389445 166.9585273 34.5 157.375 C33.89671875 156.57449219 33.2934375 155.77398437 32.671875 154.94921875 C24.96290235 145.81214505 13.70312086 139.83346738 3.27734375 134.31640625 C1.74972644 133.50727269 0.23308176 132.67748322 -1.28125 131.84375 C-26.18901203 118.58117541 -49.19586656 121.56860207 -68.08789062 142.68798828 Z M-343.5 174.375 C-341.25745536 190.26952693 -337.72845908 204.58308095 -327.5 217.375 C-326.901875 218.261875 -326.30375 219.14875 -325.6875 220.0625 C-313.2410139 233.22021387 -294.86221199 238.21537952 -277.5 240.375 C-279.73901765 224.50547138 -283.25056838 210.12548909 -293.5 197.375 C-294.221875 196.34375 -294.94375 195.3125 -295.6875 194.25 C-307.48650934 180.77629256 -326.65292973 176.75193813 -343.5 174.375 Z M-220.5 190.375 C-221.8303125 191.2721875 -221.8303125 191.2721875 -223.1875 192.1875 C-236.1057102 204.40742856 -241.59154928 223.19894351 -243.5 240.375 C-229.08495982 238.34119483 -214.39653954 235.29740465 -202.5 226.375 C-202.5 225.715 -202.5 225.055 -202.5 224.375 C-201.7575 224.148125 -201.015 223.92125 -200.25 223.6875 C-196.9574253 222.1160439 -195.52502891 220.37504284 -193.5 217.375 C-193.5 216.715 -193.5 216.055 -193.5 215.375 C-192.84 215.375 -192.18 215.375 -191.5 215.375 C-183.76702976 202.11468333 -179.71924682 189.44061863 -177.5 174.375 C-192.53194202 174.375 -208.90148325 181.3757742 -220.5 190.375 Z M89.5 213.375 C86.42933513 214.92181534 83.37017061 216.49017485 80.3125 218.0625 C79.44818359 218.49755859 78.58386719 218.93261719 77.69335938 219.38085938 C70.5525077 223.07440335 66.00087457 226.83975178 62.1875 234.0625 C61.41986328 235.49142578 61.41986328 235.49142578 60.63671875 236.94921875 C59.3585594 239.23035261 59.3585594 239.23035261 59.5 241.375 C66.43 241.375 73.36 241.375 80.5 241.375 C81.94962778 237.71144157 83.39445257 234.04653108 84.82739258 230.37646484 C85.55732851 228.51320096 86.29523967 226.65306786 87.03320312 224.79296875 C87.48759766 223.62636719 87.94199219 222.45976562 88.41015625 221.2578125 C88.83433838 220.17902832 89.25852051 219.10024414 89.69555664 217.98876953 C90.81346213 215.42648428 90.81346213 215.42648428 89.5 213.375 Z M-344.5 273.375 C-348.53233207 340.01365265 -348.53233207 340.01365265 -321.5 395.375 C-320.95988281 396.00921875 -320.41976562 396.6434375 -319.86328125 397.296875 C-306.11574598 412.39492381 -284.30913049 419.90592391 -264.5 421.375 C-260.4474607 421.5098409 -256.39870163 421.51445428 -252.34417725 421.50871277 C-251.15719718 421.51097833 -249.97021712 421.51324388 -248.74726796 421.51557809 C-245.47902141 421.52078474 -242.21080977 421.52156789 -238.94256043 421.52038372 C-235.40732578 421.52017855 -231.87209914 421.5257094 -228.33686829 421.53044128 C-221.42064007 421.53872338 -214.50442037 421.54149501 -207.58818761 421.54205366 C-201.96259147 421.54252996 -196.33699814 421.5445904 -190.71140289 421.54775429 C-174.73818147 421.55655405 -158.76496675 421.5611747 -142.79174289 421.56042381 C-141.50191756 421.56036388 -141.50191756 421.56036388 -140.18603516 421.56030273 C-138.89462285 421.56024141 -138.89462285 421.56024141 -137.57712141 421.56017885 C-123.62920611 421.55977253 -109.68131782 421.56934034 -95.73341033 421.5834411 C-81.38864681 421.59782787 -67.04389644 421.60471003 -52.69912553 421.60384732 C-44.65493264 421.60351616 -36.61076809 421.60622791 -28.56658173 421.61702538 C-21.71720127 421.62616069 -14.86786199 421.62828083 -8.01847807 421.62151595 C-4.52913621 421.61826604 -1.03987321 421.61813828 2.44946098 421.6268692 C27.99864604 421.67909572 49.63316192 419.95289205 71.5 405.375 C71.5 404.715 71.5 404.055 71.5 403.375 C72.180625 403.21 72.86125 403.045 73.5625 402.875 C77.25866082 400.98759873 79.22728747 398.50663169 81.8515625 395.34375 C83.5 393.375 83.5 393.375 85.9375 391 C87.73103624 389.51044499 87.73103624 389.51044499 87.5 387.375 C88.16 387.375 88.82 387.375 89.5 387.375 C113.25267039 354.79990918 105.5 310.47500078 105.5 273.375 C-43 273.375 -191.5 273.375 -344.5 273.375 Z M-244.5 453.375 C-244.5 462.615 -244.5 471.855 -244.5 481.375 C-162 481.375 -79.5 481.375 5.5 481.375 C5.5 472.135 5.5 462.895 5.5 453.375 C-77 453.375 -159.5 453.375 -244.5 453.375 Z " transform="translate(375.5,-0.375)" style="fill: #000000;"/></svg>