<svg viewBox="0 0 512 512"><path fill="currentColor" d="m246.09375-.37109375 2.27209473-.02735901c1.5798347-.01441522 3.15972792-.02336733 4.73962402-.02708435 2.36176394-.01179919 4.72082426-.06098202 7.08203125-.11157226 26.84427755-.2871506 49.51526591 13.56589477 68.42626953 31.68286132C336.71009161 39.12430607 343.75258844 47.51032836 350 57l2.12890625 3.2265625C354.16815895 63.44307458 356.10316359 66.69753979 358 70l1.08496094 1.87988281C377.1226654 103.46542081 387.5032065 141.55946234 387 178l2.16015625-.10546875c7.73316913-.21856871 12.45607604.33693153 18.58984375 5.35546875 5.69273226 6.95778388 5.68411135 13.3312114 5.61328125 22.015625l.00151062 3.60003662c-.00233653 2.51484854-.01204012 5.02969959-.02861023 7.54449463-.02334573 3.785378-.02058747 7.57003818-.01391602 11.35546875-.01903243 17.12728566-.31726574 34.22931572-4.57226562 50.921875l-.65942383 2.64599609c-6.21455124 24.1130761-17.98480186 46.21554029-35.01635742 64.43603516-1.89901962 2.04207194-3.6725953 4.14498457-5.44921875 6.29296875-4.33369052 4.96132845-9.44082248 8.90459594-14.625 12.9375l-2.8125 2.25390625C336.09615772 378.2627674 319.95103503 386.34965499 303 392c-.08741124 3.56234428-.14052896 7.12441108-.1875 10.6875l-.07617188 3.05273437C302.53354367 412.92227272 302.53354367 412.92227272 306 419c3.00985498 1.00328499 5.75551436 1.28003037 8.90161133 1.54345703C334.80333595 422.29383223 350.75409126 429.82555903 365 444l2.3359375 2.23046875C380.31063748 459.44872112 386.33664936 478.12346115 387.375 496.3125c-.57311502 5.63563098-2.46041155 9.66287593-6.34577942 13.77154446-4.29827912 2.71862398-7.86996037 2.4747692-12.86003113 2.43061924l-3.0216093.02104705c-3.34499307.01831283-6.68928035.00799347-10.0342989-.00226348-2.39654065.00705623-4.79307684.01579999-7.18960571.02610778-5.83578088.02019442-11.67133923.02151353-17.50714517.01337446-4.74289704-.00630019-9.48573721-.00516282-14.22863364.00127207l-2.04565782.00273229a249652.84083863 249652.84083863 0 0 0-4.11417502.00558756c-12.85915532.01657794-25.71820092.00785913-38.57734966-.00898558-11.76547852-.01469922-23.53070171-.00006558-35.29614735.02877017-12.0811729.02938907-24.16222794.04036788-36.24343502.0308178a99638.49863738 99638.49863738 0 0 0-4.09902859-.00298352l-2.03716487-.0014436c-4.73714851-.00216467-9.47418548.0076426-14.21130925.02221463-6.37603567.01831267-12.75159556.01245187-19.12760544-.0121994-2.34255992-.00502159-4.68515582-.00148344-7.02768707.01114845-3.19306073.01585873-6.38454091.00104616-9.57752609-.02167129l-2.82247448.03586584c-4.51699255-.06548661-6.38407367-.16333314-10.01338673-3.0744105L129 507l-1.75-2.0625c-4.38224541-6.79248038-2.08425229-17.35526512-.46484375-24.90625C128.67994073 472.48279686 131.20294353 465.78045798 135 459c.67306914-1.33011283 1.34180067-2.6624665 2-4h2v-3h2l.5625-2.125c1.70492778-3.40985556 3.70389704-5.03465228 6.63671875-7.390625 2.0211476-1.60604571 2.0211476-1.60604571 4.42578125-4.234375 2.40403015-2.27750224 4.2439949-3.26596982 7.375-4.25v-2c13.03314603-6.58127658 25.4671035-11.24169144 40.29296875-11.7265625C203.09602737 419.99030027 204.69505129 419.60477582 207 418c1.96568978-3.13583688 2.23793613-5.53749289 2.1953125-9.203125l-.01953125-2.96875L209.125 402.75l-.02734375-3.125c-.02353614-2.54190287-.05641602-5.0833328-.09765625-7.625l-3.7421875-1.3984375c-20.41970974-7.79547193-37.91367275-17.6544961-54.0234375-32.55859375-1.88388198-1.72250048-3.80572131-3.32413242-5.796875-4.91796875-4.81499345-4.10458458-8.55789083-9.15936195-12.4375-14.125l-2.22265625-2.74609375c-26.26515651-33.39890272-31.96545799-72.26019761-31.96264648-113.56958008-.00220692-3.6377295-.02047632-7.27516489-.03930665-10.9128418-.00293106-2.32877501-.00491777-4.65755145-.00585937-6.98632812l-.02177429-3.27049255C98.76463832 195.94328772 99.12383959 191.26040617 101 186h2l.6875-1.8125c1.93465045-3.22441742 4.57315461-4.6303071 8.1171875-5.765625 2.68758683-.51647576 5.21021862-.51693564 7.9453125-.484375l2.984375.02734375L125 178l.078125-3.71484375c.9972658-33.98735402 8.37640072-73.99703457 27.93701172-102.71459961C154.18229699 69.84659616 154.18229699 69.84659616 155 67h2c1.07525194-2.65228812 2.09456151-5.28368454 3-8h2v-3h2l.875-2.3125C166 51 166 51 168 48h2l.3125-1.9375L171 44l3-1 .9140625-2.3125c1.29542925-3.20595441 2.80977086-4.50315008 5.4609375-6.6875 2.62612987-2.22340069 4.74511847-4.15348471 6.875-6.875 2.03595944-2.47223646 3.72187033-3.19973816 6.75-4.125v-2c2.61678442-2.16093789 5.56706284-3.88331965 8.4375-5.6875l2.58911133-1.63037109C217.5055788 6.02314102 231.23355292-.25659102 246.09375-.37109375Zm-41.41015625 55.59375C190.88424544 69.50407786 180.70237287 86.79439139 173 105l-.92529297 2.18066406C162.74414067 129.64775125 158 153.7190162 158 178h196c0-45.1267876-16.50901551-91.21062414-48-124-13.61146156-13.4050233-30.32399403-22.19751464-49.6015625-23.02734375-20.38302842.16400138-37.25833407 10.63276519-51.71484375 24.25ZM132 211v27h248v-27H132Zm4 60c.75545857 5.28820999 1.69165798 9.60787317 3.5625 14.5l.79760742 2.09082031c12.17113932 30.94775652 36.03430139 55.31570475 66.39379883 68.65917969C236.62854437 368.81734151 270.70796721 369.91919629 301 358c14.89025201-6.00619745 14.89025201-6.00619745 28-15v-2l4-1v-2l2.21875-.69921875c3.31008873-1.54811734 4.91996427-3.3404334 7.28125-6.11328125 4.86441201-5.62777549 4.86441201-5.62777549 7.5625-8.1875 2.16943174-1.77531613 2.16943174-1.77531613 1.9375-4h2l1-4h2c8.7035452-10.89119305 19-29.97932895 19-44H136Zm106 127-.25 10.8125c-.53400703 14.22066665-3.29779034 24.11875543-13.81640625 34.16015625-8.88109928 7.48300136-18.08538391 9.19317523-29.30053711 10.25048828-11.59779699 1.16893104-21.6049727 5.36279252-29.70727539 13.98388672C165.22583234 471.76021786 163.39707977 475.40681386 161 481h190c-6.49067606-12.98135211-12.55957914-20.45289296-26-25.75-4.54442917-1.39890791-9.16433505-1.73521052-13.875-2.1875-13.76318813-1.35198035-23.85598828-5.53423025-32.9375-16.3125-8.59418505-12.00394292-7.85619218-24.42093685-8.1875-38.75h-28Z"/></svg>