<svg viewBox="0 0 512 512"><path fill="currentColor" d="M52 0h333l-9 19-2.92675781 6.04296875-1.26737976 2.58566284L370.546875 30.1875l-1.40412903 2.86184692-1.45549011 2.96676636-1.45706177 2.96685791L364.75 42l-1.51657104 3.10150146-1.52810669 3.12847901-1.52137757 3.11380005-1.50816345 3.08590698-1.48777771 3.04318237-1.45118713 2.96365357-1.40472412 2.8626709L353 66l-1.21881104 2.44299316-1.13909912 2.2689209-1.07894897 2.1428833-1.02017212 2.02801514-.96768188 1.94158936-.92001343 1.85137939-.87316895 1.76025391L344.9375 82.125l-.8470459 1.64501953-.81213379 1.57763672-1.43847656 2.91015625-1.23852539 2.44189453L340 93l.8203125 2.65332031L342 98l1.03515625 2.2890625L344.0625 102.625l1.05078125 2.59375L346 108l.48046875 3.09375L346.75 114.125l.171875 2.8203125L347 119l1.546875-.140625L350.75 118.75l2.4921875.01171875L356 119l2.8828125.64453125L361.875 120.5625l3.06640625 1.109375L368 123l2.96484375 1.578125L373.8125 126.3125l2.72265625 1.84765625L379 130l1.99609375 1.62109375L382.75 133.25l1.6171875 1.7265625L386 137l1.9453125 2.7109375L389.875 142.625l1.7421875 2.7265625L393 148l.6953125 2.8359375L394 153l3.41015625-.10546875 2.22753906-.04833984L402.0625 152.8125l2.47558594-.01025391 2.51269531.02197266 2.53369141.06005859L412 153l2.09912109.19775391 1.94384766.25927734 1.87695313.30957031L419.75 154.125l1.84179688.40136719 1.82617187.44628906 1.79833984.49267578L427 156l1.77978516.56982422 1.77099609.61376953 1.76220703.66503906L434.0625 158.5625l1.72607422.75683594 1.72314453.81738281 1.72802734.88427734L441 162l1.84228516 1.12353516 1.86474609 1.20849609 1.84643555 1.25244141L448.375 166.875l1.78833008 1.32177734 1.71948242 1.31494141 1.63378906 1.29052734L455 172l2.3046875 1.89453125L459.25 175.6875l1.81640625 1.9375L463 180l1.21826172 1.59765625L465.52734375 183.375l1.32910156 1.87207031L468.1875 187.1875l1.29589844 1.95605469 1.24707031 1.96582031 1.18896484 1.96679688L473 195l.89697266 1.82226562.77880859 1.75585938.69750977 1.70336914L476 201.9375l1.109375 3.19921875L478 208l.703125 2.26953125L479.25 212.25l.3755188 1.76599121L480 216l.287323 1.76696777.25125122 1.95764161.25628662 2.40600585L481 225l.05722809 1.68374634.03609466 1.8164978.02327156 1.91977692.01280022 2.01161956.00741387 2.08260346.00213813 2.1523819-.00265121 2.21809387-.00348282 2.27153015.00100327 2.31144714.0018959 2.35102845.00108147 2.3879013-.00007439 2.41837311-.00277519 2.44297028-.00357247 2.46327972-.00341797 2.4777832L481.125 260.5l.00195312 2.5065918.00341797 2.50512695.00357247 2.49185944.00277519 2.46517181.00007439 2.4189682-.00108147 2.37924957-.0018959 2.33586121-.00100327 2.30342102.00348282 2.2993927.00265121 2.23930359-.00424194 2.1329956-.00531006 2.02557373.00613403 1.92974854-.00854492 1.74957275L481 295l-1 1-2.94335938.12939453-1.87072753.009552-2.02966309-.00613403-2.0736084.00289917-2.14123535.00100708-2.20654297-.00634766L464.5 296.125l-2.23486328.00537109-2.20654297.00634766-2.14123535-.00100708-2.0736084-.00289917-2.02966309.00613403-1.87072753-.009552L449 296l-1-1-.13803101-2.73493958-.01652526-1.76193237-.00315857-1.94380188-.01539612-2.04052734-.0157013-2.14936829-.01041793-2.25728798-.01170731-2.31917381-.01930618-2.32550621-.02210617-2.35947609-.02228737-2.40376568-.02223778-2.44445515-.0209713-2.49190235-.02004432-2.51859569-.01947022-2.53137207L447.625 260.1875l-.01373291-2.50891113-.01263428-2.49377442-.0128994-2.47929859-.01542091-2.46137524-.022089-2.44363689-.02445031-2.41566181-.02589798-2.38033104-.02131271-2.33654213-.00474167-2.28086281-.00511551-2.22812462-.01777076-2.17536449-.03243065-2.11960316-.04862023-2.06231403-.078516-2.0005827-.11498261-1.93475723L447 224l-.27204132-1.79580307-.33031464-1.71991348-.7555542-3.19400025-.7340393-2.73246765L444 212l-1.37753296-2.83430481L441.25 206.6875l-1.6015625-2.44140625L438 202l-1.5234375-1.96484375L434.875 198.25l-1.78125-1.65625L431 195l-2.65625-1.65625L425.375 191.75l-3.0859375-1.4609375-1.60839844-.67089844L419 189l-1.81347656-.54785156-1.85058594-.49121094-1.81396484-.44042969L411.75 187.125l-3.328125-.6796875L406 186l.953125 2.796875.62207031 1.87695312L408.25 192.75l.68261719 2.13867188L409.625 197.140625l.69921875 2.37695312L411 202l.61328125 2.59179688.57421875 2.64257812.54589844 2.65332031L413.25 212.5l.49316406 2.49511719.45996094 2.41113281.39550781 2.10351562L415 222l.54150391 3.35180664.25500488 2.10488892L416 230l.09313965 3.21347046.02335167 1.77793026.01290321 1.86773014.00742531 1.93292332.00212669 1.99894619-.00265121 2.06200981-.00348282 2.11183357.00100327 2.14706612.0018959 2.18339347.00108147 2.21789647-.00007439 2.24656581-.00277519 2.27031613-.00357247 2.28949833-.00341797 2.30297851L416.125 262.9375l.00195312 2.32861328.00341797 2.3269043.00357247 2.31450558.00277519 2.28974246.00007439 2.24708653-.00108147 2.21032619-.0018959 2.17012215-.00100327 2.14004326.00348282 2.1362133.00265121 2.08056832-.00424194 1.98234558-.00531006 1.88265991-.00241089 3.41929626L416 295l-1 1-2.8515625.12939453-1.81005859.009552L408.375 296.1328125l-2.00634766.00289917-2.07177734.00100708-2.13476562-.00634766L400 296.125l-2.16210938.00537109-2.13476562.00634766-2.07177734-.00100708L391.625 296.1328125l-1.96337891.00613403-1.81005859-.009552L385 296l-1-1-.14476013-1.9151001-.02882385-2.54681396-.0408783-2.88848877-.03163147-3.16522217-.04859924-3.27508545-.05101013-3.4006958-.02395535-1.75139236-.0231638-1.76862717-.02282714-1.77484131L383.5625 270.75l-.03930664-3.43115234-.04077148-3.39306641-.04776001-3.38391113-.05575562-3.36999512-.06381226-3.37487793-.08023071-3.33801269-.10076904-3.27368165L383 244l-.18878174-3.06030273-.22186279-2.94555665-.24562073-2.84442138-.25389099-2.69659424-.23130798-2.46856689-.24549866-2.3546753-.26956177-2.28259277L381 223l-.51412964-2.6685791-.55398559-2.67224121-.53269959-2.41339112L379 213l-.0582428-2.29119873L379 209l-1.984375 1.390625L374.25 212.25l-1.50048828.96508789-1.55419922.96069336-1.60449219.94775391L368 216l-2.9453125 1.35546875L362.125 218.4375l-2.9765625.91796875L356 220l-1.79589844.15869141-1.85253906.07958984-1.82080078.02758789L348.75 220.25l-3.328125-.109375L343 220l.140625 1.80078125L343.25 224.3125v2.75L343 230l-.75 2.9375-1 2.875-1.08203125 2.79296875L339 241l-1.26171875 1.48828125L336.5625 243.625 335 246l.36825562 1.86669922.79336547 2.18798828.87835694 2.43896484L338 255l.89508057 2.29931641.91986084 2.29443359.98779297 2.3926239L341.8515625 264.5l1.12451172 2.71638489 1.17871094 2.84538269 1.21856689 2.92959595L346.625 276l1.27459717 3.07333374 1.29327392 3.12075806 1.30526734 3.14863586 1.31436157 3.16899109 1.32485962 3.19010925 1.31576538 3.16682434 1.29589844 3.11907959L357 301l1.16503906 2.80914307 1.11621094 2.69329834 1.08879089 2.62782287 1.06745911 2.57676697 1.06025696 2.55906677 1.05033874 2.53492737 1.04019165 2.51028442L365.625 321.8125l1.04086304 2.50973511 1.04190063 2.51150512 1.04255676 2.51280213 1.04264832 2.51283264 1.03935242 2.50489807 1.04414367 2.51658631 1.05267334 2.53735351L374 342l1.10601807 2.66772461 1.12298584 2.70922851 1.12887573 2.72373963 1.13040161 2.72743225 1.12380981 2.71095276 1.11740113 2.69554138 1.10974121 2.67727661L382.9375 363.5625l1.08312988 2.6166687 1.06628418 2.57644653 1.04690552 2.52845765 1.02633667 2.47764587 1.006073 2.42796326.97879028 2.35865783.9475708 2.27874756L391 383l.85272217 2.0244751.81085205 1.91546631.77619934 1.82853698.74382019 1.75105286.71684265 1.69404602.68769837 1.62602234L396.875 396.875l1.17163086 2.71313477 1.07055664 2.52905273.97558594 2.41308594L401 407l.88378906 2.82128906.81152344 2.87402344.71655273 2.77929688L404 418l.39477539 1.95507812.27319336 1.70898438L405 425l.13525391 1.94824219.10302734 2.07519531.0546875 2.12744141L405.3125 433.375v2.36865234l-.04296875 2.42822266-.09912109 2.43945312L405 443l-.26806641 2.23242188-.34521484 2.15820312-.41186523 2.12841797L403.5 451.625l-.52758789 2.10986328-.58959961 2.10107422-.65527344 2.08496094L401 460l-.81347656 2.08691406-.88183594 2.07714844-.93896484 2.0559082L397.375 468.25l-1.03369141 1.99682617-1.07568359 1.96020508-1.11523438 1.92041016L393 476l-1.18164062 1.81396484-1.20898438 1.76025391-1.23095703 1.70727539L388.125 482.9375l-1.28076172 1.61108398-1.28955078 1.55297852-1.29003906 1.48925781L383 489l-2.3671875 2.5234375L378.25 493.8125l-2.49609375 2.12890625L373 498l-1.59423828 1.07373047-1.69091797 1.07861328-1.74560547 1.06103516L366.1875 502.25l-1.78173828.99755859-1.79248047.95947266-1.80224609.92041016L359 506l-1.83056641.81396484-1.81396484.76025391-1.7722168.70800781L351.875 508.9375l-3.1328125 1.15234375L346 511l-1.90117425.54832137L342 512l-2.06971723.12995183-2.25368231.00706256-2.61392671.0153774-2.85779399.00150836-3.04713696.01327955-3.22720081.01278246-3.39459228.00653457-1.74698794.00286413-1.77065122.00351023-1.78212583.00543285-1.80177272.00627064-1.82561133.00649278-1.84920289.00658401-1.87430855.00631757-1.8983225.00611572-1.92111223.0059413-1.94581361.00552067-1.97412713.00475416-1.99611501.00431409-2.0134929.00406905-2.02933602.00387244-2.0434663.00378243-2.05352071.00371297-2.06115415.00365966-2.06210992.00372607-2.05260465.0039683-2.05202844.0040583-2.05649788.00406265-2.06215661.0040431-2.07095995.00396402-2.07894305.0039063-2.08662864.00385507-2.09589062.00378899-2.1071432.00371234-2.11685564.0036294-2.12582743.00353444-2.13439137.0034461-2.1419144.0033794-2.15059599.00325555-2.15969454.00310877-2.16997696.00288102-2.18256833.00250909-2.19220148.00230387-2.1999323.00219985-2.20680443.00214819-2.21228386.00218997-2.21746307.00220968-2.22219328.00223844-2.22597708.00226732-2.22871455.00226076-2.23130284.00236992-2.23353348.00257842-2.23534318.00280066-2.23690872.0030103-2.23758621.00339839-2.23760128.00387192L218.6875 512.375l-2.23451328.00580215-2.23273373.00652695-2.23103355.00697258-2.22902657.00730965-2.22684274.00743726-2.22434839.00758847-2.22149708.00771852-2.21860818.00777333-2.21588776.00777058-2.21219214.0076936-2.20770837.00753043-2.20283191.00734558-2.19757344.00718328-2.19149481.00680212-2.18485917.00630876-2.177052.00551799-2.16750287.00423053-2.15910806.00342867-2.15123877.00290494-2.14351394.00250692-2.13637185.00236584-2.12844045.00210916-2.12013898.00183849-2.1111625.00151999-2.1009393.00103517-2.0920612.00089185-2.08420899.00103397-2.07606772.00117796-2.06729913.0012381-2.06057119.00184084-2.05455467.00268036-2.05189851.00435346-2.0552564.00746435-2.05136463.00899941-2.04288981.00951163-2.03242924.00980266-2.01861497.00972028-2.00432149.00907163-1.9891202.00812945-1.97185104.00599566-1.95236258.0019485-1.93242057-.00022688-1.91156944-.00110988-1.88986567-.00216814-1.86779306-.00355609-1.84335997-.00318829-1.81732738-.00221372-1.788643.00187802-3.48167801.02598954-3.36307907.0237236-3.24443758.0001862-3.12389433-.02539372-3.00625575-.05072141-2.8741554-.10420489-2.73364091-.17038393L94 512l-2.39743781-.47330427-2.23695207-.58008242-2.09427851-.63877332-1.93336469-.66852725a86092998.6727862 86092998.6727862 0 0 1-1.73833686-.6431719l-1.60874242-.64824617L79 507l-3.13733387-1.47525978L73.1875 504.1875l-2.640625-1.53515625L68 501l-2.546875-1.80859375L62.9375 497.25l-2.46484375-2.06640625L58 493l-2.56640625-2.27734375-1.28393555-1.1875L52.875 488.3125l-1.25708008-1.2578125-1.23510742-1.30078125-1.20996094-1.34716797L48 483l-1.11816406-1.48876953-1.07714844-1.54638672-1.04394531-1.59008789L43.75 476.75l-.97949219-1.64233398L41.8203125 473.4375l-.92089844-1.69921875L40 470l-.89160156-1.80078125L38.2421875 466.375l-.82836914-1.81860352L36.625 462.75l-.74780273-1.78881836-.69360352-1.73852539L34 456l-.77734375-2.56640625L32.6875 451.1875l-.38671875-2.11328125L32 447l-.33203125-2.23046875L31.375 442.5l-.21484375-2.26953125L31 438l-.12890625-2.07421875L30.8125 433.8125l.04296875-2.26171875L31 429l.23828125-3.08203125L31.625 422.5l.2505188-1.70854187.30465698-1.78242493.37464905-1.99394226L33 415l.5243988-1.83674622.59498597-1.82341003.66023254-1.89733887.72428894-2.00500488.78593445-2.1973877.84590149-2.32409668.90344238-2.41479492L39 398l1.01989746-2.56958008 1.07092285-2.64331054 1.1162262-2.71888733 1.15623474-2.78697205 1.18882751-2.84642029 1.22206116-2.91114807 1.25302124-2.97360229L48.3125 375.5l1.32363892-3.15628052 1.34555053-3.21310425.67633725-1.61497974.67804813-1.61889172.67918587-1.6215496.6800518-1.62285042.68144035-1.62433052.67987252-1.61994743 1.34669494-3.20933533 1.32287598-3.15509033L59 350l1.18395996-2.84051514 1.13146973-2.72149658 1.10058593-2.65112305 1.07617188-2.59545898 1.06640625-2.57299805 1.05371094-2.54370117 1.04089355-2.51409912L67.6875 329.0625l1.03430176-2.49615479 1.03308105-2.49261474 1.03295899-2.49243164 1.0324707-2.49145508 1.02856445-2.48266602 1.03491211-2.49829101 1.04602051-2.52520752L76 309l1.11706543-2.69696045 1.13977051-2.75177002 1.14707947-2.7693634 1.15077209-2.77799988 1.14796448-2.77055359 1.13841247-2.74726868 1.12515259-2.7151184L85.0625 287.125l1.04281616-2.51876831 1.01260376-2.4458313.99842835-2.40837097.98130798-2.36921692.95896912-2.3285675.95948791-2.32279969.96759033-2.32897949L93 268l1.13739014-2.59387207 1.17071533-2.64538574 1.14024353-2.60891724 1.11024475-2.53463745 1.08888245-2.39572144.97923278-2.24929809.8263855-2.09698486L101 249l-.16772461-2.87060547L100 244l-1.875-2.6875-1.0703125-1.5390625L96 238l-.9296875-2.1484375L94.25 233.4375l-.703125-2.6171875L93 228l-.359375-3.0078125L92.5 221.8125l.109375-3.38671875L93 215l.703125-3.14453125.484375-1.64135742L94.75 208.5l.609375-1.7746582.71875-1.9519043.84960938-2.17675781L98 200l.69555664-1.60632324.76733398-1.74816895.80963135-1.83331299.83685303-1.89813232.83636475-1.92498779.84429931-1.94805909.85070801-1.96362304L104.5 185.125l.88171387-1.90844727.86730957-1.87475585.82356262-1.83877564.77116394-1.80770874.7129364-1.79769897.61689758-1.736969L110 171l-.06225586-2.35205078-.62133789-2.08544922-.98193359-2.10888672L107 162l-.78863525-1.60894775-.85443116-1.77825928-.90847778-1.87088013-.95236206-1.93722534-.98434448-1.94625854-1.00979615-1.97171021-1.0270996-1.99853516L99.4375 146.875l-1.04272461-2.02392578-1.03344727-2.01123047-1.01145935-1.98703003-.97877502-1.92312622-.9344635-1.79348755-.88023377-1.73043823-.81726074-1.69114685L92 132l-.64147949-1.86317444-.54821778-1.84849548L90 125l-.21588135-1.86465454-.12005615-1.67831421-.04370117-1.79760742L89.625 117.8125l.00268555-1.9543457.0480957-1.9831543.11572266-1.96484375L90 110l.35302734-1.79296875L90.79296875 106.5 91.8125 103.3125l1.01953125-2.82421875L94 98l1.71630859-1.79638672L97 94l-.71557617-2.64233398a558604104.3328289 558604104.3328289 0 0 0-1.57739258-3.10375977l-.87539673-1.76702881-.93832397-1.88409424-1.02114868-1.98324585L90.8125 80.5625l-1.04672241-2.08462524-1.07510376-2.15682984-1.12742615-2.25874328A720227860.471319 720227860.471319 0 0 1 86.3828125 71.703125l-1.23988342-2.45744324-1.30601502-2.58747864-1.3729248-2.72875976L81 61l-.78504944-1.5866394-.81175232-1.64749146-.8307352-1.69009495-.8468771-1.72616481-.85797787-1.75032712-.86795902-1.7723627-.87656975-1.79153252-.8808918-1.80101204-.87971687-1.79812813-.88079644-1.80039787-.88267421-1.80447292-.88342381-1.8062296-.88353824-1.80695438-.88297177-1.80562496-.88125992-1.80159378L67.1875 32.8125l-.88152695-1.7987175-.87735367-1.78889847-.86932373-1.77176857-.8588562-1.74974632-.84512329-1.72128868-.83001709-1.69014931-.81318283-1.65552521-.79414749-1.61687469-1.52285767-3.10223389-1.42172241-2.89459228-1.30581665-2.66342163L55 8l-1.00131226-1.94351196-.83731079-1.62020874L52 2V0Zm51 31 9 19 3.6875 7.7265625a560330786.3354951 560330786.3354951 0 0 0 1.67578125 3.4921875l.81494141 1.6953125L119 64.625l.86474609 1.80761719.86572266 1.80957031.83911133 1.74667358L122.375 71.6640625l1.4609375 3.04541016L125 77l1 1 2.97874165.19567394 1.93642073.05462188 2.14765805.04491597 2.26619643.0581792 2.40244371.05984754 2.5406971.0558815 2.63335991.05700302 2.67233658.06261253 2.73760605.06438637 2.81194531.06396067 2.88426745.06311452 2.96625197.06110132 3.0222677.0591284 3.0629046.0571878 3.08143401.05410409 3.06390166.04929757 3.07285333.0462625 3.09585494.04423839 3.12009698.04277295 3.15160876.04240054 3.17908258.04143602 3.20355642.04039824 3.23218596.03889692 3.26751101.03621804 3.29221665.03560794 3.3097151.03666466 3.32367247.03774959 3.3325097.03844529 3.33887702.04206008 3.34269714.04694367L217.8125 79.6875l3.33457947.07369232 3.32826233.08237457 3.32119149.08547003 3.31259757.0873205 3.30358201.08706254 3.29050845.08380824 3.27454817.07897604 3.25465239.06778014 3.22912538.04640924 3.20579874.03489435 3.18367606.03016108 3.15891141.02447588 3.13057822.01704627 3.10622865.01877564 3.08206916.02364183 3.06572175.04483008 3.06479096.09495521 3.04123664.11037278 3.00329298.10465294 2.95606333.08715957 2.89386517.0490045 2.83432525.01637655 2.77210939-.01820409 2.71092761-.05100691 2.65796912-.07268679 2.58076703-.12435472 2.48329264-.20122391 2.3821277-.28133053 2.28159183-.35847944 2.14782483-.479415 1.9976697-.62111712L311 78l1.5140605-1.14851713 1.31491518-1.35181475 1.16586071-1.48395544 1.03626102-1.59246439.94511599-1.65596336.84706217-1.71244007.75145185-1.75953043.66623938-1.7687031.58604967-1.72805655.52442873-1.71372831.48148864-1.71033377.44323498-1.70327383.80444908-3.3853054L323 52l1.41036415-3.13834572 1.54430199-2.92191124 1.42706012-2.56348133L328.75 41l1.3520155-2.4725523L331.234375 36.4375l1.03808594-1.87890625L333 33v-2H103Zm23 80-1.93626499 1.32194233L123 114l-.39038086 3.22314453.08572388 1.86334229L123 121l.58712769 1.81048584.77395629 1.81402588.9002533 1.86935425.98475647 1.93582153 1.00172424 2.04788208 1.03538513 2.10836792 1.07055665 2.13183594L130.4375 136.875l1.07836914 2.18945312 1.06420898 2.16992188 1.03639222 2.10232544 1.00462341 2.03048706.97862244 1.97262573.90980529 1.81204224L138 152l1 1 2.57548332.18729401 1.66384018.04901552 1.84316551.03871488 1.94660008.05176497 2.06348598.05312395 2.18128014.04883194 2.26081276.04977035 2.29504204.05533982 2.351305.05705643 2.41509176.05659961 2.4771049.05573559 2.54720569.05366802 2.59524655.05181599 2.63020849.05008888 2.6463151.04743004 2.63169718.04340172 2.6396079.04081154 2.6594621.03904295 2.68034732.03775453 2.70739258.03739214 2.73099434.03651381 2.75202584.03557491 2.77659774.0341959 2.80689216.03173161 2.82806992.03114223 2.84304989.03205538 2.85499584.03300047 2.86257088.03361463 2.86795891.03681994 2.87113189.04115295L217.875 154.5l2.86360931.06492615 2.85800934.07264709 2.85188115.07540655 2.84446895.07705927 2.83673179.0768342 2.8255893.07396079 2.81200767.06969165 2.79520249.0597868 2.77381539.04087353 2.75406432.03068256 2.73517025.02649164 2.71403134.02145911 2.68987572.01488638 2.66889274.01640939 2.64798594.02070427 2.6333518.03943062 2.63118505.08374214 2.61051035.09736443 2.578035.09229231 2.5379051.07682085 2.48548639.04310274 2.43516981.01423216 2.3825953-.01637745 2.33081222-.04547406 2.28570533-.06484508 2.22068619-.11059284 2.13900984-.17851973 2.05424463-.24931383 1.96991981-.3175168 1.85835015-.42427397 1.73330975-.54932785L298 153l2.50089264-2.20767212 1.9781723-2.71640015 1.63238716-2.97608184 1.31481743-3.11742401 1.05125237-3.03777314.88725471-3.01703644.76831436-2.99855041L309 130l1.32378769-2.83860779 1.40347671-2.66029358 1.31072808-2.34423065L314 120l.16938972-2.09381866L313.9375 116 313 113l-2-2-3.12692928-.25447559-1.95927328-.01767332-2.15743452.0114525-2.2880283-.01159257-2.42419094-.00987655-2.55663109.00337982-2.64937782.00412751-2.69373703-.0064373-2.76045609-.00905037-2.83419335-.00769079-2.905568-.00570643-2.98523128-.00079215-3.03995908.00117934-3.07986521.00157333-3.09771848.00080132-3.0797894-.00229621-3.08822703-.00349259-3.11065251-.00361795-3.13443226-.00357848a428561103.4261526 428561103.4261526 0 0 1-3.16562837-.00299722l-3.19262606-.00247592-3.21662247-.00201547-3.24444377-.00101053-3.27830589.00084245-3.30251897.00172388-3.32026046.00195569-3.33451039.00206977-3.34358126.00201017-3.35124296.00146884-3.35682678.00069427L218.5625 110.6875l-3.3585968-.0042038-3.35551453-.005867-3.34963518-.00657004-3.34177107-.0070408-3.33268398-.00706226-3.31851441-.0067746-3.30091273-.00630725-3.27713692-.00500237-3.24416554-.00240171-3.21682632-.00099624-3.19304365-.00038796-3.16629225.00032216-3.1353851.00118572-3.11159557.00109738-3.08906484.00069642-3.07995486-.0014689-3.09620547-.0067637-3.07789541-.00827574-3.03815066-.00786269-2.98438847-.0050062-2.9071914.00241054-2.8368119.00540196-2.76375961.00746727-2.69574356.00359536-2.64610863-.01221848-2.55376625-.01094436-2.42800862.00921183-2.29275554.01204366-2.15067476-.02234632-1.96717555.02183801L126 111Zm217 40-1.7578125.53515625L339.4375 152.25l-1.76953125.84375L336 154l-2.75 1.75L331 158l-.97265625 1.49609375L329.1875 161.1875l-.6796875 1.828125L328 165l-.3203125 2.171875-.1171875 2.265625.0859375 2.2890625L328 174l.7265625 2.2109375.9609375 2.1015625 1.11328125 1.96484375L332 182l2.375 2.375L337 186l2.6875 1.3125L343 188l2.32421875.10546875L347.875 188l2.58984375-.33203125L353 187l2.31640625-1.19921875L357.4375 184.3125l1.93359375-1.66015625L361 181l2-2.625.59765625-1.4765625L364 175l.30859375-2.8359375L364.4375 169l-.0859375-3.15625L364 163l-.7265625-1.96875L362.3125 159.5 360 157l-2.375-2.25L355 153l-2.9375-1.25L349 151l-2.9375-.3125L343 151Zm-203 35-1.17892218 1.26322389-.99969339 1.54801917-.87098014 1.68972331-.74773705 1.76754254-.63438046 1.72687167-.55829037 1.70692521L134 199l-1.24093819 2.86212444-1.09499931 2.31756306-1.03515625 2.375L129.625 208.875l-1.07421875 2.390625-1.01171875 2.3515625-.87402344 2.24511719L126 218l-.32910156 2.02050781-.08496094 1.86230469L126 225l1.08224487 1.67143536L129 228l3.14065552.37473011 1.89141655.02183801 2.06607246-.02234632 2.20399666.01204366 2.33390617.00921183 2.45401764-.01094436 2.5427475-.01221848 2.59108734.00359536 2.65665436.00746727 2.72685242.00540196 2.79444885.00241054 2.86842346-.0050062 2.92008972-.00786269 2.95839691-.00827574 2.97623444-.0067637 2.96109772-.0014689 2.97011566.00069642 2.99190712.00109738 3.01486778.00118572 3.04457665.00032216 3.07032203-.00038796 3.09321976-.00099624 3.11951828-.00240171 3.15122604-.00500237 3.17406083-.00630725 3.19092369-.0067746 3.20449256-.00706226 3.21320534-.0070408 3.22063256-.00657004 3.22610473-.005867L218 228.3125l3.22872925-.00099945 3.22610473.00069427 3.22063256.00146884 3.21320534.00201017 3.20449256.00206977 3.19092369.00195569 3.17406083.00172388 3.15122604.00084245 3.11951828-.00101053 3.09321976-.00201547 3.07032203-.00247592 3.04457665-.00299722 3.01486778-.00357848 2.99190712-.00361795 2.97011566-.00349259 2.96109772-.00229621 2.97623444.00080132 2.95839691.00157333 2.92008972.00117934 2.86842346-.00079215 2.79444885-.00570643 2.72685242-.00769079 2.65665436-.00905037 2.59108734-.0064373 2.5427475.00412751 2.45401764.00337982 2.33390617-.00987655 2.20399666-.01159257 2.06607246.0114525 1.89141655-.01767332L307 228l1.88113403-.64129353L310 226l.87280273-2.62353516L311 220l-.46578979-1.84832764-.70584107-1.95391845-.84959412-2.06137085-.94361877-2.15982056-.94593811-2.26113892-.97789002-2.32870483-1.01733398-2.36572266L304.0625 202.625l-1.02612305-2.42822266-1.01098633-2.40380859-.97889709-2.32266235-.94883728-2.2437439-.93748474-2.19662476-.85914612-2.00405883L297 186l-2.43516731-.03631306-3.48478508-.05116558-1.9299525-.02779501-2.0468694-.02913553-2.17041588-.0305481-2.24970436-.03134155-2.27837181-.03151512-2.33275795-.03176308-2.39647937-.0318979-2.45872998-.03197539-2.53049016-.03221094-2.57864452-.03168714-2.61290979-.03076196-2.62753439-.02892089-2.60992575-.0255487-2.61620569-.02362084-2.63520801-.02251357-2.65547574-.02174646-2.68244659-.02170306-2.70582664-.02132958-2.72661186-.02090109-2.75111222-.02037107-2.78148675-.01944125-2.80278945-.01935137-2.817999-.01997357-2.83014668-.02057952-2.83776938-.02093285-2.84368813-.02270728-2.84760285-.02509308L218.875 185.1875l-2.84404755-.03798676-2.83972931-.0421524-2.83404147-.04360837-2.82690823-.04446536-2.81918824-.04432279-2.80752265-.04267234-2.7931521-.0402323-2.77447295-.0346378-2.74944282-.02398813-2.72783494-.01825106-2.70833218-.01590091-2.68642985-.01307267-2.66119278-.00935954-2.6408664-.01025373-2.62123251-.01272941-2.61091852-.02339768-2.61845636-.04858994-2.60109091-.05636955-2.56779409-.0551964-2.5254333-.04316747-2.46847033-.0108713-2.41219068.00214327-2.35257912.01118278-2.29041099-.00543022-2.23008919-.07384109-2.15322685-.06779099-2.06117129-.0058006-1.96692014.05995404-1.8756249.12190569-1.7536819.26249945L140 186Zm-9 75-.84959507 2.12835789-1.18643093 2.97138881-.64164204 1.60608429-.66663891 1.66838318-.69147586 1.73037052-.69493008 1.73940945-.67178822 1.68303394-.66412639 1.66374493-.66334659 1.6604532-.6617648 1.65501463-.66413707 1.65944636-.65912324 1.64382398L121 286l-1.21838856 2.989851-1.13656139 2.77014351-.9953289 2.41774654-.9583149 2.3183527-1.08737183 2.62419224-.97146606 2.34065151-1.02639771 2.46777344L112.5625 306.4375l-1.09030151 2.62646484-1.10671997 2.66650391-1.10453797 2.65896606-1.09687805 2.63790894-1.07868958 2.59030151-1.05705261 2.53421021-1.03259277 2.47137451L104 327l-.94104004 2.23614502-.89978027 2.13153076-.86613465 2.04737854-.83210754 1.96385193-.79951477 1.88658142-.76908875 1.81288147-.7385559 1.73880005L97.4375 342.5l-.70870972 1.65817261-.68167114 1.59353637-1.23852539 2.90454102-1.06860352 2.49414062L93 353v1h250l-3-9-1.63134766-4.13476562-.86624145-2.08876038-.91647339-2.182724-.99191284-2.38475037-1.04129028-2.50172424-1.07543946-2.57174683L332.375 326.5l-1.11499023-2.67532349-1.13305665-2.72140503-1.15264892-2.76805114-1.1696167-2.80787659-1.18572998-2.84291077-1.19805908-2.87242126-1.20666504-2.89483643L323 304l-1.2220459-2.94451904a395050769.301792 395050769.301792 0 0 0-1.22229004-2.94952393l-1.21713257-2.93917847-1.20571899-2.91287231-1.18545532-2.86331177-1.16757202-2.82028198-1.14764405-2.77246094L313.5 281.0625l-1.12872314-2.72802734-1.10028077-2.65869141-1.05203247-2.5393219-1.00021362-2.4138031-.94772339-2.292099-.86672973-2.09046936c-.24850709-.60025497-.49701417-1.20050995-.75305176-1.81895447L306 263l-1-2-2.84047031-.24609566-1.84273297-.01206696-2.04276413.01765359-2.15573495-.00517834-2.28498465-.00315296-2.41584015.01042938-2.50365448.01136017-2.54077721.00083542-2.60245704-.00172043-2.67245186-.00032973-2.74048149.0016725-2.81764806.00664115-2.86982333.00849176-2.90723539.00867223-2.92310023.00747538-2.90379786.00359964-2.91059232.00195837-2.93127626.0015775-2.95341498.00143993-2.98299843.00201118-3.00850147.00244629-3.03113735.00280786-3.0575782.00369048-3.08994687.00532889-3.11307991.00618959-3.13006693.00656497-3.14371294.00681889-3.15233081.00684083-3.15986401.00670898-3.16553497.00648498L217.9375 260.875l-3.16915131.00456238-3.16684723.00386047-3.16147178.00349343-3.15414101.00322044-3.14553934.00316608-3.13181299.00307286-3.11468613.00297713-3.09111583.00299096-3.05785645.00313401-3.03093349.00321555-3.00808388.00328148-2.98233456.00333893-2.95246214.00334561-2.93033319.00346363-2.90975452.00363397-2.9036324.00393057-2.92461324.00444937-2.9092052.00473261-2.87163174.00487494-2.81849086.00495553-2.7388581.00491929-2.66983331.00490737-2.59915351.00488663-2.53877068.00484848-2.50692368.00482178-2.41870498.0046997-2.28116697.00448239-2.15100772.00427616-2.04952389.00413406-1.8348307.00373757L131 261ZM79 387l-1.16162109 2.81054688-.76913453 1.86315917-.84268188 2.04504395-.86001587 2.09484863-.88998413 2.17077637-.92089844 2.24804688L72.625 402.5l-.91992188 2.22460938-.90820312 2.19726562-.89199829 2.17883301-.86581421 2.11804199-.83041382 1.99597168-.78823852 1.9395752-.73817444 1.90107727L66 419l-.62254333 2.15007019-.54859925 2.13386536-.46882629 1.92338562L64 427a520421150.8995391 520421150.8995391 0 0 1-.30078125 3.23828125L63.6875 433.3125l.0625 3.3828125L64 440l.5 2.9296875.6875 2.7578125.84375 2.69140625L67 451l1.03125 2.58984375L69.1875 456.125l1.30859375 2.4609375L72 461l1.78515625 2.4140625L75.75 465.75l2.09375 2.21484375L80 470l2.09375 1.75390625L84.25 473.3125l2.2578125 1.40625L89 476l2.9921875 1.21875L95.125 478.3125l2.8828125.92578125L101 480l3.11465073.53925037 1.86971235.25603831L108 481l2.07912493.09279668 2.20292234.03583777 2.3544972.00977105 2.52123141-.00469273 2.72934794.00686532 2.88657308.00605887 3.0126667-.00051498 3.12086296-.00085831 3.19801903.00443077 3.28347206.00574684 3.36827517.00507224 3.44887876.00408304 1.75716585.00103335 1.77528912.0006016 1.79010788.00039194 1.80375704.00023713 1.81626662.00019308 1.82538167.00020341 1.8324815.00024745 1.83430374.00046423 1.82783782.00094393 1.82838834.00118682 1.83289076.00129338 1.83829855.00136141 1.84615288.00133926 1.85333552.00133562 1.86025414.00133416 1.86839619.00129148 1.87809768.00120213 1.88652715.00113121 1.89432191.00106177 1.90176417.00099656 1.90835775.00095391 1.91580521.00085771 1.92353862.00073721 1.93212706.00055157 1.94242293.00025115 1.9504475.00007536 1.9569958-.00002532 1.96286647-.00009234 1.96766381-.00009696 1.97217197-.00011267 1.97629658-.00012229 1.97963103-.00012108 1.98206649-.00012388 1.984445-.00007609 1.98658602.00001835 1.98836978.00012059 1.98991699.00021515 1.99086456.00040283 1.99131871.0006361L218.25 481.1875l1.99042416.00159931 1.98954868.00196362 1.98848177.00218991 1.98705076.00236484 1.98527871.00243889 1.98324599.00252337 1.98087927.0025982 1.97839144.00263241 1.97596219.00263055 1.9726598.0026053 1.96862481.0025477 1.96422674.00248084 1.95950975.00242521 1.95392762.00227581 1.94777757.0020778 1.94041699.00175562 1.93122739.00122632 1.92332536.00089715 1.91603894.00068241 1.90893941.00051767 1.90248434.00045643 1.89527209.00034913 1.88772109.00023576 1.87955925.00010595 1.87023208-.00008544 1.86222961-.00014744 1.85525041-.00010054 1.84801025-.00005377 1.84016855-.0000411 1.83437197.00018248 1.82930696.00049785 1.82758105.00113651 1.83181155.00233337 1.82892167.00291732 1.82151589.00310274 1.81225315.0032032 1.79985848.00316105 1.78677282.00289323 1.77274555.00250928 1.75633818.0016541 3.45537233-.00078714 3.37874937-.00278341 3.29668617-.00416375 3.20604515-.00158882 3.10778618.00894928 3.00120735.00807953 2.88474036-.00124967 2.76536035-.0114609 2.64812327-.02171385 2.50583028-.04294718 2.35042477-.06916451L329 481l1.91632175-.1882112 1.72489071-.23043466 2.98030854-.52036476 2.38555526-.51301098L340 479l1.84469986-.59560871 1.63576889-.62314129L346.1875 476.5l2.79296875-1.28125L351 474v-2l1.8125-.29296875L355 471l1.5625-1.48828125L358 467.6875l1.55859375-1.9375L361 464l2.0625-1.8125L365 460l1.28515625-2.18359375L367.625 455.25l1.2265625-2.421875L370 450l.57958984-1.82348633.54541016-1.99291992.48681641-2.07763672L372 442l.22021484-2.02392578.11572266-2.01904297.04541016-2.04125977L372.375 433.8125l-.01806641-2.26147461-.06005859-2.27758789-.11914062-2.22363281L372 425l-.546875-3.1484375L370.625 418.9375a558441679.6088582 558441679.6088582 0 0 1-1.07421875-3.05078125l-.68896484-1.75244141L368 412l-1.15478516-2.88037109-1.30224609-3.22509766-.67126465-1.64613342-.68078613-1.66026306-.68804932-1.6701355L362.8125 399.25l-.69036865-1.66140747-.68023682-1.62789917-1.29736328-3.07006836-1.17651367-2.78027344L358 388l-1-1-1.90674263-.1241985-2.55793423.00115067-2.94053036-.00603348-3.26900237.00882679-3.44267267-.00258916-1.7986255-.00127599-1.85115484-.0003005-1.90934706.00215381-1.95356035.00306089-1.98944676.00313985-2.01403987.00254023-2.02020443.00061762-2.0394479-.00019991-2.06559045-.0003937-2.09184401-.00046652-2.12099444-.00018846-2.14868642.0000236-2.17485617.00020028-2.2041141.00063597-2.23882915.00144719-2.26491509.00187339-2.28484511.00205946-2.3028127.00218641-2.31844146.00219982-2.32904356.0021363-2.33667531.00202736-2.33579931.00171033-2.32159051.00107232-2.31888643.0007275-2.32271486.00055279-2.32812709.0004264-2.33762102.00041057-2.34615387.00037818-2.35437953.00034642-2.3647253.00037354-2.377751.00047135-2.38879006.00053424-2.39888681.00058668-2.40853053.00063647-2.41692151.00066308-2.42676924.00074084-2.43717997.00084384-2.44901914.00100141-2.46361323.00125412-2.47479098.00141032-2.48378122.00150877-2.49183988.00158602-2.49836609.00162158-2.50450739.00166091-2.51014746.0016961-2.51460415.00171335-2.51765274.00171364-2.52087421.00170677-2.5239498.00168836-2.52657354.00166613-2.52891121.00164827-2.5306057.00159422-2.53171443.00152111L217.9375 386.9375l-2.53256321.00120258-2.53215694.00107861-2.5312014.00099852-2.52962777.00093172-2.52734631.00089335-2.5247848.00085336-2.52176564.00081534-2.51857151.00079488-2.51552135.00079613-2.51105666.00078691-2.50539418.00077412-2.49922536.00076231-2.49267906.00074684-2.48454827.00074172-2.47545845.00074284-2.46411471.00075265-2.44924407.00077648-2.43723329.00079052-2.4267108.00079928-2.4167761.0008085-2.40835048.00081651-2.39864926.00082422-2.38849158.00083273-2.37738561.00083674-2.36426633.00083251-2.35388566.00084029-2.34567515.0008569-2.33715667.00087492-2.3276596.0008939-2.32234455.00092309-2.31865677.00095716-2.32165471.00100812-2.33642235.00108728-2.33756528.0011374-2.33001.00116986-2.31944483.00119645-2.30378734.00121177-2.28567887.0012257-2.26555099.0012375-2.23903607.00124027-2.20351873.00123132-2.17382814.00122832-2.14748215.00122786-2.11958016.00122583-2.090154.00122349-2.06397693.00121982-2.03803385.00121415-2.01961195.00121009-2.01537001.00121009-1.99138582.0012008-1.9554357.00118553-1.91033655.00116432-1.8497205.00113383-1.79624215.00110737-3.43794543.00213807-3.27576214.00206703-2.93262809.00186879-2.55744225.00164264L79 387Z"/></svg>