<svg fill="currentColor" viewBox="0 0 512 512"><path d="m8 0 3.27458864-.37719816 1.83170704-.0235357 1.97224989.02041713 2.13496217-.01412097 2.26396939-.01145461 2.37200059.00852764 2.4640141.00968462 2.52976012-.00616575 2.60527963-.01015407 2.68265056-.00825739 2.75752026-.00543683 2.83563451.00180415 2.89836284.00444051 2.95160353.00461638 2.990394.00278032 3.00635469-.00298751 3.03796637-.00545633 3.07769704-.00606035 3.11719393-.00629354 3.15981262-.00546868 3.20048351-.00484066 3.2390195-.00431241 3.28123857-.00301741 3.33023681-.00061952 3.3678119.00067018 3.39712482.00127559 3.42373402.00171215 3.44725776.00181366 3.46366453.00172948 3.47585573.00153247 3.47625718.00078186 3.45818028-.00081554 3.45595351-.00164613 3.46270342-.00203399 3.47159533-.00229641 3.48608531-.00226794 3.4991837-.00229307 1.75414528-.00116618 1.75765768-.00115572 1.76148035-.00112902 1.76580262-.0010804 1.77097528-.00099653 1.7754059-.00093638 1.77940304-.00088885 1.78332476-.00083934 1.78704147-.00079165 1.79071349-.00074521 1.79437019-.00069658 1.79773372-.00066006 1.80063575-.00064625 1.80402743-.00059849 1.80775018-.00052568 1.81148732-.0004489 1.81523923-.00036984 1.81932116-.00026073 1.82353575-.00013727 1.82835722.00003553 1.83422013.00029083 1.83891213.00046098 1.8428759.00057933 1.84655319.00068028 1.84972226.00074777 1.8528283.00081164 1.85581483.00086935 1.85846265.00090135 1.86071868.00090053 1.86301444.00091497 1.86525466.0009353 1.86738883.00095095 1.86948695.00096601 1.87131958.00097467 1.8729601.00097645 1.87434433.00097905 1.87536673.00098673 1.87651361.00097467 1.87768914.00094884 1.87879037.00091012 1.87986164.00085296 1.88082848.00079871 1.88169307.00073958 1.88252112.00068536 1.8833433.00064876 1.88397126.00056921 1.88443908.00045484 1.88479879.00033372 1.88504227.00021171 1.88514987.0000372 1.88514197-.00016344L215.5625-.4375l1.88454282-.00085795 1.88416732-.00113809 1.88377494-.00133773 1.88331967-.0015109 1.88283375-.00163132 1.88223425-.00174998 1.88154077-.00186128 1.88075787-.00193668 1.87986826-.00196749 1.87893656-.00201693 1.87795786-.00207191 1.8768872-.00212148 1.87570699-.00217325 1.87453249-.00220782 1.87330923-.00222972 1.87213979-.0022402 1.8711299-.00223538 1.86975405-.0022296 1.86812408-.00222082 1.86631809-.00220287 1.86426322-.00217466 1.86217273-.00214662 1.85998617-.0021133 1.85773208-.00208608 1.85548516-.00207613 1.85291804-.00202744 1.85006853-.00194812 1.84711272-.00186178 1.84410082-.00177209 1.8406559-.00164068 1.83696332-.00148782 1.83265854-.00127076a89007823.9874753 89007823.9874753 0 0 0 1.82737395-.00094775l1.8229446-.0007284 1.81901059-.00057131 1.81517659-.00043248 1.8116049-.00033133 1.80804164-.00023421 1.80448318-.00014275 1.80119789-.00008409 1.79832357-.00007022 1.79504065-.00002612 1.79149308.00003438 1.7879247.00009158 1.78431353.00014943 1.78050367.00021178 1.77661455.00027228 1.77232437.00035255 1.76735281.00046979 1.76314295.00053359 1.75937759.00056417 1.75588246.00057101 1.75288765.00053854 1.74964711.00051945 3.4893357.00098245 3.47486784.00097611 3.46529554.00055811 3.4575611-.00003853 3.45773092-.0012649 3.47189584-.00357947 3.46962604-.00469723 3.45689941-.00503563 3.44023418-.00520993 3.41691154-.00511033 3.39128846-.00456076 3.36336066-.00378107 3.32878839-.00206794 3.28540609.00115012 3.24621572.0028838 3.20891338.00358921 3.16971261.00443131 3.12902404.00553657 3.08899163.00523423 3.04786479.0044421 3.01050199.00115979 2.98108303-.00653065 2.93803012-.00895703 2.88523541-.00868692 2.82870808-.00512228 2.76756059.0046035 2.69933397.00842602 2.62645262.01101892 2.54167784.00575198 2.43896587-.01536363 2.34973048-.01374245 2.26799628.00480648 2.18625113.02493379 2.10671444.04477376 2.02802079.08713859 1.94880422.13963635L424 0l1.81407122.38106684 1.7373832.46593507 3.21119416 1.04760468 2.72884125 1.03439087L436 4l2.67547899 1.14574724L441 6.1875l2.4296875 1.2734375L446 9l1.46972656.97363281 1.53808594 1.06542969 1.5559082 1.11621094L452.125 13.3125l1.54370117 1.18066406 1.50708008 1.18652344 1.45947266 1.18261719L458 18l2.29296875 2.0078125L462.3125 21.9375l1.890625 1.9921875L466 26l1.796875 2.1953125L469.5625 30.5625l1.70703125 2.546875L473 36l.93505859 1.70117188.95166016 1.81445312.94091797 1.87280273L476.75 43.3125l.89111328 1.96508789.84716797 1.96069336.79541016 1.93603516L480 51l1.10546875 3.04296875L481.9375 57l.625 3.1640625.23828125 1.77832031L483 64l.17578125 2.56542969.13671875 2.83300781.08789062 2.94946289L483.4375 75.375l-.01757812 3.03295898-.07617188 2.98657227-.13671875 2.90869141L483 87l-.29296875 2.27880859-.36328125 2.04541016-.42431641 1.91943359L481.4375 95.0625l-.53271484 1.77978516-.58447266 1.73974609-.63574219 1.70166016L479 102l-.73144531 1.80615234-.77636719 1.83056641-.82006836 1.81787109L475.8125 109.25l-.89282227 1.74853516-.93139648 1.70849609-.97021484 1.67041016L472 116l-1.08447266 1.56396484-1.12255859 1.51025391-1.13964844 1.45703125L467.5 121.9375l-1.16503906 1.36328125-1.15136719 1.3046875L463 127l-1.77734375 1.98828125L459.5625 130.75l-1.71484375 1.640625L456 134l-2.12890625 1.734375L451.5 137.5l-2.57421875 1.734375L446 141l-1.70556641.93945312-1.81396484.95117188-1.8984375.94335938L438.6875 144.75l-1.71875.85351562-1.76953125.81835938-1.8565979.74143982L431 148l-2.63241577.80006409-3.02529907.78025818-1.70018292.40290546-1.80202961.38441753-1.88536262.34901047L418 151l-1.99952507.16560745-2.05746651.09638596-2.12116432.05570888-2.1824398.02287388-2.2445736.00750065-2.30262184-.00818729-2.35639381-.02269936-2.4115963-.02422142-2.47127342-.00833702-2.51754189-.00452614-2.55453014-.00668621-2.58360768-.0097475-2.60133075-.01727772-2.62010479-.0200758-2.63562012-.02032471L379.6875 151.1875l-2.67810059-.01263428-2.68005371-.0100708-2.66654682-.0093584-2.63740826-.00895214-2.58457469-.00952435-2.54047108-.00993061-2.49289513-.01021385-2.45823097-.01134682-2.45687294-.01377296-2.3908596-.01474572-2.26957703-.01473999-2.15344238-.01460266-2.0632782-.01428222-1.8553772-.01313782L343 151l.04760742 2.58276367.02934265 1.710495.02851868 1.87471008.02156067 1.91462708.01945496 1.98185729.01831054 2.0510254L343.1875 165.1875l.03881836 2.04516602.03735352 2.0192871.01643371 1.98689271.01286316 1.92912292.04692078 1.84403992.00068664 1.758255L343 180l-1.42236328 2.83032227L340 185l-1.53515625 1.546875L336.9375 187.75l-1.53515625 1.234375L334 190l-2 1-2.171875.23828125L327.25 191.3125l-2.7109375-.03125L322 191l-1.8515625-.71875-1.5234375-.96875L316 187l-2.3125-2.625L312 182l-1-2v-29H151v270l73-1-10-14-3.8125-7.3125-1.65234375-3.734375-.77685547-1.92773438L207 391l-.76220703-2.22070312-.74169922-2.29492188-.70581055-2.2956543L204.125 381.9375l-.61645508-2.12817383-.56323242-2.03198242-.48388672-1.77368164L202 374l-.52006149-2.75996399L201 368l-.13142776-2.8454895-.00901413-2.99874878-.01730347-3.46636963-.00183487-1.84693146-.00155258-1.91277313-.00685501-1.96916962-.00819016-2.02393341-.00752592-2.07495117-.00654268-2.12286377-.00411272-2.17010498-.00306654-2.20629883-.0027628-2.23549652L200.796875 337.875l-.00409603-2.24845123-.00447178-2.25893402-.00440669-2.27660561-.00429845-2.29462242-.00400281-2.31627464-.00369906-2.33524514-.0034194-2.35219192-.00285578-2.37080002-.00182199-2.39225388-.00137091-2.40813064-.0013268-2.42014122-.00133968-2.42986488-.00141024-2.43638039-.00188565-2.44179344-.00254822-2.44570923L200.75 300l-.00648499-2.44760132-.00779724-2.44570923-.00831675-2.44179344-.00865102-2.43638039-.0086453-2.42986488-.00831103-2.42014122-.00779581-2.40813064L200.6875 280.578125l-.00396872-2.37080002-.002604-2.35219192-.00202871-2.33524514-.0013473-2.31627464-.00048709-2.29462242-.00063443-2.27660561-.00112057-2.25893402L200.671875 262.125l-.00898838-2.2518692-.01064205-2.23549652-.01030016-2.20629883-.00748396-2.17010498-.00004912-2.12286377.00294829-2.07495117.00502396-2.02393341.00117111-1.96916962-.01462937-1.91277313-.01329422-1.84693146.01687622-3.46636963.09328461-3.14202881L201 232l.64340973-2.07574463.7929306-1.6317749L204 226l1.375-1.75L207 223l2.02077579-1.0614109L212 221l1.96255672-.18666148 2.22791779-.07060743 2.44677585-.01954209 2.65533692.00938546 2.84622961-.01373064 3.0127334-.01211775 3.16007233.00102997 3.27407074.00171662 3.34241676-.00886155 3.42853356-.01149368 1.74821103-.00528021 1.77022456-.00486426 1.79113581-.0045127 1.81350599-.00365338 1.83878849-.0020667 1.85860862-.00120321 1.8743918-.00078387 1.88881099-.00047426 1.9017772-.00038616 1.91097338-.00040682 1.91793665-.0004949 1.91883555-.00092846 1.9102172-.00188786 1.90972456-.00237363 1.91382546-.00258678 1.91900568-.00272281 1.9270403-.00267852 1.9343432-.00267123 1.94138063-.00266834 1.94987374-.00258295 1.96021687-.00240426 1.96911151-.00226243 1.97729717-.00212354 1.98511429-.00199311 1.99199353-.00190782 1.99987175-.00171543 2.00810774-.00147441 2.0173295-.00110313 2.02849225-.00050232 2.03714712-.00015071 2.04418099.00005064 2.05049515.00018468 2.05565337.00019392 2.06049933.00022534 2.064942.00024457 2.06850189.00024216 2.07103039.00024776 2.07360154.00015219 2.07599479-.0000367 2.0780183-.00024118 2.0797967-.00043031 2.08102331-.00080565 2.08176518-.0012722L326.9375 220.625l2.08186245-.00319862 2.08132267-.00392723 2.08042761-.00437984 2.07908014-.00472966 2.07724554-.00487778 2.07515978-.00504675 2.07271011-.00519641 2.07011162-.0052648 2.06758469-.00526111 2.0640328-.0052106 2.05961254-.0050954 2.0547941-.00496169 2.04965597-.00485041 2.04341394-.00455162 2.03647964-.00415561 2.02799078-.00351122 2.01710458-.00245264 2.00805442-.00179431 1.99993018-.00136482 1.99213894-.00103534 1.98529433-.00091285 1.97753472-.00069826 1.96941-.00047152 1.96058226-.00021191 1.95033271.00017087 1.9418745.00029488 1.93482192.0002011 1.92750464.00010753 1.91947318.00008221 1.91419577-.00036497 1.90995422-.0009957 1.910153-.00227302 1.9182125-.00466675 1.9170467-.00583463 1.91000693-.00620549 1.90077383-.00640638 1.88783635-.0063221 1.87355803-.00578647 1.85797273-.00501856 1.83858158-.0033082 1.81410135-.00008122 1.79216383.00165549 1.77142884.00236135 1.74962531.00320549 3.43183709.00832748 3.34442329.00317765 3.27080154-.01789856 3.15720749-.01615906 3.01655108.01078832 2.85095686.01463282 2.64857715-.03117311 2.45467812.02787149 2.26184928.13200498L442 221l1.83212769.8312099 1.61206424 1.03563237L448 225l2.3125 2.625L452 230l1 2 .11352539 1.97119141-.01586914 2.38037109-.00976563 2.578125L453.0625 241.625l-.01367188 2.71875-.01367187 2.5703125-.01928711 2.37353516L453 251l2.60546875-.140625 1.71166992-.06420898L459.1875 250.75l1.9152832-.01586914 1.9597168.02758789 1.99609375.07958984L467 251l3.4375.64453125 3.25.91796875 3.21484375 1.11328125L480 255l2.94140625 1.54296875L485.75 258.25l2.6953125 1.85546875L491 262l2.3671875 1.73828125L495.625 265.5625l2.171875 2.0078125L500 270l1.21289062 1.57714844 1.24023438 1.72753906 1.22802734 1.81030273L504.875 276.9375l1.11962891 1.69946289 1.06005859 1.70288086 1.00073242 1.78808594L509 284l.9074707 1.95800781.82299805 2.11621094.71582031 2.30395508L512 293l.29589844 3.1628418.13769531 3.4543457.02264404 1.78157043.00274659 1.80827332-.01293946 1.83056641L512.4375 306.875l.02905273 1.82666016.03149415 1.81787109.01118469 1.80653381-.01313782 1.79112244-.04450989 1.77537537-.08952331 1.74586486L512 321l-.77416992 3.09790039-.99145508 2.86694336-1.09985352 2.66308594L508 332l-1.02709961 1.94238281-1.01586914 1.69433594-1.05053711 1.54663086L503.8125 338.6875l-1.17797852 1.65063477-1.21264648 1.64624023-1.22070312 1.56445312L499 345l-2.234375 2.390625-2.203125 2.046875-2.265625 1.85546875L490 353l-2.296875 1.67578125L485.3125 356.25l-2.5234375 1.4296875L480 359l-1.59863281.64160156-1.69042969.61621094-1.74487305.578125L473.1875 361.375l-1.77270508.5-1.78588867.4453125-1.80029297.38378906L466 363l-1.89501953.16308594-1.89013672.07910156-1.8269043.02587891L458.625 363.25l-3.2734375-.109375L453 363l-.078125 1.87890625L452.75 367.5625l-.29296875 3.05859375L452 374l-.31103516 1.71923828-.36474609 1.75341797-.41796875 1.8034668L450.4375 381.125l-.51171875 1.89379883-.5703125 1.94213867-.63525391 1.98730469L448 389l-.84130859 2.15332031-.92041016 2.19824219-.97387695 2.20410156L444.25 397.75l-1.03198242 2.16308594-1.05395508 2.11035156-1.07324219 2.04199219L440 406l-1.11425781 1.77050781-1.11230469 1.64355469-1.09082031 1.53613281L435.625 412.375l-1.9609375 2.5234375L432 417l-1.10400391 1.63134766L430 420l1.55410767.01104736 2.20614624.01727295 2.4894104.02154541 2.72689819.02825928 2.78182983.03851318 2.87832642.04351807 2.97802734.04736328L450.625 420.25l2.97802734.02099609 2.93994141.02197266 2.8843689.04754639 2.79922485.05010986 2.69009399.00372314 2.54672242.05975342 2.37896728.15979004L472 421l1.8583374.83825684c.5306305.34180297 1.06126099.68360595 1.60797119 1.0357666L478 425l2.3125 2.625L482 430l1 2 .14044189 2.86433411.01730347 1.77125549.00338745 1.93789673.01504517 2.04548645.0140686 2.15197754.00717926 2.25139808.00569916 2.30968285.00856781 2.3157711.00870514 2.34797097.00770187 2.39026165.00627518 2.42841815.0031929 2.47134877.00266648 2.49764538.00329589 2.51177978L483.25 466.8125l.01428223 2.51141357.01696777 2.50152588.01695633 2.48692799.01429367 2.46302318.00657272 2.428195.00337601 2.39350605.00112152 2.35365868.00455475 2.3187809.01963043 2.29923439.01778412 2.24344444-.00289917 2.16470337-.00619507 2.06141663.02792359 1.91949463-.01687622 1.79689026L483 502l-1.14727783 2.62260437L480 507l-1.21230546 1.30369883-1.40371289 1.30538846-1.6226706 1.31928078L474 512l-1.80711441.46312388-1.91802753.16477261-2.05958364.03870854-2.21170291-.03460601-2.3988122.02292969-2.54328397.01845041-2.66197139-.01489053-2.76508928-.01684125-2.8408919.00957081-2.92614746.01620349-3.01272765.01302408-3.0963774.0083055-3.18309741-.00378312-3.25313992-.00819121-3.31284654-.0084945-3.3565985-.00544059-3.37524474.00417244a858221819.099935 858221819.099935 0 0 1-3.41100823.00828445l-3.45562809.00928738-3.49992497.00967357-1.76796425.00430015-1.77960587.0039971-1.79099219.00374514-1.80206567.00350405-1.81243905.00337431-1.82371895.00299417-1.83528849.00248924-1.84800854.00171889-1.86292638.00048722-1.87499198-.00028154-1.88524905-.00077418-1.89457272-.00116778-1.90235676-.0013641-1.91015087-.00157902-1.9175927-.00177589-1.92458195-.00188555-1.93143087-.00191013-1.93699085-.00191026a2077065777.4152 2077065777.4152 0 0 1-1.9413445-.00186294l-1.94530995-.00179943-1.94921367-.00175834-1.95093171-.00155404-1.95146505-.00126395-1.94893359-.00076401-1.94139623.00008524-1.93849746.00060191-1.93830889.00092226-1.93889967.00118319-1.94123283.00131692-1.94338713.00145767-1.94560035.00158933-1.94884268.00164208-1.95336148.00159712-1.95719712.00159951-1.96077586.00161819-1.96435228.00163232-1.96762737.00166251-1.97154252.00164713-1.97580838.00160405-1.98064106.00152331-1.98643803.00138198-1.99139333.00128171-1.99585727.00120331-2.00023452.00112185-2.00437709.001044-2.00847229.00096796-2.01255105.00088814-2.01630238.00082859-2.01953984.00080686-2.02332011.0007287-2.02746637.00060895-2.03162921.0004825-2.03581073.00035194-2.04035192.000172-2.04503758-.00003163-2.0503876-.00031647-2.05687717-.00073699-2.06208563-.00101779-2.06649757-.00121362-2.07059534-.00138096-2.07413559-.00149334-2.07760943-.00160016-2.08095327-.00169699-2.08393028-.00175207-2.08648563-.00175384-2.08907554-.00178019-2.09159804-.00181585-2.09400483-.00184398-2.09637369-.0018714-2.0984417-.00188767-2.10029534-.00189247-2.10185149-.00189745-2.10298201-.00190872-2.10428254-.00189021-2.10563456-.00185073-2.10691649-.00179109-2.10818605-.0017028-2.10933395-.00161889-2.11037077-.00152715-2.11136346-.00144332-2.11233487-.00138745-2.11312658-.00126363-2.11377017-.00108481-2.11429773-.00089515-2.11469374-.00070388-2.11498823-.00043004-2.11517799-.00011504L241.0625 512.6875l-2.11518681.0009762-2.11503875.00141657-2.11479182.00173057-2.11444765.00200306-2.11401701.00219276-2.1134552.00237994-2.11277937.00255571-2.11196552.00267537-2.11098447.00272545-2.10997698.0028045-2.10892387.00289209-2.10776113.00297132-2.10647601.00305422-2.10518361.00310972-2.10382476.00314525-2.10252102.00316219-2.10139229.00315379-2.09983734.00314561-2.09798519.00313382-2.095921.00310825-2.09355831.0030677-2.09115777.00302717-2.08864293.00297851-2.08605897.0029394-2.08350493.00292684-2.08053945.00285509-2.07721517.00273664-2.0737628.00260736-2.070245.00247277-2.06618042.00227496-2.06180723.00204463-2.0566541.00171692-2.05024712.00122869-2.04495313.0008973-2.04030756.00066004-2.03580178.00045038-2.031646.00029773-2.02750801.00015094-2.02338522.00001253-2.01962015-.00007651-2.01638663-.00009831-2.01264684-.00016544-2.00858366-.00025713-2.00450326-.00034393-2.00037578-.00043193-1.9960145-.00052625-1.99156599-.00061761-1.98663076-.000738-1.98086251-.0009127-1.9760459-.00100862-1.97178823-.00105557-1.96787553-.00106734-1.96459348-.00102096-1.96101338-.00099448-1.95743-.00096209-1.95359295-.00094905-1.9490823-.00099383-1.94582822-.00091728-1.94358715-.0007425-1.94140312-.00055622-1.93904165-.00037864-1.93839656-.00004214-1.93851867.00036875-1.94131083.00102454-1.94867368.00209504-1.95110191.00273052-1.95050819.00310464-1.94874724.00337251-1.94483382.00343804-1.94085418.00353048-1.93648968.00360264-1.93092867.00361403-1.92408404.00359158-1.91711597.00346803-1.90971282.00323957-1.90196105.00298872-1.89421559.00276058-1.88497028.00229227-1.87481157.00170299-1.86289988.00077878-1.84822903-.00070656-1.83566335-.00163427-1.82419491-.00224138-1.81299113-.00269849-1.80264367-.00285387-1.79161846-.00314387-1.78028265-.00344752-1.76870175-.00381237-1.75654142-.00438321-1.74507356-.00453338-3.4572416-.00846126a497198995.4049115 497198995.4049115 0 0 1-3.4124223-.00727022l-3.37583721-.00234472-3.35526836.00919091-3.31090748.01283515-3.25126457.01243762-3.18210793.00710126-3.09781173-.00747217-3.015111-.0131927-2.92917216-.01706835-2.84259444-.00915704-2.76151096.02252027-2.65878994.02010534-2.54678187-.02002648-2.40321657-.02551833-2.20460847.04343286-2.06717005-.04474207-1.94566035-.192928L8 512l-2.02229799-1.31556793-1.92284386-1.60644792-1.71150044-1.59661806L1 506l-1-2-.1276505-3.42301017-.0091393-2.16420725.00536204-2.3911275-.00622011-2.54013046-.00541973-2.69824168.00114808-2.85424857.00147763-2.9659759-.00381884-3.02354868-.00518457-3.1086422-.00459806-3.20379703-.003702-3.29717554a2571723420.519488 2571723420.519488 0 0 1-.00133915-3.40031837l-.00049572-3.47890069-.00019412-1.76467397-.00026841-1.7781609-.00038564-1.78993716-.00070441-1.79685901-.00133431-1.7962359-.00167835-1.80197384-.00185615-1.81127817-.0019862-1.82142144-.00200816-1.83383454-.00204499-1.84552135-.0020802-1.85692356-.00205681-1.86927055-.00196278-1.88273537-.00190315-1.89539649-.00185382-1.90774144-.00180617-1.91974172-.00177996-1.93089561-.00170471-1.9432385-.00160469-1.95599998-.00145332-1.97022623-.00121299-1.98721069-.00106063-2.00073339a299766644.464053 299766644.464053 0 0 0-.00096055-2.01207632l-.00087855-2.02233146-.00083321-2.03076278-.00078443-2.0392224-.00073871-2.04728876-.00071019-2.05479597-.0006995-2.06208261-.00069004-2.06796022-.00068692-2.0724987-.00068634-2.07660681-.00068128-2.08066892-.00070357-2.08223871-.00074031-2.0824607-.0008112-2.07920304-.000939-2.07025519-.00101305-2.06659108-.00105547-2.06601652-.00108851-2.06633444-.00110128-2.06864054-.00111519-2.07074906-.0011278-2.07293043-.00112751-2.07628876-.00111101-2.08110575-.00110317-2.08515055-.00109874-2.08890831-.00109377-2.0926692-.00109152-2.09609306-.00108295-2.10025026-.00107046-2.10481195-.00105352-2.11002314-.00102943-2.11633521-.00100944-2.1216977-.00099152-2.12650826-.00097242-2.13122672-.00095243-2.1356853-.00093356-2.14009522-.00091426-2.14449225-.00089881-2.14852213-.00089096-2.15197206-.00087145-2.15604765-.00084316-2.1605473-.00081383-2.16507173-.00078442-2.16962286-.00074331-2.17459228-.00069677-2.17973334-.00063128-2.18564112-.00053377-2.19285991-.00047003-2.19861758a2697040593.2793 2697040593.2793 0 0 1-.00042706-2.20346898l-.00039113-2.20796684-.00036844-2.21183264-.00034797-2.21562766-.00033044-2.21927963-.00032406-2.22251645-.00033224-2.22527444-.00033311-2.2280805-.00033077-2.23081722-.00033068-2.23342734-.00033146-2.23599962-.00033316-2.23823625-.00033713-2.24023457-.00033793-2.24190295-.00033148-2.24309821-.00033951-2.24448474-.00035708-2.24593063-.00038217-2.24729915-.00041868-2.24865382-.00045302-2.24987724-.00048978-2.25097922-.00052417-2.25203783-.00054922-2.25308223-.00059765-2.2539177-.00066519-2.25458201-.00073616-2.25511881-.00080701-2.25551218-.0009077-2.25578218-.00102305-2.25593221L-.25 256.1875l-.00142026-2.25575125-.00158-2.2555145-.00169337-2.25519293-.00179136-2.25477392-.00185904-2.25427666-.00192509-2.25363707-.0019865-2.25287606-.00202661-2.25197419-.00204009-2.25090089-.00206492-2.24979787-.00209338-2.24864697-.00211836-2.24737906-.0021441-2.2459777-.00216088-2.24457778-.00217059-2.24311143-.00217545-2.24171524-.00217474-2.24052534-.00216916-2.23886055a1102971532.36252 1102971532.36252 0 0 1-.00215915-2.23686675l-.00214225-2.23464153-.00211674-2.2320878-.00209187-2.22949639-.00206354-2.22678267a1368940496.61178 1368940496.61178 0 0 0-.00203888-2.22399447l-.00202548-2.22124039-.00198575-2.21803814-.00192498-2.2144449-.0018596-2.21071427-.00179249-2.20691582-.00169563-2.20251756-.00158365-2.19778236L-.3125 184.65429688l-.00119316-2.18521972-.00103456-2.17947999-.00092078-2.17445918-.00082022-2.16959601-.00074664-2.16512213-.00067661-2.16067222-.00061102-2.15624295-.00056973-2.15221299-.00056176-2.14877492-.00053114-2.14477959-.00048808-2.14042933-.00044773-2.13606383-.00040741-2.13165047-.00036259-2.12697996-.00031877-2.1222157-.00025853-2.11691339-.00016769-2.11068751-.00012041-2.10552449-.00010015-2.10098736-.00009884-2.09683757-.00012895-2.09339281-.00014867-2.08962087-.00017168-2.08584916-.00018513-2.08180017-.000169-2.07700764-.0002163-2.07361404-.00031513-2.07134912-.00042014-2.0691514-.00052058-2.06676038-.00070477-2.06627954-.00092827-2.06665468-.00128056-2.06999901-.00185086-2.0784233-.00219284-2.0813713-.00239763-2.08096815-.00254705-2.07926961-.00259087-2.0751784-.00264817-2.07102778-.00269473-2.06645669-.00270828-2.06057603-.00270188-2.0533022-.00264558-2.04585861-.00253665-2.03790823-.00241605-2.02957565-.00230705-2.02126008-.00207562-2.01124002-.00178228-2.00019215-.00131901-1.98713118-.00057133-1.97088772-.00010524-1.95712458.00019912-1.94466637.00042833-1.93255183.00050581-1.92147569.00065127-1.90962026.00080398-1.89742685.00098723-1.88494787.00127342-1.87176822.00134963-1.85949593.00125103-1.84799337.00114988-1.83620307.00109717-1.82373397.00071671-1.81320782.00019265-1.80337708-.00083542-1.79661007-.0027318-1.79533846-.0036788-1.78746729-.00401023-1.77535455-.00420854-1.76166315-.00799711-3.47327464-.00529711-3.39734991.00203534-3.30147854.00493531-3.21094706.00691429-3.11771633.00299128-3.02865628-.01283565-2.95524095-.01157769-2.84470423.00857186-2.70873538.01139736-2.55334356-.02301574-2.36984417.02120638-2.18696651.11108837-2.00715814L0 8l1.21074605-2.83474177L3 3l2.2450909-1.7887302L8 0Zm23 31v390h88l.04418945-26.61767578.01606465-9.25961495.00751084-4.15347182.00380047-2.05978977.00395034-2.12310124.00425962-2.28922476.00445011-2.37073897.00457954-2.40530292.00469512-2.42970177.00476261-2.42466905.00487164-2.43048546.00500039-2.44124204.00514647-2.44029397.00533053-2.42522782.00547245-2.42234212.00558782-2.42637114.00569439-2.43207928.00578543-2.44211449.00587008-2.45112059.00594934-2.45979725.00601003-2.47070195.00604455-2.48441376.0060965-2.49605892.00615853-2.50673374.00621653-2.5169268.00627086-2.52578614.00633421-2.53623107.00639831-2.54728898.00648357-2.55993095.0066085-2.57561508.00667868-2.58753785.00671472-2.59705825.00672863-2.6055439.00670583-2.6123197.00669264-2.61871851.00667469-2.62458243.0066631-2.62921022.00667783-2.6324092.00662801-2.63565136.00652497-2.63862341.00641431-2.64110655.00630759-2.64330472.00611306-2.64462101.00587654-2.64522457L119.3125 275.875l.00491142-2.64384556.00454903-2.64256954.00432597-2.64104683.00415792-2.63900536.00409601-2.63646995.00401993-2.63361335.00395372-2.63030278.00392155-2.62689663.00391147-2.62370695.0039471-2.61912726.00403227-2.61339777.00412802-2.60716409.00421109-2.60050882.00441359-2.59245597.00467623-2.58353296.00510406-2.57260618.00580881-2.55858144.00623836-2.54696909.00650951-2.53658167.0067071-2.52665862.00675666-2.51800706.00687117-2.50815902.00699196-2.49784984.00714072-2.4866061.00738694-2.47345577.00743095-2.46276047.00730624-2.45399292.00717846-2.44490055.00709689-2.43488429.00669873-2.42859294.00616142-2.42372006.00513795-2.42484266.00327733-2.43655568.00233051-2.4359023.00197665-2.42737408.00174817-2.41596155.00173213-2.39966838.00204787-2.38148935.00253375-2.36154905.00371699-2.33635435.00602286-2.30403408.00722308-2.27556601.00765839-2.24904768.00819418-2.22111114.0089225-2.19197483.00860985-2.16413288.00793517-2.13580799.00541627-2.11161518-.0003668-2.09563923-.00225199-2.066926-.00214443-2.02975262.00041447-1.98796474.00755925-1.93920809.01029323-1.88905412.01210484-1.83637499.00803706-1.78011073-.01468962-3.3781482.02865618-3.10792243.10795558-2.8204577L120 130l.60422742-1.9927175.76053679-1.62956453L123 124l2.5625-1.8125L128 121l2-1 2.03110784-.12830919 2.55712515-.00476939 2.9471187-.01285165 3.26101977.0011701 3.44649178-.01068741 1.80065108-.00552655 1.85229867-.00469058 1.90813752-.00239345 1.95153502-.00160626 1.98743332-.00162614 2.01269638-.00229346 2.02081407-.00423134 2.04096305-.00510704 2.06742369-.00538283 2.09389795-.00554247 2.12295646-.00536561 2.15061467-.00524985 2.17679228-.00516703 2.20579504-.00483213 2.23985611-.00413083 2.26573707-.00380553 2.28575546-.0037154 2.30387955-.00368142 2.31977593-.0037549 2.33080996-.00390954 2.33896169-.00411042 2.33894554-.00452343 2.32613865-.00526634 2.32431802-.00570211 2.32872228-.00595812 2.33461995-.00616189 2.34440672-.00624977 2.35323138-.0063488 2.36173028-.00644321 2.37220931-.006469a3153394289.51711 3153394289.51711 0 0 0 2.38518505-.00640994l2.39628519-.00639499 2.40649606-.00639607 2.41624455-.00639658 2.42475767-.00641627 2.43470042-.00639264 2.44518013-.00634499 2.45710247-.00625865 2.47181288-.00610702 2.48302384-.00601121 2.49199328-.00594767 2.4999769-.00588945 2.50634462-.00584656 2.51236117-.00580585 2.51786618-.00576549 2.52223636-.0057459 2.52532036-.00575906 2.52834677-.00573659 2.53104457-.00568995 2.53326926-.00564154 2.53521954-.00559104 2.53624499-.00551736 2.53655339-.00543404A1429265331.2873 1429265331.2873 0 0 1 269.4375 119.5625l2.53417873-.00510979 2.53257084-.00499153 2.53088373-.00492167 2.52877051-.00487447 2.52631435-.00486878 2.5235295-.00485494 2.52032388-.00484515 2.51705151-.00484031 2.51398145-.00482868 2.50968344-.0048563 2.50438005-.00491906 2.49861121-.00498729 2.49242427-.00505027 2.48508988-.00518063 2.47701649-.00534372 2.46729954-.00560553 2.45507819-.00603374 2.44470029-.00629167 2.43522633-.00645108 2.42606639-.00656169 2.41786494-.00657661 2.40863399-.00663362 2.39897155-.00669348 2.38847357-.00677533 2.37634004-.00692797 2.36617511-.00693708 2.35753988-.00682752 2.3485858-.00671412 2.33882747-.00662939 2.33205499-.00632842 2.32638493-.00593177 2.3255609-.00520214 2.33333811-.00390038 2.33095208-.00322047 2.32211196-.00294309 2.3107456-.00275154 2.29510779-.00270677 2.27825158-.00288164 2.26001404-.00316964 2.23799385-.00392391 2.21115329-.00542749 2.18604456-.00619505 2.16145307-.00645412 2.13568502-.0067799 2.10910809-.00723248 2.0819453-.00699634 2.0536896-.00652111 2.02614629-.0048238 2.00072515-.00096333 1.96998179.00031292 1.93465689.00026909 1.89923212-.00140396 1.86520768-.00612492 1.82210117-.00790989 3.48903698-.01541466 3.2001819.00792987 3.01823908-.02075392 2.87599933-.07451237L410 119l3.0275327-.39292347 2.94132507-.49906052 2.61128097-.484757L421 117l2.42015928-1.006751L425.4375 115l1.80859375-1L429 113l2.22265625-1L433 111v-2l1.75-.875L437 107l2.25-2 1.75-2v-2h2v-3h2l1.05859375-2.38671875.66967773-1.57470703L447.4375 92.3125l.69946289-1.77294922.67553711-1.82470703.640625-1.87158203L450 85l.625-3.37109375.3125-3.25390625.125-3.25390625L451 72l-.1875-2.83984375-.375-2.72265625-.59765625-2.6875L449 61l-1.12109375-3L446.5 54.9375l-1.6171875-3.01171875L443 49l-1.06347656-1.40478516-1.13183594-1.36474609-1.18896484-1.32397461L438.375 43.625l-1.28369141-1.24047852-1.32568359-1.18920898-1.36523438-1.13183594L433 39l-2.890625-1.8828125L427.125 35.5l-2.6796875-1.34375-1.56337142-.59603226L421 33l-2.40621972-.54195964-2.82202506-.51527417-3.25139666-.52207923-1.73918134-.23157844L409 31l-1.77666825-.11346689-1.81069547-.06885299-1.86651537-.04252876-1.92606094-.02124702-1.99704221-.01112221-2.06668613-.00094367-2.13526582.00839638-2.21446181.00925613-2.30984115-.00129319-2.38745499-.0038948-2.45424726-.00255619-2.51639101-.00060429-2.57002876.00430487-2.62441733.00612237-2.6776287.0062848-2.72811824.00509468-2.77704173.00126663-2.82132071-.0003604-2.86198868-.00074535-2.89799009-.0008914-2.92776369-.00034118-2.95861007.00007904-2.98752764.00042834-3.01922223.00129674-3.05904839.00292026-3.0808821.00376488-3.08834897.00412195-3.09307064.00436015-3.09723236.00437248-3.0804715.00421822-3.05332946.00396728-2.9940033.00328064-2.88105011.00191879-2.82204437.00117874-5.57528687.00132752-11.20257568.00167847-23.93994141.0090332L219.25 30.875 31 31Zm202 222-.125 51.0625-.05517578 16.03930664-.0090332 6.53381348-.00167847 3.07237243-.00442505 3.0771637-.01583862 3.27085876-.01516724 3.30128479-.00585556 3.23860741.00512314 3.15433693.0177269 3.01406288.03909683 2.88391686.06481171 2.75697708L233 357l.17060089 2.38508224.21105194 2.21547318.24075508 2.07739162.25308037 1.91751194.48025513 3.32151795L235 372l.51134872 1.76881599.56918717 1.77624321L237.1875 378.6875l1.3359375 3.18359375L240 385l.78613281 1.58251953.81542969 1.57763672.84204102 1.55688477L243.3125 391.25l1.81640625 2.96875L247 397l1.83984375 2.46875L250.75 401.75l2.03515625 2.16015625L255 406l2.49609375 2.12109375L260.1875 410.1875l2.79296875 1.953125 1.46630859.93945312L266 414l1.71337891.91210938 1.77490234.88476562 1.77075195.84301758L273 417.4375l1.67260742.7487793 1.57739258.68481445L279 420l3 1 1.7411871.13701439 1.95557498.01688576 2.25471497.02606201 2.46038818.01290893 2.60298157.02478028 2.73916626.02389526 2.86402702.01700974 2.94055367.01488113 2.95515633.01613235 2.99920463.01551438 3.05379582.01432228 3.10317135.01262474 3.15835475.009161 3.19101048.00890541 3.20782471.01000976L326.4375 421.375l3.19281006.02661133 3.17706299.03051758 3.1588583.03034019 3.13337803.02581215 3.10250186.01307106 3.06352902.00783348 3.01626778.00413895 2.96418571.01011276 2.9092083.03577805 2.84016609.03291702 2.75815296.00850391 2.66996288-.01714039 2.57789898-.04082965 2.46595478-.0956297 2.34183121-.16406059L372 421l1.99755478-.48828316 1.83749771-.59950065 1.69765568-.65318108 1.55445003-.68359566 2.68940735-1.33110046L384 416l1.83732605-.93513489 1.52204895-.79533386L389.75 412.8125l2.484375-1.48046875L394 410v-2l2.125-.5625L399 406l1.5625-1.55078125L402.125 402.625l1.515625-1.87890625L405 399l1.875-2.3125L408 395v-2h2l1.62109375-2.89453125.89208984-1.88037109L413.4375 386.1875l.94775391-2.06884766.93115234-2.08349609.89111328-2.08154297L417 378l1.08984375-3.12890625L418.875 372.125l.6171875-2.3671875L420 367l.26434994-1.86328793.260293-2.14280033.26295281-2.43055534L421 358l.09025764-2.49687386.02999688-2.57162284.00417423-2.70919133-.01090336-2.88271236.00036526-3.15716457-.00073147-3.29950047-.00758362-3.37962341-.00791931-3.35096741-.00221252-3.12034607-.00083924-3.10707092-.0045166-6.62438965L421.0625 304.9375 421 253H233Zm220 30v48l11-1 4.1875-1.4375L471 327v-2l3-1 1.5-1.125L477 321l1.625-3.0625.73046875-1.86328125L480 314l.55078125-2.29296875L480.9375 309.25l.1796875-2.56640625L481 304l-.5546875-2.83984375L479.5625 298.3125l-1.14453125-2.76171875L477 293l-1.69921875-2.14453125L473.375 289l-2.09375-1.62890625L469 286l-2.53125-1.08984375L463.875 284.0625l-2.3828125-.65234375L459 283h-6ZM31 453v28h420v-28H31ZM282 59l2.3359375-.26171875L286.9375 58.625l2.62890625.05859375L292 59l1.83984375.72265625L295.375 60.6875 298 63l2.3125 2.625L302 68l1 2 .203125 2.20703125L303.25 74.8125l-.0390625 2.71875L303 80l-1.125 2.8125L300 85l-1.46484375 1.37109375L296.9375 87.75l-1.53515625 1.234375L294 90l-2 1-2.171875.23828125L287.25 91.3125l-2.7109375-.03125L282 91l-1.8515625-.71875L278.625 89.3125 276 87l-2.3125-2.625L272 82l-1-2-.203125-2.171875L270.75 75.25l.02734375-2.70703125L271 70l.56640625-1.88671875L272.3125 66.5625 274 64l1.375-1.75L277 61l2.0625-1.1875L282 59Zm60 0 2.3359375-.26171875L346.9375 58.625l2.62890625.05859375L352 59l1.83984375.72265625L355.375 60.6875 358 63l2.3125 2.625L362 68l1 2 .203125 2.20703125L363.25 74.8125l-.0390625 2.71875L363 80l-1.125 2.8125L360 85l-1.46484375 1.37109375L356.9375 87.75l-1.53515625 1.234375L354 90l-2 1-2.171875.23828125L347.25 91.3125l-2.7109375-.03125L342 91l-1.8515625-.71875L338.625 89.3125 336 87l-2.3125-2.625L332 82l-1-2-.203125-2.171875L330.75 75.25l.02734375-2.70703125L331 70l.56640625-1.88671875L332.3125 66.5625 334 64l1.375-1.75L337 61l2.0625-1.1875L342 59Zm60 0 2.3359375-.26171875L406.9375 58.625l2.62890625.05859375L412 59l1.83984375.72265625L415.375 60.6875 418 63l2.3125 2.625L422 68l1 2 .203125 2.20703125L423.25 74.8125l-.0390625 2.71875L423 80l-1.125 2.8125L420 85l-1.46484375 1.37109375L416.9375 87.75l-1.53515625 1.234375L414 90l-2 1-2.171875.23828125L407.25 91.3125l-2.7109375-.03125L402 91l-1.8515625-.71875L398.625 89.3125 396 87l-2.3125-2.625L392 82l-1-2-.203125-2.171875L390.75 75.25l.02734375-2.70703125L391 70l.56640625-1.88671875L392.3125 66.5625 394 64l1.375-1.75L397 61l2.0625-1.1875L402 59ZM70 261l2.3359375-.26171875L74.9375 260.625l2.62890625.05859375L80 261l1.83984375.72265625L83.375 262.6875 86 265l2.3125 2.625L90 270l1 2 .14044189 2.10505676.02069092 2.63249207.02911377 2.98408508.01287842 3.23539734.01727295 3.31852722.01397705 3.42951965.0031929 1.7576952.00266648 1.77575207.00329589 1.78546143L91.25 296.8125l.01428223 1.78265381.01696777 1.77520752.01695633 1.76503467.01429367 1.74936962.00994873 3.4325409.00567627 3.32722473.03741455 3.21699524-.00909424 3.01274109-.0874176 2.75765991L91 322a858660338.4837333 858660338.4837333 0 0 1-1.42456055 3.11303711L88 327l-1.53515625 1.546875L84.9375 329.75l-1.53515625 1.234375L82 332l-2 1-2.171875.23828125L75.25 333.3125l-2.7109375-.03125L70 333l-1.8515625-.71875L66.625 331.3125 64 329l-2.3125-2.625L60 324l-1-2-.14044189-2.09832764-.02069092-2.62335205-.02911377-2.9743042-.01287842-3.22589111-.01727295-3.31134033L58.765625 304.34375l-.0031929-1.75471115-.00266648-1.7726326-.00329589-1.78210449L58.75 297.25l-.01428223-1.77648926-.01696777-1.76843262-.01695633-1.75834274L58.6875 290.203125l-.00994873-3.42706299-.00567627-3.32293701-.03741455-3.20135498.00909424-3.01251221.08679199-2.78259277L59 272l.64172363-1.9810791.79284668-1.62536621L62 266l1.375-1.75L65 263l2.0625-1.1875L70 261Z"/></svg>