<svg viewBox="0 0 512 512"><path fill="currentColor" d="M207.44921875 1.29296875C214.62215793 5.00252428 220.98224437 9.6374439 227 15l2.30078125 2.015625c9.75298778 9.09605078 18.81974173 22.51713374 21.20703125 35.8125C251.0238568 55.62950832 251.45836751 57.59578743 253 60c3.12530894 1.50814327 6.1508538 2.28612463 9.5234375 3.09375C273.60371581 65.98209221 284.06950711 73.94073475 292 82c7.43119355-1.93362689 14.691709-4.16579597 21.9375-6.703125l3.09933472-1.07533264C320.35912104 73.06786858 323.67957597 71.90902156 327 70.75c2.31516356-.80522889 4.63043177-1.61015697 6.94580078-2.41479492 5.88322703-2.04557184 11.76490219-4.09556602 17.64611817-6.14691162 4.29758468-1.49843613 8.59605285-2.99432615 12.89459228-4.49002075 8.19065582-2.85022182 16.38051677-5.70273531 24.56817627-8.56155396l2.34599304-.8180542c3.58060404-1.25129192 7.15560547-2.51511759 10.71968079-3.81280518l1.93814087-.70341491c1.69106743-.61578431 3.38021382-1.23683732 5.06918335-1.85835266 6.22781864-2.04700168 10.24909293-2.15736957 16.2590332.62231445C447.46317386 54.5974437 467.31592402 74.07736841 481 95l1.16845703 1.76953125c20.54160922 31.5245113 30.67119206 66.79431925 30.46264649 104.26733398.00515517 2.39957709.01244835 4.79915036.02168273 7.19871521.01831159 6.4376778.00570757 12.8749346-.01409029 19.31259418-.0112625 4.03457811-.01141762 8.06910783-.00855566 12.10369801l.0014468 2.04417824a98469.05698076 98469.05698076 0 0 0 .00316576 4.11386325c.00851837 12.05651254-.00795346 24.11286127-.03782903 36.16933393-.02887071 11.65143701-.03589327 23.30263854-.02050781 34.95410156.01681842 12.75374506.02074264 25.507379.00328964 38.26112705a298077.23002635 298077.23002635 0 0 0-.00550408 4.09036106l-.0027639 2.03181611c-.005567 4.68712582-.00217404 9.3741794.00430886 14.06130447.00770925 6.32129658-.00461404 12.64225763-.03184891 18.96349716-.00683437 2.30688927-.00703562 4.61381017.00021553 6.92069817.08480269 30.51412432-7.93647734 57.7854231-29.67692566 79.90581512C481.91369241 482.11423563 480.95812317 483.05841947 480 484l-2.3046875 2.30078125C465.80889454 497.51232932 450.07921077 504.97007511 434.625 509.9375l-3.7734375 1.21484375C413.51313611 514.76756552 399.319817 509.37561814 383.125 503.4375c-2.45055544-.87601191-4.90206839-1.74934953-7.35449219-2.62011719-4.93760919-1.75667281-9.87017716-3.52645751-14.79882812-5.30810547-8.84671009-3.19314016-17.73008978-6.27774526-26.61730957-9.35586547-4.35250516-1.5098103-8.70100909-3.03104551-13.04968262-4.55184937a166783.90963131 166783.90963131 0 0 0-5.14941406-1.79980469l-2.57287598-.89929199C305.6807113 476.1410777 297.77793825 473.38280228 289.875 470.625l-2.65847778-.92782593c-15.67329261-5.46938867-31.35634219-10.91045291-47.04104615-16.34701538-14.53972407-5.04030525-29.07067668-10.10483447-43.59207153-15.19769287-9.75070059-3.41930144-19.50640559-6.82352892-29.27090454-10.20324707l-3.03918457-1.05201721a595336.6523707 595336.6523707 0 0 0-6.16369629-2.13337708L155 423.6875l-3.10766602-1.07559204c-16.49532097-5.71194635-32.95473337-11.52051945-49.40182495-17.36968994C88.50549776 400.27142619 74.49063527 395.39967889 60.4375 390.625c-24.7759937-8.42829589-24.7759937-8.42829589-35.09811401-12.04229736-1.32864459-.46390635-2.65830709-.92490985-3.98907471-1.38269043C5.05442682 371.58847377 5.05442682 371.58847377 0 364c-.50057125-3.31869507-.50057125-3.31869507-.50120544-7.17333984l-.0167709-2.15540123c-.01358767-2.37775679.00135144-4.75446042.01626736-7.13219643-.00378389-1.70689337-.0092845-3.41378366-.01637269-5.1206665-.0139629-4.63225388-.002779-9.26413667.01371122-13.89636994.01384964-4.84767702.00739052-9.69533249.00386691-14.54302215-.00270219-8.1408486.01077424-16.28154977.03395081-24.42236328.02660978-9.41188767.02835686-18.82352882.01661163-28.23544121-.01077928-9.05397763-.00458952-18.10786608.00955528-27.16183663.0057585-3.85317085.00567819-7.70627643.0009346-11.55944824-.00477239-4.53743772.00534274-9.07460551.02695465-13.61199188.00556447-1.66527903.00603627-3.33058402.00104714-4.99586487-.00595636-2.2732055.00655816-4.54558671.02376938-6.81871796l.00736332-3.85464477C.03098624 189.72960986.84259487 187.86513737 3 185c3.11961609-2.21980062 6.29382778-3.61192564 9.890625-4.8828125l3.01000977-1.07104492L19.25 177.875l3.62866211-1.2824707c16.46134112-5.80812905 32.96635967-11.49369794 49.46118164-17.20581055C84.1059397 155.31201541 95.86744528 151.22428146 107.625 147.125l2.66845703-.92980957c9.07743939-3.16382137 18.14883099-6.3431965 27.20263672-9.57409668l2.23657227-.79748535c3.42175412-1.22073702 6.84208373-2.44522089 10.26000976-3.67663574l3.54248047-1.26806641 3.07446289-1.10717773C159 129 159 129 161 129l.078125-1.984375C161.80092523 115.38511214 165.99952994 105.41081472 171 95h2v-3h2l1-4h2l.5-2.0625c2.18991933-4.28859203 5.62000999-7.13259056 9.5-9.9375h2l1-3h3v-2h3v-2c2.581658-1.14973839 5.16518307-2.29490359 7.75-3.4375l2.2109375-.98632813 2.1484375-.94726562 1.96777344-.87280273C213.03072471 61.98791843 214.95471205 61.46357207 217 61c-.3459862-6.57373773-4.04396091-13.07801666-8.6953125-17.67578125C207 42 207 42 207 40l-1.734375-.82421875c-2.29826814-1.19272192-4.37683963-2.5303682-6.515625-3.98828125-2.97225344-2.0174109-5.97001978-3.92341355-9.0625-5.75C185.74199813 27.0010347 183.08868749 24.17737497 181 20c-.55392533-5.92274007-.56489548-11.00914632 3-16 6.09452028-6.25923704 15.70728749-5.6091595 23.44921875-2.70703125Zm199.07421875 76.171875-2.35498047.80203247c-2.59902606.88671866-5.19629704 1.77845543-7.79345703 2.67062378l-2.70721436.92648315c-17.49878313 5.98937999-34.93682158 12.14855516-52.35772705 18.36038208C330.90883224 103.93021149 320.49655585 107.57202908 310 111l.4375 3.6875.24609375 2.07421875c.29211814 2.26317807.29211814 2.26317807.82128906 4.56616211C315.04710061 140.44502769 310.91760145 159.50339561 301 176c-11.62278368 16.69813912-28.40174226 29.47086444-48.63671875 33.41015625C230.31526018 212.82706 209.81717698 208.77222747 191.6875 195.5625 179.73891675 186.22766933 172.4353662 175.71935212 166 162c-8.02621364 2.07020097-15.84456811 4.56033948-23.671875 7.28125l-3.60507202 1.24395752c-3.17416477 1.0962904-6.34717624 2.19579315-9.51959992 3.29710388-2.61566132.90742076-5.23224609 1.81216257-7.84881019 2.71697617C102.86987781 182.93225588 84.40520496 189.38103459 66 196v2l3.35668945 1.13891602c34.03879326 11.55450983 68.03168157 23.23644749 101.8671875 35.375 16.25592935 5.82181237 32.60076437 11.38796185 48.94799805 16.94702148 32.42838568 11.02916339 32.42838568 11.02916339 44.015625 15.1640625l2.54858398.89111328c5.51516946 1.99734468 10.64109206 3.92316384 13.90466309 9.07289124 1.68335825 4.22432592 1.77860626 7.65246006 1.74401856 12.15098571l.01628112 2.59909058c.00975201 1.85457042.01272997 3.70918634.00964356 5.56377983-.00449092 2.93885512.00955837 5.8771122.0283966 8.81590462.03672599 6.23956861.05048248 12.47907397.06091309 18.71873474.01209256 7.22940514.03369026 14.45851789.08000183 21.68779182.01353964 2.8888094.00940499 5.77724625.0045929 8.66607476.00934408 1.77975432.01951377 3.55950457.03063964 5.33924865l-.01863098 2.41703797c.06836342 6.24914648 1.22762734 11.09008302 5.59089661 15.8273468 4.65906964 2.69190691 8.74586835 2.9896997 14 2.0625 3.98673667-2.03766541 6.90152774-4.86181282 8.44134521-9.21549988.49905151-2.98768206.49595766-5.8694155.49713135-8.89900207l.00566101-2.00708008c.00399439-1.43446274.00607796-2.8689318.0064621-4.30340004.00342925-3.05645083.0248089-6.11269153.04523087-9.16906834.03794301-5.68506851.06928661-11.36990974.06715774-17.05511951-.00078913-3.96012058.02265908-7.9194668.06188202-11.879385.01042922-1.50415689.01200672-3.0084035.00434876-4.51257705-.06062288-13.22764073-.06062288-13.22764073 3.02605438-17.74866295 3.57941503-3.56658913 6.64540692-5.64841625 11.85435486-5.64718628 6.44703632.59893575 12.06523024 2.18130694 18.11927795 4.4291687l2.91853333 1.05047607c2.05330593.74013978 4.1048234 1.48525742 6.15464782 2.23498536 5.3549827 1.95750189 10.72404992 3.87575472 16.09088135 5.80047607l3.23101807 1.16238403c8.81501035 3.16740597 17.65461689 6.25385568 26.53530883 9.23220826 1.41405604.47492751 2.82709457.95289584 4.23907471 1.43395996 1.92662342.65588039 3.85699146 1.30073121 5.78756714 1.94488525l3.23193359 1.08447266c2.47265966.9089474 2.47265966.9089474 4.49462891-.37353516v-2l4-1v-2l2.25-.6875c3.34878921-1.59828576 4.47429565-3.38659441 6.75-6.3125 1.31377224-1.18865108 2.64903212-2.3537999 4-3.5 3.06659261-2.61796147 5.55977677-5.27541931 8-8.5l4-4c3.00637148-3.09136904 3.00637148-3.09136904 4-7h2l1-4h2v-3h2v-3h2l1.1015625-2.203125L461.625 267.75l1.6640625-3.3515625c1.05275615-2.09109099 2.12647225-4.17197142 3.234375-6.234375 17.08771465-32.27679433 17.58729717-68.54537629 7.15478516-102.98828125C468.11121394 137.31646459 459.97077081 119.49093309 448 105l-1.34716797-1.65771484C437.75339209 92.43281468 428.19982588 82.29643432 416 75c-3.32206776 0-6.36120565 1.39432446-9.4765625 2.46484375ZM205.5625 103.75c-4.35986894 4.64679451-7.20518788 9.35671969-9.5625 15.25l-1.25 2.875c-3.05056277 12.71067819-1.86939468 24.69515014 4.359375 36.23046875C205.98668953 168.63458046 215.1388684 174.46115416 227 178c11.65079998 1.85455609 21.7318609.85444011 32-5 1.33004475-.67320367 2.66257692-1.34157633 4-2v-2l1.75-.75c2.57939979-1.43299988 4.31121592-3.03424676 6.25-5.25v-2h2v-3h2c5.38319019-12.13700813 8.03439349-24.01658821 4-37-5.05018871-12.22997508-11.60705355-20.38006189-23.63671875-26.296875C237.91122482 87.67134752 219.27689328 90.80882177 205.5625 103.75ZM31 220v46l12.3125 4.0625c14.46977851 4.80599021 28.8685188 9.80642616 43.2590332 14.84399414 1.8745832.6561969 3.74917645 1.31236508 5.6237793 1.96850586l2.87278748 1.00559998C106.70188324 291.94978976 118.35146309 295.97328841 130 300c15.03576073 5.1990476 30.06747454 10.40918396 45.0871582 15.6545105 2.57819296.90025555 5.15661156 1.79986171 7.73510743 2.69924927 7.58336536 2.64534439 15.16641037 5.2915594 22.74658203 7.94604492 5.69724015 1.99499907 11.39607035 3.98539906 17.09585571 5.97311401 2.21101752.77201819 4.4214544 1.54570146 6.63128662 2.32110596 3.06653022 1.07579683 6.13501159 2.14583755 9.20401001 3.21456909l2.78694153.98239136 2.55680847.88650512 2.22460937.77806092c2.07840588.68009288 2.07840588.68009288 4.93164063.54444885v-45c-20.85514472-7.3505838-41.72592159-14.650454-62.625-21.875-16.89683802-5.84106621-33.78697651-11.70040878-50.66467285-17.59655762-10.32022582-3.60509317-20.64314556-7.20217344-30.9720459-10.78234863l-3.14865112-1.09140015c-4.19034189-1.45227433-8.3807575-2.90433493-12.57144165-4.35562133-10.76650134-3.72895037-21.52853496-7.46930243-32.27209473-11.26391602l-2.65222168-.93603516c-4.08674549-1.44285834-8.17216672-2.88929088-12.25549316-4.34179687-1.4239576-.50383759-2.84794647-1.00758678-4.27197266-1.51123047l-3.72045898-1.32250977C33.18162117 219.89710724 33.18162117 219.89710724 31 220Zm449 78c-1.46640721 1.8783539-2.89386643 3.77350927-4.3125 5.6875-5.05520536 6.69615722-10.55634937 12.85714031-16.35351563 18.91552734-1.1375711 1.19128512-2.26076661 2.3962703-3.38085937 3.60400391C449.17908791 333.31398042 441.16007547 339.55994969 433 345c-.44760893 2.36902064-.44760893 2.36902064-.36076355 5.17581177l-.01249695 3.32299804.03268433 3.66183472-.00132752 3.84320068c-.00086278 3.48336824.0168084 6.96642825.03772188 10.44972468.01871983 3.6381721.02051352 7.27635082.02407622 10.91456365.00933432 6.89194899.03396673 13.78375566.06404847 20.6756419.03350098 7.84510074.05001917 15.69020817.0650863 23.5353626C432.88040959 442.71950875 432.93319688 458.85973623 433 475c4.24578728-1.36711255 7.98054804-2.94030744 11.875-5.125l2.9296875-1.6328125L450 467v-2h3c3.58599419-3.19831915 6.61895603-6.84622632 9.66796875-10.546875C464 453 464 453 466 452v-3h2c12.53281142-22.84773767 13.31853929-45.98659338 13.1953125-71.5078125-.00374001-2.30597815-.0065823-4.61195791-.00857544-6.91793823-.00755877-6.00693312-.02713865-12.01376622-.04940796-18.0206604-.02062755-6.15456796-.02962956-12.3091524-.03967285-18.46374512C481.07634358 322.05985241 481.04230387 310.02993459 481 298h-1Zm-449 2v46l12 3.9375c13.41855744 4.44639484 26.74672655 9.1307631 40.0625 13.875 18.77032284 6.68702235 37.58925104 13.22421734 56.4375 19.6875 19.54260567 6.70187065 39.05017202 13.49277358 58.51220703 20.42578125C211.97124155 408.89602591 225.96534073 413.7476456 240 418.5c16.00848475 5.42072247 31.95432808 10.99953933 47.87536621 16.67166138 20.41836659 7.26989563 40.90753016 14.32829056 61.41345215 21.34640503 2.4402857.83613355 4.88047263 1.67255538 7.32055664 2.50927734l3.57582092 1.22564697c6.28016885 2.16042258 12.54662629 4.35478651 18.79722595 6.59906006l1.97456742.70863056c3.13547885 1.12649968 6.26892418 2.25815934 9.40037155 3.39584637l3.35064697 1.20973206 2.95880127 1.07545471C398.90812483 474.1030285 398.90812483 474.1030285 401 474v-46c-12.32938585-4.19309786-12.32938585-4.19309786-24.65942383-8.38427734-8.62355309-2.93772548-17.23110564-5.90753611-25.78979492-9.02978516l-2.17115784-.78831482c-3.33762913-1.21266103-6.66989996-2.437278-9.99510193-3.68360901l-3.55639648-1.29760742-3.06542969-1.14233398C326.09937525 402.29227422 321.86148057 404.89963699 316.9375 407.5c-10.07610758 5.28756752-20.99385426 6.08872915-32.1796875 3.8515625C282.0216256 410.42363825 279.55940382 409.33931535 277 408l-2.828125-1.47265625C263.4511635 400.3321785 257.27469506 391.48480302 253 380l-.22525024-2.0131073c-.61708814-2.21712434-.61708814-2.21712434-3.03533936-3.20217895l-3.04556274-1.02030945-3.46707154-1.18885804c-1.27081529-.41738101-2.54172263-.83448184-3.81271362-1.25132751-1.31575595-.44481007-2.63100414-.89112461-3.94577026-1.33885193-2.80834028-.95299754-5.61981516-1.8958134-8.43423462-2.83070373-4.43315387-1.4727099-8.85870031-2.96735795-13.28308106-4.46618653-5.17194911-1.7508007-10.3453217-3.49722942-15.52095031-5.23712349-10.0201015-3.36953888-20.01008755-6.8208794-29.98405457-10.3246746-4.2184216-1.48166721-8.43928479-2.95634555-12.66003418-4.43136597l-2.55383301-.89289856C141.82158343 337.88541423 130.59773328 334.00683618 119.375 330.125a589393.8125097 589393.8125097 0 0 1-6.54174805-2.26318359c-3.28168398-1.13532941-6.5633716-2.27064828-9.84507751-3.40591431-11.27744665-3.9014787-22.55396217-7.80563779-33.82893372-11.71426392-2.12102576-.73513623-4.24215746-1.46996687-6.36340332-2.20446777-2.94394089-1.01940765-5.88757079-2.03970553-8.83099365-3.06060791l-2.72485352-.94454956c-5.49471664-1.90984879-10.96822106-3.86733867-16.40966796-5.92507935C33.00499599 299.89508464 33.00499599 299.89508464 31 300Zm312 29v45c8.17081184 2.91840704 8.17081184 2.91840704 16.34228516 5.83496094 5.90334459 2.1063198 11.80542471 4.21586035 17.70166015 6.3420105 1.94691742.70190959 3.89428531 1.40255452 5.84179688 2.10281372 2.46770859.88776928 4.9345269 1.77801766 7.40039062 2.67089843l3.37792969 1.21337891 2.98291016 1.07666016c2.25817146.86164045 2.25817146.86164045 4.35302734.75927734v-46c-8.57236174-2.95487393-8.57236174-2.95487393-17.14550781-5.9074707-6.49402654-2.23657305-12.98362316-4.48427419-19.46386719-6.76049805l-3.58251953-1.25415039c-2.25751248-.79098023-4.51374121-1.58563568-6.76855469-2.38427734l-3.07861328-1.07641602-2.69384766-.94970703C345.91424148 328.85878261 345.91424148 328.85878261 343 329Z"/><path fill="currentColor" d="M390.375 247.6875c3.59456418 3.16663987 7.36959262 6.53740056 7.828125 11.51953125C398.36270191 268.07684777 398.36270191 268.07684777 395 272c-5.17779538 4.84641648-8.43148353 6.36228117-15.4609375 6.28125-4.97508963-.55108685-7.66425653-3.28822701-10.8515625-6.90625-3.32258961-4.67623723-3.179614-8.75454014-2.6875-14.375 1.78654852-4.67905565 3.73206112-7.69421701 8.0625-10.1875 5.7229855-1.58295344 10.95004037-1.80622981 16.3125.875ZM440.375 187.6875c3.59456418 3.16663987 7.36959262 6.53740056 7.828125 11.51953125C448.36270191 208.07684777 448.36270191 208.07684777 445 212c-5.17779538 4.84641648-8.43148353 6.36228117-15.4609375 6.28125-4.97508963-.55108685-7.66425653-3.28822701-10.8515625-6.90625-3.32258961-4.67623723-3.179614-8.75454014-2.6875-14.375 1.78654852-4.67905565 3.73206112-7.69421701 8.0625-10.1875 5.7229855-1.58295344 10.95004037-1.80622981 16.3125.875ZM360.375 177.6875c3.59456418 3.16663987 7.36959262 6.53740056 7.828125 11.51953125C368.36270191 198.07684777 368.36270191 198.07684777 365 202c-5.17779538 4.84641648-8.43148353 6.36228117-15.4609375 6.28125-4.97508963-.55108685-7.66425653-3.28822701-10.8515625-6.90625-3.32258961-4.67623723-3.179614-8.75454014-2.6875-14.375 1.78654852-4.67905565 3.73206112-7.69421701 8.0625-10.1875 5.7229855-1.58295344 10.95004037-1.80622981 16.3125.875ZM420.375 117.6875c3.59456418 3.16663987 7.36959262 6.53740056 7.828125 11.51953125C428.36270191 138.07684777 428.36270191 138.07684777 425 142c-5.17779538 4.84641648-8.43148353 6.36228117-15.4609375 6.28125-4.97508963-.55108685-7.66425653-3.28822701-10.8515625-6.90625-3.32258961-4.67623723-3.179614-8.75454014-2.6875-14.375 1.78654852-4.67905565 3.73206112-7.69421701 8.0625-10.1875 5.7229855-1.58295344 10.95004037-1.80622981 16.3125.875Z"/></svg>