<svg fill="none" viewBox="0 0 481 512"><path fill="currentColor" d="M83.9298 180.612c1.8869-.008 1.8869-.008 3.8119-.016 3.4847-.014 6.9691-.01 10.4538-.003 3.7605.005 7.5215-.008 11.2825-.018 7.365-.017 14.73-.018 22.095-.013 5.986.005 11.972.003 17.958-.002 1.278-.001 1.278-.001 2.582-.003 1.731-.001 3.462-.003 5.192-.004 16.231-.014 32.462-.008 48.693.003 14.848.01 29.697-.003 44.545-.027 15.248-.024 30.495-.034 45.743-.027 8.56.003 17.12.001 25.679-.017 7.287-.014 14.574-.015 21.86.003 3.718.008 7.435.01 11.152-.005 4.031-.016 8.061-.002 12.091.016 1.761-.015 1.761-.014 3.558-.029 6.53.059 10.665.555 15.936 4.53 4.307 5.564 4.523 10.059 4.25 16.938-.018.874-.036 1.749-.054 2.65-.047 2.138-.119 4.275-.196 6.412.638-.009 1.275-.018 1.932-.027 6.684-.089 13.368-.149 20.053-.193 2.489-.02 4.978-.047 7.466-.082 3.595-.049 7.189-.071 10.784-.089 1.646-.03 1.646-.03 3.325-.062 13.308-.004 24.011 4.429 33.663 13.555 9.679 10.24 13.35 21.612 13.049 35.581-.293 6.248-1.603 12.24-3.034 18.312-.845 3.586-1.635 7.185-2.433 10.782-.239 1.065-.239 1.065-.482 2.152-1.344 6.035-2.447 12.095-3.447 18.196-1.431 8.641-3.167 17.181-5.095 25.725-1.1 4.897-2.072 9.77-2.84 14.73-2.138 13.418-8.157 25.906-19.284 34.158-11.609 7.403-22.472 8.864-35.918 8.871-1.644.015-3.287.032-4.93.051-4.289.043-8.578.063-12.867.078-4.392.02-8.783.062-13.174.102-8.589.075-17.178.125-25.768.16-.594.804-1.189 1.608-1.801 2.436-.801 1.076-1.601 2.152-2.402 3.228-.78 1.052-1.56 2.103-2.364 3.186-2.918 3.779-6.047 7.301-9.292 10.799-1.642 1.803-3.218 3.622-4.774 5.498-.781.942-1.562 1.883-2.367 2.853.565.001 1.13.001 1.712.002 13.764.015 27.528.058 41.292.13 6.656.034 13.312.06 19.969.064 6.425.004 12.851.032 19.276.078 2.45.013 4.899.017 7.349.012 3.435-.005 6.869.021 10.305.055 1.009-.009 2.018-.018 3.058-.026 6.507.105 11.058 1.357 16.039 5.685 3.015 4.334 3.631 7.779 3 13-1.681 5.336-3.756 8.501-8.84 11.226-4.257 1.526-8.634 1.183-13.097 1.024-.97-.018-1.94-.036-2.939-.055-2.376-.046-4.749-.112-7.124-.195-.122 1.201-.244 2.403-.371 3.641-1.359 10.756-7.36 19.772-13.629 28.359-.458.646-.917 1.292-1.39 1.957-10.638 13.681-28.979 23.172-45.863 25.406-10.464 1.218-21.043.924-31.559.912-2.484.004-4.968.009-7.451.015-6.012.012-12.024.015-18.037.012-4.89-.001-9.78 0-14.671.005-1.048.001-1.048.001-2.118.001-1.421.002-2.842.003-4.263.004-13.284.011-26.567.009-39.851.003-12.128-.005-24.256.006-36.384.025-12.488.019-24.977.027-37.465.024-6.997-.002-13.994 0-20.992.014-6.578.014-13.156.011-19.734-.002-2.406-.002-4.813 0-7.22.009-25.8331.082-46.9982-4.631-66.0015-23.385-9.4662-9.601-19-22.958-19-37-.5995.021-1.199.042-1.8167.064-2.7484.083-5.4966.135-8.2458.186-.9429.034-1.8859.067-2.8574.102-6.288.087-9.97926-.593-15.0801-4.352C1.49128 444.767.623762 441.429 0 437.063c.266703-4.727 2.31807-8.66 5.5625-12.063 5.4042-3.715 10.577-3.354 16.875-3.187.9745.013 1.9491.027 2.9531.041 2.3912.035 4.7813.084 7.1719.146-.3231-1.109-.6461-2.218-.979-3.36-1.2369-4.974-1.3444-9.773-1.3569-14.878-.0067-.962-.0134-1.923-.0202-2.914-.0101-2.024-.0148-4.049-.0145-6.073-.0044-3.068-.0407-6.135-.0786-9.203-.1099-18.982-.1099-18.982 4.4492-27.572.4808-.995.9616-1.99 1.457-3.016 6.1462-10.131 13.3592-16.536 24.543-20.984 2.9928-.513 5.9706-.81 9-1-.2036-.805-.2036-.805-.4114-1.626-4.6681-18.607-8.6809-37.456-8.7815-56.714-.0122-1.329-.0122-1.329-.0248-2.684-.0245-2.9-.0412-5.799-.0557-8.699-.0054-.996-.0107-1.993-.0162-3.02-.0266-5.268-.046-10.535-.0605-15.803-.0134-4.346-.0413-8.692-.082-13.038-.0494-5.269-.0741-10.537-.0812-15.807-.0067-2-.0219-4-.0459-6-.0317-2.8-.0317-5.598-.0243-8.398-.0164-.818-.0328-1.635-.0497-2.477.0628-5.83 1.5116-10.463 5.6332-14.734 5.6587-4.004 11.7158-3.422 18.3673-3.388ZM90.5625 211c-3.254 60.194-3.254 60.194 10.9995 121 .844.061 1.687.121 2.555.184 1.644.125 1.644.125 3.321.254 1.635.121 1.635.121 3.304.246 2.82.316 2.82.316 4.82 1.316 1.665.096 3.333.13 5 .125 1.331.004 1.331.004 2.688.008 2.339.018 2.339.018 4.312-1.133 2.838-.112 5.65-.164 8.489-.168.854-.003 1.708-.007 2.588-.01 1.817-.005 3.633-.007 5.45-.007 2.737-.002 5.473-.02 8.21-.04 17.325-.058 32.116.814 45.482 13.249 9.626 10.681 11.948 23.467 11.914 37.382.001.884.002 1.767.003 2.678.001 1.859-.001 3.718-.005 5.577-.005 2.83 0 5.661.006 8.491 0 1.814-.002 3.628-.004 5.442.002.839.004 1.677.006 2.541-.004 1.197-.004 1.197-.009 2.418-.001.692-.002 1.383-.003 2.096-.17 3.15-.651 6.234-1.127 9.351 9.276.257 18.551.451 27.829.57 4.31.057 8.618.134 12.926.26 4.17.121 8.337.185 12.508.214 1.58.02 3.159.059 4.738.119 11.175.407 17.595-1.679 25.936-9.257.504-.478 1.007-.956 1.526-1.449 1.59-1.507 3.222-2.954 4.872-4.395 35.807-31.467 56.448-76.1 61.665-123.062v-74H90.5625Zm299.9995 30c-.019 1.244-.039 2.488-.06 3.769-.077 4.699-.165 9.398-.257 14.096-.038 2.018-.073 4.036-.104 6.054-.262 16.445-1.213 32.422-4.829 48.519-.215.969-.43 1.939-.652 2.938-3.048 13.258-7.563 25.83-12.913 38.321-1.622 3.524-1.622 3.524-2.185 7.303 6.814.077 13.627.129 20.441.165 2.315.015 4.63.035 6.945.061 3.339.037 6.678.054 10.017.067 1.025.016 2.051.031 3.107.047 6.505.001 14.124-.097 19.09-4.881 4.935-6.325 5.498-15.519 6.838-23.209.444-2.437.895-4.874 1.346-7.31.303-1.637.605-3.275.904-4.913 1.323-7.212 2.853-14.367 4.438-21.527 2.068-9.517 4.021-19.051 5.812-28.625.224-1.144.448-2.288.678-3.467 1.377-7.56 2.619-15.368-1.24-22.345-6.31-5.48-12.566-5.478-20.559-5.356-1.056.004-2.111.009-3.199.013-3.352.017-6.703.054-10.055.093-2.281.015-4.561.028-6.842.041-5.574.033-11.147.083-16.721.146ZM63.1938 367.516c-2.9425 4.536-3.2318 8.907-3.1977 14.199-.0062.815-.0124 1.629-.0188 2.468-.0071 1.714-.004 3.428.0088 5.141.0138 2.604-.0203 5.204-.0584 7.807-.0009 1.674.0009 3.348.0059 5.021-.0133.768-.0265 1.536-.0402 2.328.1001 5.887 1.7774 10.063 5.6691 14.52 4.6961 3.336 9.0559 3.467 14.6172 3.469 1.224.011 1.224.011 2.4727.023 1.7195.011 3.4391.014 5.1586.009 2.6123-.001 5.2217.041 7.8335.085 1.6784.005 3.3568.008 5.0355.008 1.156.024 1.156.024 2.336.05 5.868-.074 10.175-1.644 14.546-5.644 3.046-5.078 3.447-9.562 3.399-15.312.004-1.159.004-1.159.009-2.341.002-1.624-.004-3.248-.016-4.871-.016-2.469-.001-4.937.019-7.406-.002-1.586-.006-3.171-.012-4.757.006-.73.012-1.459.018-2.211-.083-6.146-1.305-11.044-5.854-15.477-4.646-2.946-9.158-2.81-14.547-2.863-1.1615-.012-1.1615-.012-2.3466-.025-1.6373-.013-3.2747-.024-4.9121-.032-1.6641-.012-3.3282-.032-4.9922-.062-2.4165-.043-4.832-.058-7.249-.069-.7336-.017-1.4672-.035-2.2231-.053-6.0232.025-11.4926 1.378-15.6612 5.995ZM148.562 362c.071.548.142 1.095.215 1.659 1.02 9.23.937 18.458.916 27.731-.006 2.867 0 5.735.006 8.602 0 1.841-.002 3.683-.004 5.524.002.848.004 1.696.006 2.57-.018 4.742-.347 9.236-1.139 13.914 3.333.147 6.665.235 10 .313 1.402.062 1.402.062 2.833.127 5.732.1 9.633-.626 14.511-3.674 4.642-4.95 5.109-10.635 5.055-17.078.004-1.159.004-1.159.009-2.341.002-1.624-.004-3.248-.016-4.871-.016-2.469-.001-4.937.019-7.406-.002-1.586-.006-3.171-.012-4.757.006-.73.012-1.459.018-2.211-.083-6.146-1.305-11.044-5.854-15.477-3.787-2.402-6.894-2.751-11.328-2.723-.89.004-1.779.007-2.695.01-.921.009-1.841.017-2.79.026-1.403.006-1.403.006-2.835.013-2.305.012-4.61.028-6.915.049Zm-84.9995 90c3.891 11.673 11.1403 20.166 22.125 25.875 7.54 3.63 14.0937 4.419 22.3545 4.393 1.043.004 2.086.009 3.161.013 3.488.013 6.976.011 10.464.01 2.503.006 5.007.012 7.511.02 6.092.016 12.183.022 18.275.023 4.955.001 9.91.005 14.865.012 14.064.017 28.128.026 42.193.025h2.295c.759 0 1.517 0 2.299-.001 12.284 0 24.568.019 36.853.047 12.629.029 25.258.043 37.888.041 7.084-.001 14.168.005 21.252.026 6.665.02 13.331.02 19.996.005 2.442-.002 4.883.003 7.324.015 17.925.083 31.816-.607 45.402-13.676 6.936-7.416 6.936-7.416 9.742-16.828H63.5625ZM159.68 2.16026c2.072 1.51219 3.973 3.12694 5.882 4.83984.878.68836.878.68836 1.774 1.39063 4.438 3.81527 6.937 8.39527 9.539 13.54687.338.6682.675 1.3364 1.023 2.0249 5.479 11.3699 6.539 23.5554 3.04 35.7876-4.723 13.3972-12.023 21.9388-22.813 31-4.113 3.5976-6.212 6.4357-6.906 12.0119-.36 7.169.607 11.813 5.343 17.238 2.028 2.109 4.084 4.154 6.231 6.141 2.842 2.986 3.702 5.128 4.082 9.234-.473 5.484-2.225 8.896-6.375 12.438-4.34 3.231-6.495 3.544-11.938 3.187-9.381-2.655-16.738-10.555-21.753-18.668-6.643-12.432-8.446-27.046-5.125-40.8397 4.172-11.8303 11.219-21.0462 21.128-28.5547 5.384-4.2076 8.177-7.768 9.118-14.6055.293-6.2457-.481-11.3283-4.368-16.332-2.246-2.1385-4.541-4.1219-6.976-6.043-3.367-3.2566-4.316-6.7933-4.398-11.3945.105-4.5294 1.39-7.08023 4.374-10.5625 5.367-4.86336 12.774-5.31616 19.118-1.83984ZM234.68 2.16026c2.072 1.51219 3.973 3.12694 5.882 4.83984.878.68836.878.68836 1.774 1.39063 4.438 3.81527 6.937 8.39527 9.539 13.54687.338.6682.675 1.3364 1.023 2.0249 5.479 11.3699 6.539 23.5554 3.04 35.7876-4.723 13.3972-12.023 21.9388-22.813 31-4.113 3.5976-6.212 6.4357-6.906 12.0119-.36 7.169.607 11.813 5.343 17.238 2.028 2.109 4.084 4.154 6.231 6.141 3.025 3.179 3.72 5.346 4.145 9.734-.121 4.337-1.564 6.782-4.376 10.125-3.428 3.021-5.59 4.89-10.187 5.25-8.663-.568-13.974-5.163-19.813-11.25-10.968-13.21-13.075-26.857-11.796-43.6718 2.033-13.5236 11.021-25.0234 21.609-33.1406 1.092-.7831 1.092-.7831 2.207-1.582 4.31-3.494 6.609-7.7132 7.316-13.2188.092-6.3402-.367-11.2767-4.336-16.3867-2.246-2.1385-4.541-4.1219-6.976-6.043-3.367-3.2566-4.316-6.7933-4.398-11.3945.105-4.5294 1.39-7.08023 4.374-10.5625 5.367-4.86336 12.774-5.31616 19.118-1.83984ZM309.68 2.16026c2.072 1.51219 3.973 3.12694 5.882 4.83984.878.68836.878.68836 1.774 1.39063 4.438 3.81527 6.937 8.39527 9.539 13.54687.338.6682.675 1.3364 1.023 2.0249 5.657 11.7404 6.673 24.432 2.54 36.8501-4.789 12.827-11.841 21.1496-22.25 29.875-4.136 3.6248-6.27 6.4602-6.969 12.0744-.36 7.169.607 11.813 5.343 17.238 2.028 2.109 4.084 4.154 6.231 6.141 3.025 3.179 3.72 5.346 4.145 9.734-.121 4.337-1.564 6.782-4.376 10.125-3.428 3.021-5.59 4.89-10.187 5.25-8.663-.568-13.974-5.163-19.813-11.25-10.968-13.21-13.075-26.857-11.796-43.6718 2.033-13.5236 11.021-25.0234 21.609-33.1406 1.092-.7831 1.092-.7831 2.207-1.582 4.31-3.494 6.609-7.7132 7.316-13.2188.092-6.3443-.371-11.2712-4.336-16.3867-2.243-2.172-4.542-4.1841-6.976-6.1406-2.768-2.5438-3.832-4.5134-4.359-8.2266-.09-5.7488.387-9.13597 4.335-13.6328 5.367-4.86336 12.774-5.31616 19.118-1.83984Z"/></svg>