<svg viewBox="0 0 512 512"><path fill="currentColor" d="m365.875-.4375 2.14453125-.09960938c4.03743863-.04135179 5.74108246.33772835 8.87890625 2.95117188L379 5l1.75 1.8125c2.58719806 4.52759661 2.64204373 8.67533133 1.375 13.5625-4.35325725 8.74100977-13.2429497 15.88698176-20.09765625 22.6953125l-2.45005798 2.44577026C357.03306065 48.05477873 354.48535414 50.58994672 351.9375 53.125c-1.74176958 1.7367454-3.48330806 3.4737226-5.22460938 5.2109375C342.47792328 62.55997002 338.24010384 66.78112388 334 71l2.30023193 1.23751831 3.01129151 1.62918091 2.98773193 1.61251831C353.32343869 81.68690728 360.4695815 91.81756114 363.9375 103.875c1.81263897 8.54849491 1.91893319 17.19870038-.1875 25.6875-.60958717 2.31072341-.60958717 2.31072341-.75 4.4375 1.65705576 2.96929149 1.65705576 2.96929149 4 5 2.99058947 8.97176842-.08219222 18.83744958-1.85473633 27.83032227-.30798824 1.59503588-.61523913 3.1902143-.92181396 4.78552246-.83409136 4.32895443-1.67853009 8.65583231-2.52486253 12.9824078-.89636609 4.59173805-1.78320725 9.18531572-2.67116714 13.77868534-1.69424464 8.75643043-3.39714937 17.51115374-5.10308522 26.26531309-1.89732087 9.73863885-3.78460176 19.47921384-5.67114979 29.21994429-2.37424074 12.25826782-4.75085869 24.51605577-7.14213156 36.77101398l-.53829635 2.75878441c-.70402002 3.60776072-1.40809684 7.21551032-2.11243021 10.82320988-2.16511492 11.09262101-4.30782735 22.18915726-6.42142761 33.29170549-.8671051 4.54674379-1.74262633 9.09187414-2.61724365 13.63717783-.44697542 2.33552876-.88980526 4.6718557-1.32797622 7.00905227C323.92345455 380.3891434 317.59092129 398.83293436 301 415l-2.73046875 1.55859375c-3.74085065 4.02415087-2.96618593 8.59546134-2.83203125 13.87890625l.05029297 3.28173828c.39615889 13.67671874 3.98744471 26.38221473 14.19970703 36.09326172 8.40209613 6.68706153 17.11436261 8.85719321 27.5871582 10.02441406 6.47923272.79830662 10.56837604 2.77293469 15.0378418 7.72558594 2.94917987 4.25992647 3.20537585 8.39300565 2.6875 13.4375-1.73104122 4.90461679-4.5139511 8.35460191-9 11-3.02712555.48358139-5.48420736.67806888-8.50170898.63491821l-2.55183316.02363622c-2.81463225.01990356-5.62790994.00416215-8.44255161-.01158177-2.02068876.00677684-4.04137135.01568035-6.06204224.02655029-5.48349783.02279171-10.96652523.01395732-16.45003128-.00189543-5.73874554-.01265953-11.47745083-.00091873-17.21619796.00693083-9.63719921.00909638-19.27420684-.00289116-28.91137696-.02670288-11.14164426-.02721112-22.28283105-.01839696-33.42446422.00913203-9.56620513.02269028-19.13227253.02589149-28.69849587.01280665-5.71339256-.00779489-11.4265701-.00883487-17.13994884.00768244-5.37147307.01444417-10.74235636.00442352-16.11376572-.02447128-1.97124502-.00661103-3.94253968-.00471288-5.91376495.00631332-2.69137293.01366638-5.38085667-.00347283-8.07210923-.02840042l-2.36353206.03379882C140.28624656 512.5635929 137.94680027 511.0235255 134 507c-2.99595995-4.49393992-3.86578751-8.68585595-3-14 1.41206979-4.88451813 3.09020512-7.69221586 7.5703125-10.1953125 4.60175354-2.15152344 8.78682178-2.38673065 13.8046875-2.4296875 1.68636193-.05649806 3.37257494-.11764543 5.05859375-.18359375l2.40966797-.08935547c8.25925753-.3908048 14.4375002-2.95431686 21.68798828-6.85986328C184 472 184 472 186 472l1-3c2.4375-2.6875 2.4375-2.6875 5-5h2l.75-2.5c1.20776678-3.38174698 2.66552958-6.40918389 4.34765625-9.5703125 2.87373167-6.14555603 2.31998529-13.10227976 2.46484375-19.7421875l.18945312-3.81445312c.26317534-6.73547028.26317534-6.73547028-2.42993164-12.67260743C197.29917619 413.94480228 195.2389684 412.46507767 193 411c-13.95298072-13.61906324-19.58692334-30.90588687-23.09936523-49.65942383-.27263679-1.41087896-.54625313-2.82156891-.82075501-4.23208618-.73780855-3.80581646-1.46200719-7.61410585-2.1836803-11.42301011-.77543694-4.07930785-1.56377598-8.15612367-2.35056042-12.23325515-1.50079045-7.7873875-2.99027236-15.57689284-4.47562605-23.36723775-1.63574814-8.57637806-3.28360921-17.15041097-4.93283147-25.7242065-2.11176321-10.97852112-4.22099988-21.95750087-6.31500745-32.93942428-.64358478-3.37435828-1.28726282-6.74869874-1.93106079-10.12301636l-.48118472-2.52227234c-2.30740188-12.08777134-4.65497626-24.16721897-7.02734244-36.24239815-.99973498-5.09523436-1.99312322-10.1917104-2.98638195-15.28821069-.93830453-4.81031011-1.88712095-9.61838786-2.84392994-14.42504936-.58455791-2.94996398-1.15890612-5.90184788-1.73044801-8.85435844-.26505848-1.35795122-.53436215-2.71508219-.80834055-4.07126188C129.25476532 151.17664833 127.88348803 144.17837997 132 136c-.19869923-1.97321672-.19869923-1.97321672-.875-4.0625C128.61222209 120.88456187 128.3733544 107.47915457 133 97l.9140625-2.1953125C135.9427572 90.33496179 138.36718864 87.3603505 142 84l2.0625-2.75c2.02508661-2.35171348 2.91234531-2.92587628 5.9375-3.25v-2l9-3-.10546875-2.09765625C158.45872679 55.15112559 162.80112354 40.88108715 170 27h2v-3h2l.6875-2.25c1.58125885-3.31311379 3.38089761-4.58619823 6.3125-6.75l2.1875-2.25C185 11 185 11 187 11V9c5.99015299-3.3264989 11.06216733-6 18-6 5.22832756 1.59508298 8.54262692 3.7743218 12 8 1.58642408 3.11183185 2.74239461 5.89191798 3.53125 9.28515625C224.5150396 36.82312492 241.26242811 48.4349358 255 57c9.05409731 5.51414949 20.35100193 12.32358857 31.27780151 11.91477966 4.04939206-1.36077568 6.35962559-4.03504842 9.30081177-7.05516052l1.93832398-1.94142151c2.11060744-2.11848733 4.20680186-4.25067199 6.30337524-6.38304138 1.46445543-1.47445781 2.92987247-2.94796111 4.39620972-4.42054749 3.85774143-3.87867966 7.70376014-7.76877336 11.54702758-11.66178894 6.15573143-6.23098759 12.33017883-12.44344475 18.50249863-18.65799141 2.15628688-2.17400616 4.30830914-4.35216083 6.45956803-6.53114128 1.31813598-1.33135386 2.63631983-2.66266035 3.95455932-3.99391174l1.81365967-1.84359741C355.62765399 1.25139937 358.66112526-.37900912 365.875-.4375ZM197 48c-.65239158 1.39278017-1.29660552 2.78939212-1.9375 4.1875l-1.08984375 2.35546875C191.99610785 59.53593641 191.86430983 64.15491367 191.875 69.5l-.0078125 3.90625C191.97934962 76.44122492 192.3467728 79.0529979 193 82c.49165424 4.63444568.45013059 8.04572315-1.5625 12.3125-4.93729005 5.44367877-8.94014897 6.74778388-16.0625 7.625-4.18438439.55247326-6.05975284.83997259-9.5625 3.3125-3.48076441 5.2811598-4.25318421 9.45024228-3.34765625 15.6328125C163.2751055 124.08837357 164.54563341 125.81097034 167 128c4.22932619 1.71275847 7.79313116 2.25081018 12.33776855 2.25396729l3.79783631.01708984c1.37602292-.00388801 2.75204527-.00798431 4.12806702-.01226807 1.4591133.00271211 2.91822524.00627427 4.37733459.01062012 3.95243514.00910018 7.90476561.00558955 11.85720253-.00075817 4.14118413-.00507227 8.28235944-.00036514 12.42354393.00277233 6.9536703.00363606 13.90729808-.00115002 20.86096191-.01068115 8.03322301-.01088387 16.06634449-.00735803 24.09956503.00365281 6.90377578.00908312 13.80752103.01035314 20.71130085.00512266 4.12042959-.00311406 8.2408115-.00354454 12.36123801.00307298 3.87420835.00578773 7.74828611.00175048 11.62248039-.00978852 1.41975818-.00263895 2.8395274-.00189457 4.25928116.00252533 1.94187966.00548687 3.88378341-.00262197 5.82565117-.01136016l3.28925323-.00228501c4.76658272-.39352415 8.05548353-1.23251807 11.42351532-4.68918228 2.25090736-4.93468151 2.4265063-9.22176991 1.625-14.5625-1.98968453-3.91075925-3.36533646-5.57689098-7-8-4.74445373-1.39845862-9.64955983-1.13494543-14.55078125-1.140625-1.91602729-.01835134-3.8320432-.03792374-5.74804687-.05859375-2.99018335-.02873069-5.97964124-.05077563-8.96997071-.05126953C264.56280049 101.71313343 240.81689137 88.09937781 217 69l-2.12109375-1.68359375C209.14430678 62.60356169 204.38695049 57.06225716 200.125 51L198 48h-1Zm-31 114c.60583417 6.66417583 1.16746102 12.61967403 2.5 19.0625l.78125 3.84765625c.56673464 2.97992599.56673464 2.97992599 1.71875 5.08984375h156c3.4296861-13.90794293 3.4296861-13.90794293 5-28H166Zm11 60c3.15387269 18.23747959 3.15387269 18.23747959 6.50195312 36.4362793l.66209412 3.49851989c.7035661 3.71355545 1.40999184 7.42655661 2.11720276 11.13941956l.74269104 3.90253639c1.02973687 5.40985739 2.06039067 10.81953844 3.09381866 16.22869206 1.46298608 7.65754885 2.92023012 15.31613949 4.36957789 22.97628182 1.0312668 5.44800472 2.06891411 10.89477101 3.1112318 16.34067213.61779643 3.22869683 1.23212709 6.45798521 1.8412652 9.68832845.67830502 3.59364303 1.36704118 7.18514342 2.05821229 10.77633095l.58909606 3.16003418C205.02631565 371.2496343 209.81210682 384.01815917 222 394c10.83786622 7.26930052 24.30109244 9.35105719 37 7 9.97710348-2.65794227 17.68784362-6.83132704 24-15l2-1v-3h2c3.78143534-7.33759368 5.73051129-14.66243041 7.33081055-22.70629883l.64392376-3.16455555C295.65810641 352.75436469 296.3307068 349.37759976 297 346l.66476822-3.34786606c1.63955461-8.2796646 3.24984871-16.56491434 4.85476303-24.85135269.37954296-1.95682764.75908635-3.9136552 1.13866919-5.87047511 1.18362281-6.10249106 2.36518469-12.20537878 3.54565698-18.30847997 1.21348366-6.27343432 2.43182837-12.54591234 3.65222436-18.81800526 1.05646697-5.43087836 2.10935879-10.86244207 3.15951193-16.29454482.62368516-3.22573074 1.24928797-6.45106864 1.87772637-9.67587727.69595468-3.57343503 1.38605716-7.14795242 2.0746975-10.72280312l.62791443-3.20320129.56454467-2.94992066.49429036-2.55080699c.4635622-2.82633919.4635622-2.82633919.34523296-7.40666676H177Zm58 211-.6875 9.0625C233.05814947 455.71232692 229.03335016 467.18130084 222 479l-1 2h55c-1.47938789-3.69846973-3.00985061-6.95363287-4.875-10.4375-6.0558281-12.1116562-7.81646594-24.25907035-9.125-37.5625h-27Z"/></svg>