<svg viewBox="0 0 512 512"><path fill="currentColor" d="M335 0h66l7 6 2 5v8l-3 6-6 5-2 1-52 1-9 3-5 6-16 44-4 11 157 1 7 4 4 5 1 2v11l-7 9-13 15-12 14-13 15-12 14-12 14-12 14-13 15-12 14-13 15-12 14-12 14-13 15-12 14-10 12v125l3 10 6 9 9 6 12 3 28 1 8 6 3 7v7l-4 7-5 4H148l-7-6-2-4v-10l4-7 5-3 2-1 30-1 9-2 5-3h3v-2l5-5 3-1 1-4 3-8V326l-10-11-9-11-11-12-9-11-11-12-9-11-11-12-9-11-11-12-9-11-10-11-9-11-11-12-9-11-11-12-9-11-11-12-8-10-2-4v-10l1-3h2l1-4 8-4h236l2-9 21-58 5-10h2l2-5 7-6 7-5 11-4ZM82 130l6 8 12 13 9 11 11 12 9 11 5 5h70l4-10 3-6 2-1 3-5 8-6v-2l6-2 12-5 16-2 7-18v-3H82Zm218 0-11 30 1 4 7 6 7 11 4 9h70l5-4 4-6 4-4 6-7 6-7 6-7 7-8 6-7 6-7v-2l2-1H300Zm-51 54-10 6-5 10v12l4 8 6 5 9 3 10-1 7-4 3-3v-2h2l3-8v-9l-4-9-7-6-5-2h-13Zm-87 38 6 8 11 12 9 11 11 12 9 11 4 3 7-18 4-12-10-10-6-10-3-7h-42Zm146 0-6 12-7 9-8 7-14 7-7 2-13 1-15 42v3h42l6-7 6-7 6-7 7-8 6-7 6-7 6-7 6-7 6-7 7-8 6-7v-2l3-1v-1h-43Zm-65 116-1 119-4 15-4 9h46l-6-14-2-8-1-10-1-111h-27Z"/></svg>