<svg viewBox="0 0 512 512"><path fill="currentColor" d="m375.5-.375 3.3984375-.11328125C389.44877735-.59792681 398.53634945 2.19446934 406.625 9.1875l2.4140625 2.04296875C410.39221608 12.4515416 411.71119367 13.71119367 413 15c2.65234392.06823704 5.22870336.03652566 7.875-.0625 15.33551971-.26298682 27.66165234 4.12600002 38.8671875 14.734375C464.55851747 34.63819449 472 42.68109246 472 50l3.875.6875c12.21559063 2.82044838 22.17641384 10.32423571 29.37109375 20.484375C510.95596392 80.7160239 512.36309596 88.23876722 512.375 99.25l.07421875 3.56640625c.03528976 10.57516435-2.52797689 18.34998098-8.88671875 26.74609375l-2.24609375 3.06640625C492.14642015 142.80810398 479.85837957 147.49840842 467.3125 152c-1.56247975.57511205-3.12433364 1.15192741-4.68554688 1.73046875-2.82462628 1.04582965-5.65291443 2.08033106-8.48510742 3.10546875C451.15000837 157.87974129 451.15000837 157.87974129 449 159l.62109375 1.94921875C451.81262657 168.29976664 452.64732402 175.35057967 453 183l1.625-1.03125c7.21015304-4.45891043 14.67588606-8.24864116 22.29492188-11.94433594 2.05815583-1.01361759 4.09272803-2.06528763 6.12695312-3.12597656 11.85751663-6.06201366 11.85751663-6.06201366 18.01953125-4.6875C505.84344027 164.1603534 509.1457174 166.7185761 512 171c2.99454726 14.900204-4.19872435 28.68223326-9.73480225 42.13098145-1.28700851 3.14355704-2.54216535 6.29978062-3.800354 9.45495605C496.00518574 228.735803 493.51497533 234.87256356 491 241l2.28540039-.05932617 2.99975586-.04614258 2.97290039-.05932617c4.93084817.29635139 7.43587943 2.93152904 10.86875916 6.17306518 2.7222431 4.34779219 2.44078678 8.13668429 2.40663147 13.17190552l.02610778 3.10180664c.02271637 3.38803363.01590255 6.7752426.0068512 10.16333008.00523845 2.36872603.01151574 4.73744998.01878357 7.10617065.01041882 4.97496315.00582932 9.94964064-.0087738 14.92459107-.01706287 6.32638592.00614478 12.65185292.0414896 18.97813606.02215572 4.90077877.02048676 9.80134461.01223468 14.70215798-.00081207 2.32881925.00590662 4.65765535.02077103 6.9864273C512.79507341 362.85101809 506.64462406 385.73829079 490 407l-1.359375 1.73779297c-16.32875957 20.55113455-41.26573235 39.41837087-68.15313721 42.55534363l-2.6954956.25447082-2.72149658.26042175L413 452l.02018738 1.86454773c.06640258 6.4076464.11163377 12.81519494.14460754 19.22309875.01508051 2.39099092.03554785 4.7819542.06152344 7.17285157.0364147 3.4379763.05341563 6.87558664.06665039 10.3137207l.04692078 3.23600769c.00161997 7.15398384-.82500984 10.44214351-5.71144963 15.78081989-4.58484956 3.7355491-9.88630427 3.1030189-15.54016781 3.05060101l-3.66339117.0257743c-3.348282.01841515-6.69517157.01444076-10.04338628.00086075-3.61361781-.00925868-7.22709783.01023847-10.84067738.02597725-7.07626091.02608705-14.15226776.02499924-21.22855847.01396182-5.75163308-.00855898-11.50319265-.00772722-17.25482662-.00020411l-2.48082705.00319663a263349.3608546 263349.3608546 0 0 0-4.98942803.00656015c-15.59564502.01943026-31.19114752.00743172-46.78678089-.01478595-13.37912358-.01824906-26.75797118-.00734989-40.13706612.02430674-15.5383689.03676369-31.07656542.05378388-46.6149779.04058773a127556.654742 127556.654742 0 0 0-4.97196859-.00392658l-2.47097493-.00191111c-5.74361807-.00302698-11.48710609.00823189-17.23069667.02516169-7.0013165.0203262-14.00224357.01945384-21.00353973-.0086324-3.57168887-.01377217-7.14269796-.01795914-10.7143615.00394986-3.87306007.02344383-7.74504911.00033918-11.61809921-.02735138l-3.41587299.04262561c-6.16593192-.08899516-9.82878434-.75362843-14.31951201-5.12122238-2.74960241-3.53703935-3.55286919-6.26713371-3.53037733-10.72052127l.00045776-3.03253174.03128052-3.25164795.00857544-3.34588623c.01119217-3.52543997.03629531-7.05062562.06173706-10.57598877.01003103-2.39062133.01915667-4.78124664.02734375-7.171875C98.9243913 463.71866327 98.95785947 457.85934981 99 452l-2.01391602-.17384338C90.63897673 451.24223809 85.03637073 450.10676246 79 448.0625l-2.73583984-.92431641C62.26449421 442.18717194 50.03359131 434.90660176 39 425l-2.27734375-1.84765625C18.1052423 407.74144398 6.913194 384.98564642 1 362l-.5388298-1.90084171c-.50000277-2.27591671-.59279876-4.31713293-.60161209-6.64662838l-.01730347-2.74848938-.00338745-2.99285889-.01504517-3.16950989c-.0146072-3.46051185-.02142043-6.92097789-.02694702-10.3815155a1444440.00071715 1444440.00071715 0 0 0-.01727295-7.21107483c-.01050517-5.03958856-.01635135-10.07916118-.01983643-15.11875915-.0054908-6.46094529-.02953357-12.92168048-.05797195-19.38255978-.01861027-4.96449751-.02383107-9.92894418-.02536392-14.89347363-.00302951-2.38225836-.01106802-4.76451577-.02418518-7.14673996-.0170302-3.32994228-.01518769-6.659368-.00868988-9.98933601l-.02792359-2.98672485C-.35415701 252.495832-.30888317 248.95607902 3 245c4.95429443-3.38342059 8.71719338-4.23004963 14.625-4.5625l2.140625-.13085938C21.51018537 240.20055249 23.25506697 240.09977111 25 240l-1.46875-1.66015625C6.98980594 218.7764051-.59276048 193.04071079-.44604492 167.69213867c.00865742-2.28432342-.02062646-4.56625434-.05200196-6.85034179-.00160909-1.46940031-.00104008-2.93880499.00195313-4.40820313l-.00561523-3.96704102C.07974812 148.44898126 1.17432118 146.85292365 4 144c5.46333756-3.87584535 11.128105-3.41993888 17.5625-3.3125l3.23242188.02539062C32.34828547 140.82782312 39.60375094 141.38207052 47 143l.1875-3.6875C48.130211 130.6778137 52.07671908 122.65154494 56 115h2v-3h2l1-4h2l.5-2.0625c2.18991933-4.28859203 5.62000999-7.13259056 9.5-9.9375h2l1-3h3v-2c20.60955056-11 20.60955056-11 30-11l.30859375-3.06640625c.71748252-4.0819486 1.95213158-7.15253751 3.75390625-10.87109375a865703443.5185952 865703443.5185952 0 0 1 1.66015625-3.46484375L116 60h2v-3h2l1-4h2l.71875-2.23046875c1.4788627-3.19668797 3.12500237-4.79231129 5.78125-7.08203125l2.40625-2.11328125C134 40 134 40 136 40v-2c2.9850913-1.69443588 5.9908263-3.34878924 9-5l2.26171875-1.3046875C163.68694559 22.71581667 184.13333437 21.21340717 202.1875 25.625 223.11854506 32.27014373 239.5222364 45.79835931 250 65c5 9.74514563 5 9.74514563 5 15l3.25.1875C274.33000364 82.25412019 287.82070482 93.03874072 299 104c5.19309603-1.93983354 10.03469317-4.51810078 14.94140625-7.078125C319.85754501 93.90182702 325.26611291 91.86236892 332 92l-.55078125-2.83544922c-9.67721282-50.22808661-9.67721282-50.22808661 3.671875-70.82470703C337.17979379 15.77609879 339.3975826 13.99907488 342 12l1.90625-2.01953125C346.53380923 7.49507224 349.30611293 6.0010114 352.5 4.3125l3.40625-1.82421875C362.29494618-.58506881 368.50857355-.28897574 375.5-.375Zm-13.203125 36.796875c-3.55648748 4.32777392-4.39224537 8.53901562-4.1328125 14.0859375.40223072 3.42918735.88516897 6.8155037 1.45800781 10.21875.40241556 2.42073235.76324683 4.84559503 1.12011719 7.2734375.25101183 1.64607694.50358331 3.2919169.7578125 4.9375l.35791016 2.38647461C362.16981452 77.22853272 362.57640745 79.1171311 363 81l2 1 1.34521484-3.5324707c1.64746212-4.32321182 3.29979703-8.6445474 4.95361328-12.96533203.71519975-1.87058481 1.4290757-3.74167631 2.14160157-5.61328125 1.02419271-2.68957573 2.05312692-5.37729536 3.08300781-8.06469727l.96298218-2.53816223.90957641-2.36540222.79403687-2.07929993C380 43 380 43 382 40v-3h2l1-3c-7.27613543-4.85075695-16.3454669-3.52561161-22.703125 2.421875ZM412 52c-3.71984547 4.92225409-5.773778 10.08561097-7.890625 15.8515625l-1.059021 2.83773804c-.73312585 1.97032965-1.46240832 3.94209317-2.18804931 5.91519165-1.11262 3.02136404-2.24046225 6.03672742-3.37011719 9.05175781-.71185126 1.91893211-1.42281958 3.83819204-2.1328125 5.7578125l-1.02252197 2.73062134-.93157959 2.54916382-.82476807 2.23306274C391.82023515 101.28316739 391.82023515 101.28316739 392 105c2.29129293 1.31315613 4.5830155 2.62555193 6.875 3.9375l1.97265625 1.13085938C404.38746834 112.10133078 404.38746834 112.10133078 408 114v-2h2l.75-1.75c1.43081368-2.57546462 3.13918881-4.20127149 5.25-6.25 1.34919532-1.65385233 2.68133728-3.321702 4-5l2.375-2.8125c2.53502955-3.0201278 4.87142927-6.17112065 7.1953125-9.35546875C430.94616923 85.06897986 432.39790235 83.55655999 434 82c5.08511827-5.34390291 7.64624172-9.34449778 8.375-16.875-.1424973-4.64897455-1.65426738-8.37255226-4.375-12.125-5.07508334-4.03935204-9.22672889-5.37055691-15.5859375-5.27734375C418.46007061 48.17691745 415.10848625 49.51054849 412 52ZM150.12109375 69.77734375c-6.39715115 6.75638641-9.58271197 14.40698249-11.53100586 23.39990234-2.51838171 11.56208212-2.51838171 11.56208212-7.55102539 14.92431641-4.71974623 2.07958167-9.63163958 2.58780228-14.703125 3.2421875C103.64758996 113.24517384 94.07206489 119.02862573 86 129c-4.74924388 6.94120259-7.47702601 15.6215209-8 24 1.88885907 2.88230744 5.0036698 4.27675172 7.9375 6 10.99825975 6.91028225 22.55874656 17.03887247 28.0625 29h2l2-6h2l1-3c.96881652-1.03024005 1.97354009-2.02717933 3-3 1.10935106-1.30812098 2.21322659-2.62089898 3.3125-3.9375 2.21176114-2.56470175 4.25494102-4.63521178 7.125-6.4375L137 164v-2l2.08203125-.765625c2.71435661-1.14824189 5.21827732-2.49163192 7.77563477-3.95043945C159.97871062 149.86997639 174.18893637 145.58310896 189 143l3.140625-.5546875c5.31244176-.61297405 10.57798919-.70902474 15.921875-.7578125l3.22070312-.08789062C217.34037449 141.5504256 221.37718863 141.65123985 226 146c4.8806324 5.29479588 4.586297 10.42145297 4.4375 17.25l-.04223633 3.22851562C229.75724349 194.19394587 220.62799791 218.82933612 204 241h26c1.78258907-4.75357086 3.45134429-9.27503958 4.875-14.10546875C243.6272337 197.67959176 253.15529411 167.64816077 270 142c2.4917435-3.69123184 2.4917435-3.69123184 3-8h2c2.19345981-2.65956849 2.19345981-2.65956849 1.9375-4.875-3.14437914-7.12725938-11.99413411-12.57473562-19-15.375-5.74655667-1.95302555-11.54532572-2.60187525-17.5546875-3.16015625C236.90177616 109.98287321 234.91305952 108.92637807 232 107h-2c-1.4487462-2.70589752-2.41188303-5.21056732-3.11328125-8.1953125-3.66905123-15.08830295-7.57304205-27.71079624-21.546875-36.47265625-19.33026289-9.94211108-39.43823147-7.48220503-55.21875 7.4453125ZM471 84c-1.2821355 1.88266448-1.2821355 1.88266448-2.5625 4.3125C464.89364018 94.41963707 460.54927362 99.62221629 456 105c-1.5244875 1.85116339-3.04535938 3.70531062-4.5625 5.5625l-2.21875 2.7109375C445.78470729 117.49344069 442.38860424 121.74346988 439 126c2.10762678 1.34081922 2.10762678 1.34081922 4.97753906.09130859 1.26601414-.47215179 2.52850352-.95381971 3.78808594-1.44287109l2.03338623-.77548218c1.42382462-.5459833 2.84609184-1.09604249 4.26690674-1.64981079 2.15643755-.83740935 4.3199628-1.65400172 6.48486328-2.46923828 1.3846006-.53389753 2.76873085-1.06901677 4.15234375-1.60546875l1.94195557-.72671509c5.12743221-2.03096528 9.77625718-4.73268609 12.63226318-9.59750366C480.95348404 102.3990783 481.36639992 98.55669299 480 93c-1.91786398-3.38822637-3.96498201-6.51680347-7-9h-2Zm-163.58789062 58.31298828C303.35968829 147.15431431 300.1252001 152.53089982 297 158l-1.06054688 1.85400391C291.85008822 166.11457735 291.85008822 166.11457735 290 173l1.84838867 1.00634766c2.78691983 1.52678192 5.56291543 3.07246292 8.33911133 4.61865234l2.90820312 1.58203125C309.41864641 183.75138008 314.60556136 186.81668408 317 194c.53856933 4.63522786.45178019 8.07906346-1.625 12.3125-3.12826026 3.53987345-5.71169674 6.27718884-10.56030273 7.02416992-7.04499737.23513923-11.3718243-1.67974688-17.25219727-5.39916992-1.55586063-.95794199-3.11685417-1.9076125-4.68359375-2.84765625l-2.04467773-1.28540039C278.83401603 202.68275428 278.83401603 202.68275428 276 204c-1.1235147 2.65063499-2.0509241 5.20243749-2.91796875 7.9375l-.79426575 2.40991211c-.83637061 2.54733244-1.65575084 5.09978893-2.4752655 7.65258789-.56338714 1.72170335-1.12782713 3.44306256-1.69335938 5.1640625C265.38440234 233.98459296 265.38440234 233.98459296 264 241c17.08952314.23377953 34.17854619.41002773 51.26930332.51812172 7.93592298.0515283 15.87085154.12175347 23.80613613.23627281 6.91787048.09978863 13.8350208.16421375 20.753591.18649042 3.66257291.01301984 7.323086.0435259 10.98499734.11641562 4.09229095.08079283 8.1810209.08259208 12.27410698.07795334l3.66403198.10894775c6.4021626-.05197082 6.4021626-.05197082 11.59882927-3.44130325C401.98602319 233.86615594 401.98602319 233.86615594 403 228h2l1.4375-2.875L409 220l-2.04785156-1.11401367c-3.07357105-1.68011677-6.13782081-3.37657372-9.20214844-5.07348633l-3.22265625-1.75195312-3.10546875-1.72851563-2.85644531-1.57104492C384.73998611 206.13508944 382.46761723 203.40285169 381 199c-.3021788-4.74598472-.19309535-9.37675552 1-14h2l1.75-1.875c2.73956852-2.58737027 4.56532899-3.34555036 8.25-4.125 6.57475851.30710125 10.81439274 2.15623683 16.375 5.5625 4.53109466 3.12323882 4.53109466 3.12323882 9.625 4.4375.80090715-12.54754539-1.75610555-22.4164727-10-32l-1.828125-2.42578125c-7.70897265-9.1370737-18.96875414-15.11575137-29.39453125-20.6328125-1.52761731-.80913356-3.04426199-1.63892303-4.55859375-2.47265625-24.90776203-13.26257459-47.91461656-10.27514793-66.80664062 10.84423828ZM32 174c2.24254464 15.89452693 5.77154092 30.20808095 16 43l1.8125 2.6875C62.2589861 232.84521387 80.63778801 237.84037952 98 240c-2.23901765-15.86952862-5.75056838-30.24951091-16-43l-2.1875-3.125C68.01349066 180.40129256 48.84707027 176.37693813 32 174Zm123 16-2.6875 1.8125C139.3942898 204.03242856 133.90845072 222.82394351 132 240c14.41504018-2.03380517 29.10346046-5.07759535 41-14v-2l2.25-.6875c3.2925747-1.5714561 4.72497109-3.31245716 6.75-6.3125v-2h2c7.73297024-13.26031667 11.78075318-25.93438137 14-41-15.03194202 0-31.40148325 7.0007742-43 16Zm310 23c-3.07066487 1.54681534-6.12982939 3.11517485-9.1875 4.6875l-2.61914062 1.31835938c-7.14085168 3.69354397-11.69248481 7.4588924-15.50585938 14.68164062l-1.55078125 2.88671875C434.8585594 238.85535261 434.8585594 238.85535261 435 241h21c1.44962778-3.66355843 2.89445257-7.32846892 4.32739258-10.99853516.72993593-1.86326388 1.46784709-3.72339698 2.20581054-5.58349609l1.37695313-3.53515625 1.28540039-3.26904297C466.31346213 215.05148428 466.31346213 215.05148428 465 213ZM31 273c-4.03233207 66.63865265-4.03233207 66.63865265 23 122l1.63671875 1.921875C69.38425402 412.01992381 91.19086951 419.53092391 111 421c4.0525393.1348409 8.10129837.13945428 12.15582275.13371277l3.59690929.00686532c3.26824655.00520665 6.53645819.0059898 9.80470753.00480563 3.53523465-.00020517 7.07046129.00532568 10.60569214.01005756 6.91622822.0082821 13.83244792.01105373 20.74868068.01161238 5.62559614.0004763 11.25118947.00253674 16.87678472.00570063 15.97322142.00879976 31.94643614.01342041 47.91966.01266952l2.60570773-.00012108 2.60891375-.00012388c13.9479153-.00040632 27.89580359.00916149 41.84371108.02326225 14.34476352.01438677 28.68951389.02126893 43.0342848.02040622 8.04419289-.00033116 16.08835744.00238059 24.1325438.01317806 6.84938046.00913531 13.69871974.01125545 20.54810366.00449057 3.48934186-.00324991 6.97860486-.00337767 10.46793905.00535325C403.49864604 421.30409572 425.13316192 419.57789205 447 405v-2l2.0625-.5c3.69616082-1.88740127 5.66478747-4.36836831 8.2890625-7.53125C459 393 459 393 461.4375 390.625c1.79353624-1.48955501 1.79353624-1.48955501 1.5625-3.625h2c23.75267039-32.57509082 16-76.89999922 16-114H31Zm100 180v28h250v-28H131Z"/></svg>