<svg viewBox="0 0 512 512"><path fill="currentColor" d="M136.93183899 118.8595581c1.05545098-.00297111 2.11090196-.00594223 3.1983363-.0090034 3.51301293-.00862493 7.02599152-.01018997 10.53901416-.01168751 2.52894666-.00463268 5.0578926-.00965794 7.58683777-.01504516 6.85597138-.01308521 13.71193157-.01959938 20.5679133-.02401066 4.2914828-.0027731 8.5829634-.00701242 12.87444472-.01150418 11.91141334-.01218666 23.8228249-.02248614 35.73424435-.0258751.7609449-.00021955 1.52188982-.00043912 2.30589367-.00066534l2.31103282-.00066145a1151426.7330225 1151426.7330225 0 0 0 4.63525837-.00133967l2.32241305-.000671c12.39446892-.0039408 24.7888788-.02137552 37.18332495-.04468852 12.76391038-.02381152 25.52779125-.03618034 38.29172417-.03734193 7.15073439-.00091144 14.30139188-.00652827 21.45210487-.02481961 6.73635367-.01717214 13.47253775-.01858107 20.2089157-.009861 2.45679173.00076437 4.91359162-.00349177 7.37036324-.01345824C406.64888786 118.46436149 442.60023197 129.38645465 474 160l1.90234375 1.71484375C490.33224228 175.0582558 500.75785647 194.63104493 507 213l.68061829 1.96498108c5.96765047 18.098576 5.04152498 36.95258208 4.89585876 55.76048279-.01867674 3.54042479-.0038172 7.0803919.01110935 10.62080956.01065959 3.45945514.0015544 6.91864938-.01338482 10.37808036-.00510607 1.62875337-.00479458 3.25753484.00154496 4.88628388.03333154 13.68635879-1.77221673 26.39580955-8.38824654 38.63936233l-1.05786133 2.01708985C502.10718029 339.19032408 501.05918097 341.09680042 500 343l-1.6171875 2.9609375c-13.05437863 22.14698066-35.54544131 37.48077008-60.08467936 44.22538358-10.08188894 2.4872921-20.00171572 3.10585926-30.35105062 3.07437534-1.36853977.00302846-2.73707785.00692139-4.105613.01159256-3.7231603.01019944-7.44622342.00811897-11.1693914.0038194-4.03013782-.00248202-8.06025315.0065652-12.09038256.0140375-7.88137494.0127086-15.76271575.01454546-23.64409921.01219974-6.41116114-.00178778-12.82231198-.00002371-19.2334719.00422444l-2.77197052.0018036a2267961.89622618 2267961.89622618 0 0 0-5.57617988.00364238c-17.4071733.01086093-34.8143272.00872-52.2215016.00261515-15.89536847-.00516681-31.79067563.00608265-47.686032.02509822-16.35290888.01941173-32.7057888.02762849-49.05870928.02387675-9.16822795-.00190713-18.33640372.0005276-27.50462222.01471454-7.8059036.01195743-15.61172293.01327012-23.41762778.00120983-3.97582432-.00585847-7.95149483-.00707306-11.9273086.0050024C86.28954958 393.4730228 58.53089456 390.32947275 34 369l-2.48828125-2.05078125C15.56397425 353.38247499 6.79736887 335.8056035 1 316l-.54483032-1.73927307c-.64308116-3.1940416-.61614615-6.28432284-.64804077-9.54173278l-.02478028-2.2049408c-.0248085-2.40962433-.04137624-4.81918903-.05578613-7.2288971l-.01613235-2.51715278c-.0267373-4.41378797-.04609316-8.82754787-.06052781-13.24139214-.01322133-3.61256908-.04084977-7.22455737-.08203125-10.83691406C-.86698895 229.64349737-.86698895 229.64349737 4.99999999 213l1.08056642-3.21264648C6.96195988 207.38357306 7.93095417 205.0749574 9 202.75l.9609375-2.23046875C13.26470326 193.00016039 17.33331426 185.8944125 21.6875 178.9375l1.76171875-2.84765625L25 174h2l.75-2.25c1.39524217-3.06953277 2.80506487-4.43722352 5.25-6.75 1.08820217-1.28756744 2.1710014-2.5797101 3.25-3.875 3.00770586-3.48090096 6.18808946-6.17278644 9.953125-8.80078125C47.98741415 151.00927523 49.45931543 149.58815664 51 148c3.66666667-3 3.66666667-3 6-3v-2c3-2 3-2 6-2v-2c23.7517897-12.29724722 46.91847958-20.16461742 73.93183899-20.1404419ZM61.99999999 182l-2.16796874 1.94921875C45.72342024 196.93139375 36.90047892 216.4666685 33 235v5h446c-.71726336-6.45537028-1.56597486-11.7414804-3.625-17.75l-.80541992-2.36376953C470.33503795 207.88363827 463.91880886 197.90948909 456 188l-1.51953125-1.98828125C443.07443163 171.71308432 424.94925242 161.65043882 407.75 156.1875l-1.9675293-.6274414C401.18428192 154.1742391 396.75652583 153.49150767 392 153l-.98706055 1.83813477C384.74970668 166.48733259 378.43432139 178.10411987 371.9375 189.625l-1.62182617 2.88500977C361.75886343 207.62056829 361.75886343 207.62056829 355 211c-5.32976963.6621506-9.93791162.39188026-14.4921875-2.60546875-3.80208117-3.51643258-5.3307377-7.60458236-5.83203125-12.671875.39465689-4.5314219 1.81087834-7.523508 3.94921875-11.47265625.36464356-.6995581.7292871-1.39911621 1.10498047-2.11987304C340.80481667 180.07823119 341.89884115 178.0378656 343 176l1.65625-3.09765625C346.08674814 170.2582049 347.54035864 167.62814132 349 165c1.10579053-2.01994522 2.2099762-4.04076988 3.3125-6.0625l1.48828125-2.72265625C354.55530969 154.821301 355.29130055 153.4173989 356 152h-37c-4.93141246 8.6299718-9.8032573 17.24730937-14.5 26-2.16279251 4.00210377-4.33004001 8.00177827-6.5 12l-1.28515625 2.36865235c-1.06154754 1.9454208-2.13493918 3.88357313-3.21484375 5.81884765l-1.71875 3.10546875C289.01151962 205.50223005 285.84124605 209.2579214 281 211c-5.48147553.7550512-9.44595951.31202945-14-3h-2c-.68620031-1.32338632-1.34786461-2.65949947-2-4l-1.1875-2.125c-1.87226448-6.62493587-.36028581-12.3768969 2.875-18.3125 1.09565278-1.85921032 2.1999123-3.71337407 3.3125-5.5625 1.00889219-1.828455 2.00898893-3.66179213 3-5.5 1.54466985-2.83324968 3.09073337-5.6656964 4.640625-8.49609375L277.25 161.0625l1.453125-2.65234375C279.84166159 156.29426144 280.92545112 154.14909775 282 152h-37c-5.2809227 9.38830703-10.53144511 18.76388913-15.625 28.25C214.47199622 207.81926033 214.47199622 207.81926033 207 211c-4.63198048.72427332-8.11711647.44977086-12.3125-1.6875-4.07426651-3.5057642-6.72881875-6.10860447-7.6875-11.5-.54120472-7.7572676 3.44426303-14.2204305 7.58203125-20.484375C196.41789439 174.31387037 197.95313485 171.16836343 199.5 168c2.54906887-5.21665072 5.34605852-10.1257268 8.5-15v-1h-37c-5.04387966 9.03381432-10.05452755 18.07816439-14.94799805 27.19433594C153.3909652 184.142183 150.70448513 189.0757789 148 194l-1.24414062 2.26904297C139.84207173 208.71930943 139.84207173 208.71930943 133 211c-4.85005151.77430647-8.00779443.53285114-12.375-1.8125L118 207l-1.75-1.375c-2.80583488-3.64758534-3.27117147-6.96868427-3.125-11.5.74652175-4.53919546 2.6383879-8.1488007 4.875-12.125l1.38671875-2.5625c2.04496564-3.77862417 4.11967123-7.54069366 6.19140625-11.3046875C128.49987685 162.80578009 131.32403122 157.45485944 134 152c-27.19059402-1.76477413-53.14885224 11.37227325-72 30Zm-31 90c-.42470024 26.04828232.76640394 49.16743448 19.625 69.1875 12.19459038 11.5876198 28.30962362 18.91641805 45.2719717 18.94672108l3.52323194.01350862 3.84235435-.00055867c1.36804752.00330196 2.73609407.00702823 4.10413939.01114147 3.75421027.00999045 7.50840456.01373203 11.26262623.0163893 4.0513509.00391189 8.10268925.01348964 12.1540321.02221288 9.7818589.01974004 19.56371878.02982775 29.3455926.03872779 4.61094922.00438715 9.22189729.00975287 13.8328456.01498887 15.33574339.01701023 30.67148607.03150308 46.00723743.03874874 3.97752668.00190977 7.95505335.00383012 11.93258.00578594 1.48282058.0007256 1.48282058.0007256 2.99559713.00146588 16.00387368.00829539 32.0076725.03362494 48.01151352.0661148 16.44533434.03311286 32.89063069.05108598 49.33599854.05427762 9.22753987.00216124 18.45497059.0108532 27.68247789.03646117 7.86066985.02176487 15.72120402.02972909 23.58190059.02003322 4.0059582-.00452807 8.0116368-.00274625 12.0175562.01676145 3.67749424.01775255 7.35450743.01653756 11.03200764.0011027 1.93916965-.00346288 3.87834506.01255949 5.81744289.02960448C428.12148079 360.4070802 445.02637893 355.70859476 457 345c1.87869985-1.9924416 3.6696427-4.02849613 5.421875-6.1328125C464 337 464 337 465.703125 335.3828125 467.22802607 334.07283034 467.22802607 334.07283034 467 332h2c8.53231345-16.1526219 12.1981587-29.6368546 12.0625-48L481 272h-30l-2.125 6.8125C441.87011409 300.15775135 427.76052993 314.87216576 408 325c-19.2639935 9.06856519-40.39604162 8.65073005-60.265625 1.6015625C335.25474008 321.5329308 325.35620549 312.4476342 316 303l-2.38671875 2.5625C302.88182118 316.8398532 291.94937242 324.05706235 277 329l-2.03125.7109375c-17.79235823 5.38452947-37.8781285 1.7142023-54.16015625-6.27734375C213.64579038 319.49085013 207.90257189 314.60795127 202 309c-2.31243995-2.0259797-4.65490053-4.0117635-7-6l-1.51171875 1.87109375c-13.2174948 15.59047413-31.38954054 24.90586247-51.73925781 26.91064454-13.91916207 1.02073855-27.26953401-1.4643204-39.74902344-7.7817383-.9835547-.49242186-1.96710937-.98484374-2.98046875-1.4921875C81.22164297 312.88359867 69.82830792 297.85060745 63 279l-2-7H31Zm64 0c3.11208153 9.33624457 8.8719226 16.364533 17 22 13.85821127 6.64142035 26.34223006 7.73657195 41 3 2.1276682-.88288288 4.00710895-1.83748021 6-3v-2h3c5.6779998-4.91070252 10.49389763-11.37736216 14-18v-2H95Zm120 0c6.59299238 13.18598475 12.67500253 20.41364823 26.25 25.8125 12.97657663 4.10924927 24.94648459 2.44202476 37.13671876-3.44921875L281 293v-2l2.1875-.625c3.78468384-1.85028987 5.33508653-3.97740437 7.8125-7.375v-2h2l4-9h-82Zm121 0c3.11208153 9.33624457 8.8719226 16.364533 17 22 13.85821127 6.64142035 26.34223006 7.73657195 41 3 2.1276682-.88288288 4.00710895-1.83748021 6-3v-2h3c5.6779998-4.91070252 10.49389763-11.37736216 14-18v-2h-81Z"/></svg>