<svg viewBox="0 0 512 512"><path fill="currentColor" d="M247 30h18l11 4 9 6 5 4 7 10 5 13v18l-3 10 8 1 24 8 17 8 7 4 4-2 5-4h2v-2l4-1v-2h3v-2l17-8 14-4 6-1h24l17 4 12 5 14 9 10 9 9 10 8 13 6 15 2 8v36l-5 17-8 15-9 11-10 10-10 7-17 9v36l-3 21-6 22-6 16-8 17-7 12 8 1 16 8 11 8 8 8 9 14 5 11 3 13v16l-3 5-6 5-2 1H40l-6-4-4-5-1-2v-16l4-16 6-13h2v-3h2l1-4h2l2-5 8-7h2v-2l4-1v-2l19-9 8-1-6-11-8-16-6-15-6-21-3-17-1-9v-35l3-21 2-8-11-8-44-29-8-7-1-2v-14l1-3h2v-3h2v-3h2v-3h2v-3h2v-3h2v-3h2v-3h2v-3h2v-3h2v-3h2v-3h2v-3h2v-3h2v-3h2v-3h2v-3h2l1-4 7-4h10l9 5 43 29 3 1 7-6 4-5 8-7 6-5h2v-2l4-1v-2l4-1v-2l7-4 4-1v-2l16-8 19-8 20-6h4l-3-11V67l5-14 5-7h2l2-4h2l1-3 9-5 11-4Zm8 32-6 2-5 4-2 9 2 7 6 5 7 1 7-2 5-6 1-7-2-7-6-5-7-1Zm17 61v37l57 57 2 4 1 49h88l-2-16-7-25-8-18-9-15-8-11-12-14-13-12-17-12-21-11-19-7-22-5-10-1Zm147-1-13 2-12 5-9 6v4l10 9 9 9 11 14 10 15 12 23 7 19 2 6 5-2 3-1v-2h3v-2l5-2 6-7v-2h2l8-16 2-8 1-14-2-13-5-12-6-9-6-7-10-7-11-5-16-3h-6Zm-181 1-18 3-18 5-15 6-19 10-10 7-11 9-10 9-9 10-7 8-5 3h-10l-16-10-36-24-3 1-14 21 5 4 43 29 10 7 3 5 1 8-5 21-2 15h88l1-49 3-6 8-7 48-48v-37h-2Zm17 66-43 43v68h88v-68l-43-43h-2ZM92 302l2 15 4 17 6 16 8 16 7 12 9 12h255l3-3 3-3 3-5 3-4v-3h2l6-12 6-12 6-18 4-18 1-10h-88l-1 19-3 5-5 4-2 1H191l-6-4-4-6-1-19H92Zm11 120-12 2-12 6-10 10-4 8v2h382l-2-6-4-6-8-8-10-5-14-3H103Z"/></svg>